{"glyphs":{"0":{"ha":875,"x_min":104,"x_max":771,"o":"m 438 -17 q 306 13 364 -17 q 210 90 247 42 q 149 204 174 138 q 114 340 124 271 q 104 486 104 410 q 119 652 104 572 q 168 812 133 732 q 272 940 203 892 q 438 989 342 989 q 597 944 529 989 q 700 825 664 900 q 753 666 736 750 q 771 486 771 582 q 763 355 771 419 q 731 221 754 290 q 671 101 707 151 q 574 17 635 50 q 438 -17 514 -17 m 438 71 q 667 486 667 71 q 656 637 667 568 q 622 768 646 706 q 550 866 597 831 q 438 901 503 901 q 319 863 368 901 q 248 758 271 824 q 215 627 225 693 q 206 486 206 561 q 438 71 206 71 z "},"1":{"ha":478,"x_min":63,"x_max":325,"o":"m 228 0 l 228 796 l 63 796 l 63 851 q 263 972 222 851 l 325 972 l 325 0 l 228 0 z "},"2":{"ha":847,"x_min":106,"x_max":743,"o":"m 106 0 q 116 96 106 50 q 138 175 126 142 q 178 244 150 208 q 224 300 207 281 q 281 351 240 319 q 338 393 322 382 q 400 435 354 404 q 490 498 463 478 q 559 556 518 518 q 617 633 600 594 q 633 715 633 671 q 577 849 633 797 q 422 901 521 901 q 206 744 246 901 l 119 783 q 226 931 142 872 q 431 989 310 989 q 653 915 572 989 q 735 715 735 840 q 725 635 735 672 q 690 563 715 597 q 645 505 664 528 q 581 449 626 482 q 517 404 536 417 q 446 357 499 392 q 363 301 392 322 q 296 245 333 279 q 238 174 258 211 q 208 93 217 138 l 743 93 l 743 0 l 106 0 z "},"3":{"ha":833,"x_min":76,"x_max":729,"o":"m 399 -17 q 191 44 267 -17 q 76 211 115 104 l 167 249 q 258 116 203 158 q 399 74 314 74 q 562 122 497 74 q 626 264 626 171 q 570 408 626 356 q 410 461 514 461 l 344 461 l 344 550 l 396 550 q 535 598 482 550 q 588 726 588 646 q 535 851 588 804 q 408 899 482 899 q 193 749 258 899 l 103 783 q 214 930 138 871 q 404 989 290 989 q 608 920 526 989 q 689 740 689 851 q 656 617 689 675 q 565 528 622 558 q 685 429 642 497 q 729 267 729 361 q 631 65 729 146 q 399 -17 533 -17 z "},"4":{"ha":829,"x_min":49,"x_max":765,"o":"m 521 0 l 521 263 l 49 263 l 49 314 l 560 972 l 618 972 l 618 346 l 765 346 l 765 263 l 618 263 l 618 0 l 521 0 m 521 346 l 521 804 l 175 346 l 521 346 z "},"5":{"ha":886,"x_min":104,"x_max":782,"o":"m 429 -17 q 233 20 319 -17 q 104 107 146 57 l 161 178 q 276 95 217 124 q 425 67 336 67 q 606 137 533 67 q 679 303 679 207 q 618 469 679 401 q 461 536 557 536 q 319 508 381 536 q 225 443 257 481 l 143 468 l 222 972 l 717 972 l 717 885 l 300 885 l 244 546 q 468 628 338 628 q 691 540 600 628 q 782 315 782 453 q 685 84 782 185 q 429 -17 589 -17 z "},"6":{"ha":828,"x_min":90,"x_max":724,"o":"m 413 -17 q 174 88 258 -17 q 90 360 90 193 q 234 752 90 568 q 588 989 378 936 l 588 913 q 342 756 450 872 q 210 514 233 639 q 436 603 283 603 q 638 511 553 603 q 724 306 724 419 q 632 77 724 171 q 413 -17 540 -17 m 408 71 q 569 134 507 71 q 631 292 631 197 q 570 454 631 392 q 408 517 510 517 q 249 453 311 517 q 186 292 186 390 q 250 135 186 199 q 408 71 314 71 z "},"7":{"ha":707,"x_min":63,"x_max":644,"o":"m 235 0 q 303 465 238 251 q 533 889 368 678 l 63 889 l 63 972 l 644 972 l 644 908 q 332 0 335 554 l 235 0 z "},"8":{"ha":844,"x_min":104,"x_max":740,"o":"m 650 67 q 605 25 650 67 q 422 -17 560 -17 q 194 67 285 -17 q 104 274 104 150 q 152 437 104 364 q 276 538 200 510 q 183 619 217 564 q 149 738 149 674 q 228 915 149 840 q 422 989 307 989 q 617 915 538 989 q 696 738 696 840 q 663 618 696 672 q 567 538 629 564 q 692 436 644 508 q 740 274 740 364 q 650 67 740 150 m 295 611 q 319 589 295 611 q 422 567 343 567 q 549 611 501 567 q 597 725 597 656 q 548 853 597 806 q 422 901 499 901 q 297 853 346 901 q 247 725 247 806 q 295 611 247 656 m 267 129 q 297 100 267 129 q 422 71 328 71 q 578 129 517 71 q 639 288 639 188 q 578 440 639 376 q 422 503 518 503 q 266 440 326 503 q 206 288 206 376 q 267 129 206 188 z "},"9":{"ha":828,"x_min":90,"x_max":724,"o":"m 246 -17 l 246 60 q 485 219 383 100 q 606 467 588 338 q 375 372 532 372 q 174 460 257 372 q 90 667 90 547 q 183 896 90 803 q 413 989 276 989 q 644 884 564 989 q 724 613 724 779 q 588 219 724 401 q 246 -17 453 36 m 406 450 q 565 515 503 450 q 628 678 628 579 q 563 837 628 772 q 406 901 499 901 q 245 838 307 901 q 183 678 183 774 q 244 514 183 578 q 406 450 304 450 z "}," ":{"ha":319,"x_min":0,"x_max":0,"o":""},"!":{"ha":375,"x_min":100,"x_max":275,"o":"m 182 268 l 140 688 l 140 989 l 240 989 l 240 688 l 197 268 l 182 268 m 249 7 q 236 -6 249 7 q 188 -19 224 -19 q 126 7 151 -19 q 100 68 100 33 q 126 129 100 103 q 188 156 151 156 q 249 129 224 156 q 275 68 275 103 q 249 7 275 33 z "},"\"":{"ha":535,"x_min":83,"x_max":451,"o":"m 83 972 l 204 972 l 179 601 l 106 601 l 83 972 m 329 972 l 451 972 l 426 601 l 353 601 l 329 972 z "},"#":{"ha":951,"x_min":79,"x_max":872,"o":"m 207 0 l 250 283 l 79 283 l 96 371 l 263 371 l 300 618 l 140 618 l 154 703 l 313 703 l 354 972 l 449 972 l 408 703 l 606 703 l 647 972 l 742 972 l 700 703 l 872 703 l 858 618 l 688 618 l 649 371 l 811 371 l 797 283 l 636 283 l 593 0 l 499 0 l 542 283 l 344 283 l 301 0 l 207 0 m 357 371 l 554 371 l 593 618 l 396 618 l 357 371 z "},"$":{"ha":822,"x_min":90,"x_max":721,"o":"m 360 -136 l 360 -12 q 190 53 261 0 q 90 181 118 107 l 182 214 q 272 111 211 149 q 415 74 333 74 q 565 119 511 74 q 619 250 619 164 q 401 476 619 394 q 298 521 340 500 q 210 576 256 542 q 140 657 164 610 q 117 763 117 704 q 182 913 117 850 q 360 986 247 975 l 360 1096 l 458 1096 l 458 985 q 599 934 542 975 q 674 835 656 893 l 583 804 q 516 872 564 846 q 399 899 468 899 q 266 863 314 899 q 218 764 218 826 q 276 653 218 696 q 440 569 333 611 q 542 524 499 547 q 629 463 585 500 q 697 372 674 425 q 721 253 721 318 q 649 67 721 136 q 458 -14 578 -3 l 458 -136 l 360 -136 z "},"%":{"ha":1235,"x_min":82,"x_max":1151,"o":"m 300 494 q 135 568 189 494 q 82 742 82 642 q 136 912 82 835 q 300 989 190 989 q 465 916 411 989 q 518 742 518 843 q 499 629 518 682 q 428 535 481 576 q 300 494 376 494 m 335 -17 l 235 -17 l 899 989 l 999 989 l 335 -17 m 300 575 q 394 623 361 575 q 428 742 428 671 q 395 863 428 818 q 300 908 363 908 q 204 861 236 908 q 172 742 172 814 q 205 621 172 667 q 300 575 238 575 m 933 -17 q 769 57 822 -17 q 715 231 715 131 q 769 401 715 324 q 933 478 824 478 q 1098 405 1044 478 q 1151 231 1151 332 q 1133 118 1151 171 q 1062 24 1114 65 q 933 -17 1010 -17 m 933 64 q 1028 112 994 64 q 1061 231 1061 160 q 1028 352 1061 307 q 933 397 996 397 q 838 350 869 397 q 806 231 806 303 q 838 110 806 156 q 933 64 871 64 z "},"&":{"ha":907,"x_min":65,"x_max":879,"o":"m 336 -17 q 140 55 214 -17 q 65 244 65 126 q 124 413 65 343 q 299 547 183 482 q 203 681 231 631 q 176 785 176 732 q 242 933 176 878 q 406 989 307 989 q 563 931 500 989 q 625 782 625 872 q 576 649 625 708 q 433 532 528 590 l 644 279 q 694 443 685 358 l 786 443 q 708 204 775 314 l 879 0 l 758 0 l 651 126 q 504 20 588 57 q 336 -17 421 -17 m 400 903 q 304 870 340 903 q 268 783 268 838 q 294 708 268 749 q 382 593 321 667 q 533 772 533 682 q 495 867 533 831 q 400 903 457 903 m 356 71 q 478 105 415 71 q 590 199 540 139 l 351 483 q 203 369 250 422 q 157 253 157 317 q 213 121 157 171 q 356 71 268 71 z "},"'":{"ha":288,"x_min":83,"x_max":204,"o":"m 83 972 l 204 972 l 179 601 l 106 601 l 83 972 z "},"(":{"ha":472,"x_min":118,"x_max":396,"o":"m 288 -181 q 118 394 118 42 q 303 989 118 768 l 396 989 q 276 757 338 917 q 214 394 214 597 q 381 -181 214 67 l 288 -181 z "},")":{"ha":472,"x_min":76,"x_max":354,"o":"m 92 -181 q 258 394 258 67 q 197 757 258 597 q 76 989 135 917 l 169 989 q 354 394 354 768 q 185 -181 354 42 l 92 -181 z "},"*":{"ha":743,"x_min":81,"x_max":663,"o":"m 414 546 l 369 657 l 326 546 l 235 418 l 157 478 l 246 600 l 326 678 l 222 685 l 81 732 l 113 824 l 247 779 l 346 711 l 324 826 l 324 982 l 419 982 l 419 826 l 394 711 l 493 779 l 631 824 l 663 732 l 518 685 l 411 678 l 497 600 l 585 478 l 508 418 l 414 546 z "},"+":{"ha":917,"x_min":132,"x_max":785,"o":"m 507 428 l 507 150 l 407 150 l 407 428 l 132 428 l 132 522 l 407 522 l 407 803 l 507 803 l 507 522 l 785 522 l 785 428 l 507 428 z "},",":{"ha":314,"x_min":69,"x_max":254,"o":"m 101 -189 q 149 -124 126 -167 q 171 -26 171 -81 q 98 -2 126 -26 q 69 60 69 22 q 94 126 69 101 q 154 151 118 151 q 224 122 194 151 q 254 35 254 92 q 219 -101 254 -42 q 128 -196 185 -161 l 101 -189 z "},"-":{"ha":560,"x_min":125,"x_max":435,"o":"m 125 367 l 125 461 l 435 461 l 435 367 l 125 367 z "},".":{"ha":314,"x_min":69,"x_max":244,"o":"m 219 7 q 206 -6 219 7 q 157 -19 193 -19 q 95 7 121 -19 q 69 68 69 33 q 95 129 69 103 q 157 156 121 156 q 219 129 193 156 q 244 68 244 103 q 219 7 244 33 z "},"/":{"ha":675,"x_min":0,"x_max":640,"o":"m 0 -181 l 546 989 l 640 989 l 94 -181 l 0 -181 z "},":":{"ha":314,"x_min":69,"x_max":244,"o":"m 219 522 q 206 509 219 522 q 157 496 193 496 q 95 522 121 496 q 69 583 69 549 q 95 644 69 618 q 157 671 121 671 q 219 644 193 671 q 244 583 244 618 q 219 522 244 549 m 219 7 q 206 -6 219 7 q 157 -19 193 -19 q 95 7 121 -19 q 69 68 69 33 q 95 129 69 103 q 157 156 121 156 q 219 129 193 156 q 244 68 244 103 q 219 7 244 33 z "},";":{"ha":314,"x_min":69,"x_max":254,"o":"m 219 522 q 206 509 219 522 q 157 496 193 496 q 95 522 121 496 q 69 583 69 549 q 95 644 69 618 q 157 671 121 671 q 219 644 193 671 q 244 583 244 618 q 219 522 244 549 m 101 -189 q 144 -124 125 -168 q 164 -25 164 -81 q 97 -1 125 -25 q 69 60 69 22 q 94 126 69 101 q 154 151 118 151 q 224 122 194 151 q 254 35 254 92 q 219 -101 254 -42 q 128 -196 185 -161 l 101 -189 z "},"<":{"ha":917,"x_min":132,"x_max":785,"o":"m 785 167 l 132 429 l 132 521 l 785 785 l 785 692 l 239 476 l 785 261 l 785 167 z "},"=":{"ha":917,"x_min":132,"x_max":785,"o":"m 132 539 l 132 632 l 785 632 l 785 539 l 132 539 m 132 318 l 132 411 l 785 411 l 785 318 l 132 318 z "},">":{"ha":917,"x_min":132,"x_max":785,"o":"m 785 429 l 132 167 l 132 258 l 678 476 l 132 692 l 132 785 l 785 521 l 785 429 z "},"?":{"ha":731,"x_min":61,"x_max":661,"o":"m 300 236 l 300 268 q 327 397 300 340 q 392 490 354 454 q 469 560 431 526 q 534 638 507 593 q 561 736 561 682 q 510 852 561 806 q 368 899 458 899 q 210 846 268 899 q 153 710 153 793 l 61 710 q 144 910 61 831 q 368 989 228 989 q 583 916 506 989 q 661 733 661 843 q 634 615 661 667 q 569 528 607 563 q 492 461 531 494 q 427 379 454 428 q 400 268 400 331 l 400 236 l 300 236 m 409 7 q 396 -6 409 7 q 347 -19 383 -19 q 285 7 311 -19 q 260 68 260 33 q 285 129 260 103 q 347 156 311 156 q 409 129 383 156 q 435 68 435 103 q 409 7 435 33 z "},"@":{"ha":1110,"x_min":69,"x_max":1040,"o":"m 554 -17 q 208 113 346 -17 q 69 465 69 242 q 220 840 69 692 q 581 989 371 989 q 913 874 785 989 q 1040 574 1040 760 q 974 322 1040 422 q 813 222 908 222 q 679 328 700 222 q 503 210 615 210 q 358 277 415 210 q 300 447 300 344 q 373 645 300 556 q 560 735 446 735 q 662 700 621 735 q 714 601 703 665 l 733 717 l 821 717 l 765 394 q 764 369 764 386 q 781 317 764 336 q 826 299 797 299 q 920 378 883 299 q 957 579 957 458 q 851 818 957 733 q 585 903 746 903 q 276 780 390 903 q 161 464 161 657 q 269 182 161 294 q 560 69 376 69 q 758 96 679 69 l 738 4 q 554 -17 663 -17 m 529 294 q 646 354 600 294 q 692 499 692 414 q 655 608 692 565 q 567 650 618 650 q 445 591 490 650 q 400 446 400 532 q 435 335 400 376 q 529 294 469 294 z "},"A":{"ha":919,"x_min":83,"x_max":836,"o":"m 738 0 l 649 251 l 269 251 l 185 0 l 83 0 l 421 972 l 496 972 l 836 0 l 738 0 m 619 338 l 486 726 q 458 814 464 789 l 447 778 q 432 726 438 740 l 299 338 l 619 338 z "},"B":{"ha":897,"x_min":146,"x_max":800,"o":"m 146 972 l 468 972 q 695 899 625 972 q 765 718 765 826 q 724 592 765 646 q 613 513 683 539 q 748 430 696 492 q 800 272 800 368 q 727 78 800 157 q 490 0 654 0 l 146 0 l 146 972 m 444 547 q 616 594 557 547 q 675 721 675 640 q 476 885 675 885 l 243 885 l 243 547 l 444 547 m 507 88 q 663 138 617 88 q 710 264 710 188 q 461 463 710 463 l 243 463 l 243 88 l 507 88 z "},"C":{"ha":894,"x_min":97,"x_max":811,"o":"m 500 -17 q 316 26 396 -17 q 190 140 236 68 q 120 300 143 213 q 97 486 97 388 q 138 735 97 625 q 272 917 179 846 q 500 989 365 989 q 686 947 619 989 q 797 832 753 904 l 711 782 q 624 869 672 838 q 500 901 576 901 q 360 865 421 901 q 265 766 299 828 q 215 633 232 704 q 199 486 199 563 q 228 283 199 374 q 328 131 258 192 q 500 71 399 71 q 725 194 650 71 l 811 161 q 695 34 774 85 q 500 -17 617 -17 z "},"D":{"ha":942,"x_min":146,"x_max":844,"o":"m 146 972 l 404 972 q 611 931 522 972 q 749 818 700 889 q 821 664 797 747 q 844 486 844 581 q 832 349 844 415 q 788 219 819 283 q 707 106 756 154 q 579 29 658 58 q 399 0 500 0 l 146 0 l 146 972 m 406 88 q 567 122 499 88 q 673 217 636 157 q 726 343 710 276 q 743 486 743 410 q 663 769 743 653 q 421 885 582 885 l 243 885 l 243 88 l 406 88 z "},"E":{"ha":828,"x_min":146,"x_max":731,"o":"m 146 0 l 146 972 l 700 972 l 700 879 l 243 879 l 243 549 l 551 549 l 551 457 l 243 457 l 243 93 l 731 93 l 731 0 l 146 0 z "},"F":{"ha":783,"x_min":146,"x_max":714,"o":"m 146 0 l 146 972 l 714 972 l 714 879 l 243 879 l 243 549 l 561 549 l 561 457 l 243 457 l 243 0 l 146 0 z "},"G":{"ha":951,"x_min":97,"x_max":833,"o":"m 500 -17 q 316 26 396 -17 q 190 140 236 68 q 120 300 143 213 q 97 486 97 388 q 138 735 97 625 q 272 917 179 846 q 500 989 365 989 q 686 947 619 989 q 797 832 753 904 l 711 782 q 624 869 672 838 q 500 901 576 901 q 360 865 421 901 q 265 766 299 828 q 215 633 232 704 q 199 486 199 563 q 228 283 199 374 q 328 131 258 192 q 500 71 399 71 q 668 136 606 71 q 731 313 731 201 l 731 371 l 551 371 l 551 457 l 833 457 l 833 350 q 740 80 833 176 q 500 -17 646 -17 z "},"H":{"ha":961,"x_min":146,"x_max":815,"o":"m 718 0 l 718 460 l 243 460 l 243 0 l 146 0 l 146 972 l 243 972 l 243 551 l 718 551 l 718 972 l 815 972 l 815 0 l 718 0 z "},"I":{"ha":389,"x_min":146,"x_max":243,"o":"m 146 0 l 146 972 l 243 972 l 243 0 l 146 0 z "},"J":{"ha":731,"x_min":42,"x_max":585,"o":"m 294 -17 q 135 25 194 -17 q 42 149 76 67 l 118 190 q 158 123 143 143 q 208 87 174 103 q 299 71 243 71 q 433 119 379 71 q 488 283 488 168 l 488 972 l 585 972 l 585 313 q 567 176 585 236 q 519 81 549 117 q 451 23 490 46 q 374 -8 411 0 q 294 -17 336 -17 z "},"K":{"ha":893,"x_min":146,"x_max":817,"o":"m 707 0 l 401 560 l 243 363 l 243 0 l 146 0 l 146 972 l 243 972 l 243 489 l 628 972 l 733 972 l 468 642 l 817 0 l 707 0 z "},"L":{"ha":774,"x_min":146,"x_max":725,"o":"m 146 0 l 146 972 l 243 972 l 243 93 l 725 93 l 725 0 l 146 0 z "},"M":{"ha":1114,"x_min":146,"x_max":968,"o":"m 968 0 l 871 0 l 871 661 l 871 719 q 858 690 867 710 q 844 661 849 671 l 546 -17 l 265 661 q 254 688 263 669 q 243 715 246 706 l 243 661 l 243 0 l 146 0 l 146 972 l 229 972 l 531 269 q 542 243 535 261 q 554 215 550 225 q 566 243 558 225 q 578 269 574 261 l 883 972 l 968 972 l 968 0 z "},"N":{"ha":979,"x_min":146,"x_max":833,"o":"m 833 0 l 735 0 l 282 728 q 243 793 247 786 l 243 728 l 243 0 l 146 0 l 146 972 l 244 972 l 696 236 q 736 168 718 200 l 736 236 l 736 972 l 833 972 l 833 0 z "},"O":{"ha":1000,"x_min":97,"x_max":903,"o":"m 689 27 q 649 5 689 27 q 500 -17 608 -17 q 311 27 392 -17 q 185 145 231 71 q 119 305 140 219 q 97 486 97 390 q 119 667 97 582 q 185 827 140 753 q 311 945 231 901 q 500 989 392 989 q 689 945 608 989 q 815 827 769 901 q 881 667 860 753 q 903 486 903 582 q 881 305 903 390 q 815 145 860 219 q 689 27 769 71 m 500 71 q 641 108 581 71 q 735 206 701 144 q 785 339 769 268 q 801 486 801 410 q 774 688 801 599 q 677 840 747 778 q 500 901 607 901 q 359 865 419 901 q 265 766 299 828 q 215 633 231 704 q 199 486 199 563 q 226 284 199 374 q 323 133 253 194 q 500 71 393 71 z "},"P":{"ha":871,"x_min":146,"x_max":808,"o":"m 146 0 l 146 972 l 501 972 q 735 890 663 972 q 808 686 808 807 q 732 488 808 574 q 501 401 656 401 l 243 401 l 243 0 l 146 0 m 510 489 q 665 547 615 489 q 715 686 715 606 q 667 825 715 765 q 510 885 619 885 l 243 885 l 243 489 l 510 489 z "},"Q":{"ha":1000,"x_min":97,"x_max":903,"o":"m 692 29 q 500 -17 608 -17 q 311 27 392 -17 q 185 145 231 71 q 119 305 140 219 q 97 486 97 390 q 119 667 97 582 q 185 827 140 753 q 311 945 231 901 q 500 989 392 989 q 689 945 608 989 q 815 827 769 901 q 881 667 860 753 q 903 486 903 582 q 758 79 903 214 l 839 -40 l 772 -90 l 692 29 m 500 71 q 639 107 579 71 l 574 204 l 643 254 l 704 163 q 801 486 801 278 q 774 688 801 599 q 677 840 747 778 q 500 901 607 901 q 359 865 419 901 q 265 766 299 828 q 215 633 231 704 q 199 486 199 563 q 226 284 199 374 q 323 133 253 194 q 500 71 393 71 z "},"R":{"ha":907,"x_min":146,"x_max":803,"o":"m 146 0 l 146 972 l 503 972 q 732 895 661 972 q 803 706 803 818 q 744 533 803 607 q 563 439 686 458 l 778 0 l 671 0 l 463 435 l 243 435 l 243 0 l 146 0 m 243 522 l 506 522 q 660 574 611 522 q 710 701 710 626 q 662 828 710 772 q 506 885 614 885 l 243 885 l 243 522 z "},"S":{"ha":825,"x_min":90,"x_max":721,"o":"m 414 -17 q 208 40 296 -17 q 90 181 121 97 l 182 214 q 274 110 213 149 q 415 71 335 71 q 566 117 511 71 q 621 250 621 164 q 561 385 621 332 q 401 476 501 439 q 298 521 342 499 q 209 577 254 543 q 140 658 164 611 q 117 763 117 706 q 194 924 117 858 q 403 989 272 989 q 581 946 508 989 q 674 835 653 903 l 583 804 q 516 874 564 846 q 399 901 468 901 q 265 864 314 901 q 217 764 217 826 q 234 697 217 726 q 287 644 251 668 q 355 606 322 621 q 440 569 388 590 q 541 523 497 547 q 628 461 585 499 q 697 371 672 424 q 721 253 721 318 q 636 55 721 126 q 414 -17 551 -17 z "},"T":{"ha":799,"x_min":83,"x_max":715,"o":"m 447 879 l 447 0 l 350 0 l 350 879 l 83 879 l 83 972 l 715 972 l 715 879 l 447 879 z "},"U":{"ha":944,"x_min":139,"x_max":806,"o":"m 806 361 q 472 -17 806 -17 q 139 361 139 -17 l 139 972 l 236 972 l 236 361 q 472 71 236 71 q 708 361 708 71 l 708 972 l 806 972 l 806 361 z "},"V":{"ha":889,"x_min":76,"x_max":813,"o":"m 410 0 l 76 972 l 179 972 l 422 243 q 437 199 428 228 q 450 157 446 169 q 464 203 454 174 q 476 243 474 233 l 708 972 l 813 972 l 481 0 l 410 0 z "},"W":{"ha":1149,"x_min":76,"x_max":1072,"o":"m 264 0 l 76 972 l 179 972 l 297 304 l 314 207 q 340 301 318 224 l 532 972 l 604 972 l 793 301 q 814 224 807 251 l 831 306 l 971 972 l 1072 972 l 861 0 l 800 0 l 592 697 q 567 783 575 753 q 542 697 558 753 l 331 0 l 264 0 z "},"X":{"ha":781,"x_min":61,"x_max":721,"o":"m 617 0 l 385 422 l 164 0 l 61 0 l 340 501 l 82 972 l 188 972 l 392 597 l 592 972 l 693 972 l 436 517 l 721 0 l 617 0 z "},"Y":{"ha":856,"x_min":63,"x_max":793,"o":"m 381 0 l 381 382 l 63 972 l 169 972 l 428 472 l 693 972 l 793 972 l 478 386 l 478 0 l 381 0 z "},"Z":{"ha":885,"x_min":97,"x_max":788,"o":"m 97 0 l 97 68 l 664 881 l 129 881 l 129 972 l 788 972 l 788 901 l 228 92 l 788 92 l 788 0 l 97 0 z "},"[":{"ha":526,"x_min":160,"x_max":450,"o":"m 160 -181 l 160 989 l 450 989 l 450 901 l 257 901 l 257 -93 l 450 -93 l 450 -181 l 160 -181 z "},"\\":{"ha":675,"x_min":0,"x_max":640,"o":"m 546 -181 l 0 989 l 94 989 l 640 -181 l 546 -181 z "},"]":{"ha":526,"x_min":76,"x_max":367,"o":"m 367 -181 l 76 -181 l 76 -93 l 269 -93 l 269 901 l 76 901 l 76 989 l 367 989 l 367 -181 z "},"^":{"ha":917,"x_min":139,"x_max":778,"o":"m 678 503 l 458 868 l 239 503 l 139 503 l 404 989 l 510 989 l 778 503 l 678 503 z "},"_":{"ha":736,"x_min":14,"x_max":722,"o":"m 14 -246 l 14 -139 l 722 -139 l 722 -246 l 14 -246 z "},"`":{"ha":465,"x_min":29,"x_max":375,"o":"m 276 800 l 29 1017 l 178 1017 l 375 800 l 276 800 z "},"a":{"ha":721,"x_min":83,"x_max":624,"o":"m 533 0 l 533 69 q 325 -17 438 -17 q 149 45 214 -17 q 83 224 83 107 q 158 399 83 339 q 342 458 232 458 q 533 408 440 458 l 533 468 q 378 642 533 642 q 167 565 278 642 l 139 649 q 388 726 261 726 q 468 716 431 726 q 542 680 506 706 q 601 603 579 654 q 624 481 624 553 l 624 0 l 533 0 m 335 68 q 533 178 444 68 l 533 315 q 351 374 446 374 q 224 335 275 374 q 174 224 174 297 q 216 110 174 153 q 335 68 258 68 z "},"b":{"ha":781,"x_min":125,"x_max":704,"o":"m 419 -17 q 333 -3 372 -17 q 273 25 293 11 q 222 64 253 39 l 222 0 l 125 0 l 125 954 l 222 1003 l 222 640 q 308 703 257 679 q 411 726 360 726 q 625 628 546 726 q 704 356 704 529 q 629 80 704 176 q 419 -17 554 -17 m 404 71 q 553 146 503 71 q 603 356 603 221 q 553 566 603 493 q 404 639 503 639 q 295 605 344 639 q 222 531 246 571 l 222 182 q 301 101 251 132 q 404 71 351 71 z "},"c":{"ha":668,"x_min":76,"x_max":606,"o":"m 357 -17 q 152 81 228 -17 q 76 354 76 179 q 154 628 76 529 q 368 726 232 726 q 507 688 447 726 q 596 578 567 649 l 507 543 q 364 639 468 639 q 178 354 178 639 q 361 71 178 71 q 459 100 418 71 q 518 179 500 129 l 606 146 q 514 27 581 71 q 357 -17 447 -17 z "},"d":{"ha":781,"x_min":76,"x_max":656,"o":"m 369 -17 q 155 84 233 -17 q 76 356 76 185 q 155 628 76 529 q 369 726 233 726 q 558 660 475 726 l 558 954 l 656 1003 l 656 0 l 558 0 l 558 61 q 369 -17 481 -17 m 381 71 q 482 100 435 71 q 558 182 529 129 l 558 536 q 381 639 494 639 q 231 565 283 639 q 178 356 178 492 q 233 152 178 233 q 381 71 289 71 z "},"e":{"ha":735,"x_min":76,"x_max":665,"o":"m 385 -17 q 161 92 246 -17 q 76 356 76 200 q 161 628 76 529 q 385 726 246 726 q 586 640 507 726 q 665 383 665 553 q 663 315 665 346 l 179 315 q 246 139 192 204 q 389 74 300 74 q 549 129 474 74 l 601 64 q 385 -17 504 -17 m 176 403 l 567 403 q 510 585 565 532 q 385 639 456 639 q 239 579 296 639 q 176 403 182 519 z "},"f":{"ha":458,"x_min":42,"x_max":424,"o":"m 253 622 l 253 0 l 156 0 l 156 622 l 42 622 l 42 710 l 156 710 l 156 831 q 198 950 156 911 q 303 989 240 989 q 424 956 363 989 l 424 871 q 322 899 371 899 q 283 892 299 899 q 262 871 268 885 q 254 846 256 857 q 253 815 253 835 l 253 710 l 424 710 l 424 622 l 253 622 z "},"g":{"ha":783,"x_min":76,"x_max":658,"o":"m 325 -296 l 281 -219 q 501 -161 440 -211 q 561 -28 561 -111 l 561 81 q 367 -17 496 -17 q 160 81 244 -17 q 76 356 76 179 q 158 627 76 528 q 372 726 240 726 q 561 643 490 726 l 561 710 l 658 710 l 658 11 q 325 -296 658 -282 m 389 71 q 484 103 435 71 q 561 189 533 136 l 561 531 q 483 610 533 581 q 389 639 432 639 q 231 566 285 639 q 178 356 178 493 q 237 147 178 222 q 389 71 296 71 z "},"h":{"ha":778,"x_min":125,"x_max":660,"o":"m 125 0 l 125 957 l 222 1003 l 222 631 q 406 726 286 726 q 598 647 536 726 q 660 393 660 568 l 660 0 l 563 0 l 563 433 q 518 590 563 540 q 397 639 474 639 q 222 436 222 639 l 222 0 l 125 0 z "},"i":{"ha":350,"x_min":111,"x_max":239,"o":"m 221 874 q 212 865 221 874 q 175 856 203 856 q 129 874 147 856 q 111 919 111 892 q 130 967 111 947 q 175 986 149 986 q 221 967 203 986 q 239 919 239 947 q 221 874 239 892 m 126 0 l 126 710 l 224 710 l 224 0 l 126 0 z "},"j":{"ha":350,"x_min":-42,"x_max":240,"o":"m 176 856 q 131 874 150 856 q 113 919 113 892 q 131 967 113 947 q 176 986 150 986 q 222 967 204 986 q 240 919 240 947 q 222 874 240 892 q 176 856 204 856 m 3 -296 l -42 -219 q 128 -83 128 -204 l 128 710 l 225 710 l 225 -44 q 186 -203 225 -142 q 3 -296 129 -289 z "},"k":{"ha":710,"x_min":125,"x_max":675,"o":"m 675 0 l 568 0 l 340 450 l 222 324 l 222 0 l 125 0 l 125 956 l 222 1003 l 222 439 l 474 710 l 586 710 l 408 521 l 675 0 z "},"l":{"ha":361,"x_min":132,"x_max":229,"o":"m 132 0 l 132 956 l 229 1003 l 229 0 l 132 0 z "},"m":{"ha":1171,"x_min":125,"x_max":1053,"o":"m 956 0 l 956 435 q 801 639 956 639 q 681 580 725 639 q 638 435 638 521 l 638 0 l 540 0 l 540 435 q 386 639 540 639 q 265 585 307 639 q 222 446 222 532 l 222 0 l 125 0 l 125 710 l 222 710 l 222 640 q 415 726 296 726 q 525 697 472 726 q 607 618 578 668 q 691 696 638 665 q 810 726 744 726 q 984 657 915 726 q 1053 472 1053 588 l 1053 0 l 956 0 z "},"n":{"ha":778,"x_min":125,"x_max":660,"o":"m 563 0 l 563 433 q 518 590 563 540 q 397 639 474 639 q 222 436 222 639 l 222 0 l 125 0 l 125 710 l 222 710 l 222 632 q 406 726 288 726 q 598 647 536 726 q 660 393 660 568 l 660 0 l 563 0 z "},"o":{"ha":761,"x_min":76,"x_max":685,"o":"m 381 -17 q 159 81 242 -17 q 76 354 76 179 q 160 627 76 528 q 381 726 243 726 q 602 628 519 726 q 685 356 685 531 q 601 83 685 182 q 381 -17 518 -17 m 381 71 q 530 147 476 71 q 583 356 583 222 q 531 564 583 489 q 381 639 479 639 q 230 566 282 639 q 178 354 178 493 q 230 146 178 221 q 381 71 282 71 z "},"p":{"ha":786,"x_min":125,"x_max":710,"o":"m 417 -17 q 222 72 299 -17 l 222 -233 l 125 -282 l 125 710 l 222 710 l 222 646 q 417 726 311 726 q 631 626 553 726 q 710 356 710 525 q 628 82 710 181 q 417 -17 547 -17 m 406 71 q 556 144 503 71 q 608 356 608 218 q 554 563 608 486 q 406 639 500 639 q 300 610 349 639 q 222 529 251 581 l 222 181 q 406 71 307 71 z "},"q":{"ha":783,"x_min":76,"x_max":658,"o":"m 372 -17 q 156 81 235 -17 q 76 354 76 179 q 153 625 76 524 q 363 726 229 726 q 561 646 460 726 l 561 710 l 658 710 l 658 -233 l 561 -278 l 561 72 q 372 -17 482 -17 m 376 71 q 457 92 418 71 q 515 132 496 113 q 561 183 535 151 l 561 529 q 376 639 499 639 q 231 558 285 639 q 178 354 178 476 q 228 144 178 217 q 376 71 279 71 z "},"r":{"ha":529,"x_min":125,"x_max":501,"o":"m 125 0 l 125 710 l 222 710 l 222 610 q 401 726 276 726 q 501 697 461 726 l 486 603 q 394 629 443 629 q 276 574 329 629 q 222 401 222 519 l 222 0 l 125 0 z "},"s":{"ha":643,"x_min":81,"x_max":564,"o":"m 325 -17 q 81 107 185 -17 l 149 167 q 333 69 231 69 q 433 97 394 69 q 472 172 472 124 q 458 227 472 203 q 415 272 444 251 q 361 303 385 292 q 296 331 338 314 q 214 368 246 351 q 149 410 182 385 q 99 469 115 435 q 83 546 83 503 q 147 676 83 626 q 313 726 211 726 q 543 618 453 726 l 479 564 q 310 640 403 640 q 212 615 249 640 q 175 547 175 590 q 185 508 175 526 q 207 478 194 490 q 246 452 219 467 q 288 431 272 438 q 338 411 303 425 q 403 384 379 394 q 462 352 426 374 q 516 309 497 331 q 549 253 535 288 q 564 178 564 219 q 499 36 564 89 q 325 -17 435 -17 z "},"t":{"ha":513,"x_min":42,"x_max":443,"o":"m 303 -17 q 163 146 163 -17 l 163 622 l 42 622 l 42 710 l 163 710 l 163 954 l 260 1003 l 260 710 l 440 710 l 440 622 l 260 622 l 260 188 q 275 104 260 133 q 336 75 290 75 q 443 117 382 75 l 432 15 q 303 -17 372 -17 z "},"u":{"ha":778,"x_min":118,"x_max":653,"o":"m 556 0 l 556 68 q 478 2 519 21 q 379 -17 438 -17 q 180 61 242 -17 q 118 314 118 139 l 118 710 l 215 710 l 215 276 q 260 121 215 171 q 379 71 304 71 q 556 274 556 71 l 556 710 l 653 710 l 653 0 l 556 0 z "},"v":{"ha":699,"x_min":56,"x_max":643,"o":"m 315 0 l 56 710 l 156 710 l 328 226 q 335 203 331 218 q 344 176 340 189 q 353 151 349 164 q 361 176 357 164 q 370 203 365 189 q 378 226 375 218 l 546 710 l 643 710 l 383 0 l 315 0 z "},"w":{"ha":978,"x_min":56,"x_max":922,"o":"m 231 0 l 56 710 l 153 710 l 269 199 l 286 121 q 297 163 290 136 q 307 199 304 190 l 456 710 l 522 710 l 671 199 q 683 154 675 183 q 694 114 692 125 q 703 158 697 129 q 713 199 710 186 l 825 710 l 922 710 l 747 0 l 660 0 l 518 429 q 506 468 517 433 q 488 525 494 503 q 458 431 481 504 l 319 0 l 231 0 z "},"x":{"ha":697,"x_min":56,"x_max":642,"o":"m 56 0 l 296 368 l 72 710 l 178 710 l 303 518 q 349 446 324 488 q 394 518 374 488 l 519 710 l 625 710 l 401 368 l 642 0 l 536 0 l 393 219 l 349 290 q 304 219 325 251 l 161 0 l 56 0 z "},"y":{"ha":724,"x_min":56,"x_max":668,"o":"m 210 -269 l 315 22 l 56 710 l 154 710 l 333 206 q 346 167 338 192 q 357 133 354 142 l 382 206 l 564 710 l 668 710 l 306 -269 l 210 -269 z "},"z":{"ha":693,"x_min":97,"x_max":589,"o":"m 97 0 l 97 60 l 460 622 l 125 622 l 125 710 l 589 710 l 589 651 l 224 88 l 588 88 l 588 0 l 97 0 z "},"{":{"ha":525,"x_min":90,"x_max":463,"o":"m 463 -181 q 272 -96 342 -178 q 201 140 201 -14 l 201 211 q 172 322 201 279 q 96 365 143 365 l 90 365 l 90 444 l 96 444 q 172 487 143 444 q 201 599 201 529 l 201 668 q 272 904 201 822 q 463 989 342 986 l 463 907 q 301 694 301 901 l 301 617 q 265 458 301 501 q 150 404 228 414 q 265 356 229 399 q 301 192 301 313 l 301 114 q 463 -99 301 -93 l 463 -181 z "},"|":{"ha":375,"x_min":139,"x_max":236,"o":"m 139 -525 l 139 1475 l 236 1475 l 236 -525 l 139 -525 z "},"}":{"ha":525,"x_min":63,"x_max":435,"o":"m 63 -181 l 63 -99 q 224 114 224 -93 l 224 192 q 260 356 224 313 q 375 404 296 399 q 260 458 297 414 q 224 617 224 501 l 224 694 q 63 907 224 901 l 63 989 q 253 904 183 986 q 324 668 324 822 l 324 599 q 353 487 324 529 q 429 444 382 444 l 435 444 l 435 365 l 429 365 q 353 322 382 365 q 324 211 324 279 l 324 140 q 253 -96 324 -14 q 63 -181 183 -178 z "},"~":{"ha":917,"x_min":135,"x_max":782,"o":"m 610 385 q 447 428 550 385 q 299 472 343 472 q 223 448 253 472 q 190 385 193 424 l 135 385 q 176 514 135 463 q 307 565 218 565 q 474 522 369 565 q 618 478 578 478 q 694 502 664 478 q 726 565 724 526 l 782 565 q 740 436 782 488 q 610 385 697 385 z "}," ":{"ha":319,"x_min":0,"x_max":0,"o":""},"¡":{"ha":368,"x_min":100,"x_max":275,"o":"m 249 578 q 236 565 249 578 q 188 551 224 551 q 126 578 151 551 q 100 639 100 604 q 126 700 100 674 q 188 726 151 726 q 249 700 224 726 q 275 639 275 674 q 249 578 275 604 m 235 -278 l 135 -278 l 135 19 l 178 439 l 193 439 l 235 19 l 235 -278 z "},"¢":{"ha":710,"x_min":90,"x_max":619,"o":"m 319 -17 l 319 118 q 151 236 213 140 q 90 486 90 332 q 150 733 90 639 q 319 850 210 826 l 319 989 l 415 989 l 415 854 q 615 706 567 842 l 521 669 q 389 761 486 761 q 241 690 290 761 q 192 486 192 618 q 240 281 192 353 q 382 210 289 210 q 474 238 435 210 q 526 317 513 267 l 619 283 q 415 115 574 128 l 415 -17 l 319 -17 z "},"£":{"ha":839,"x_min":125,"x_max":776,"o":"m 132 0 l 132 110 q 230 226 200 140 q 260 397 260 311 l 260 417 l 125 417 l 125 496 l 238 496 q 219 529 233 503 q 200 568 206 556 q 185 606 194 581 q 173 658 176 631 q 169 721 169 686 q 250 911 169 833 q 482 989 331 989 q 757 899 642 989 l 719 810 q 482 896 615 896 q 328 843 381 896 q 275 719 275 790 q 290 631 275 674 q 324 551 306 588 q 347 496 343 515 l 575 496 l 575 417 l 365 417 l 365 401 q 218 90 365 224 l 776 90 l 776 0 l 132 0 z "},"¤":{"ha":882,"x_min":71,"x_max":811,"o":"m 440 119 q 235 183 315 119 l 144 92 l 71 167 l 165 261 q 114 463 114 339 q 164 665 114 582 l 71 758 l 140 831 l 232 740 q 440 807 322 807 q 647 742 560 807 l 738 831 l 811 754 l 721 664 q 769 463 769 579 q 715 257 769 340 l 811 163 l 742 92 l 649 185 q 440 119 567 119 m 440 213 q 607 283 543 213 q 671 463 671 353 q 607 642 671 571 q 440 714 543 714 q 276 642 339 714 q 213 463 213 571 q 276 283 213 353 q 440 213 339 213 z "},"¥":{"ha":775,"x_min":42,"x_max":733,"o":"m 432 429 l 647 429 l 647 346 l 436 346 l 436 254 l 647 254 l 647 171 l 436 171 l 436 0 l 339 0 l 339 171 l 111 171 l 111 254 l 339 254 l 339 346 l 111 346 l 111 429 l 342 429 l 42 972 l 150 972 l 386 522 l 633 972 l 733 972 l 432 429 z "},"¦":{"ha":375,"x_min":139,"x_max":236,"o":"m 139 508 l 139 1146 l 236 1146 l 236 508 l 139 508 m 139 -312 l 139 325 l 236 325 l 236 -312 l 139 -312 z "},"§":{"ha":754,"x_min":90,"x_max":664,"o":"m 382 -167 q 205 -131 283 -167 q 90 -47 126 -96 l 164 18 q 378 -72 239 -72 q 563 53 563 -72 q 547 111 563 85 q 497 158 531 138 q 438 190 464 178 q 366 220 411 203 q 304 244 321 238 q 226 280 251 267 q 168 317 201 293 q 121 373 135 342 q 107 446 107 404 q 136 540 107 500 q 211 596 165 579 q 107 789 107 654 q 183 935 107 882 q 372 989 260 989 q 636 879 546 989 l 561 819 q 372 892 492 892 q 211 782 211 892 q 224 738 211 758 q 254 703 238 717 q 308 671 271 689 q 368 644 344 653 q 444 615 392 635 q 528 580 499 594 q 594 539 558 565 q 647 476 631 513 q 664 388 664 439 q 576 240 664 281 q 664 57 664 176 q 589 -108 664 -50 q 382 -167 514 -167 m 486 283 q 563 383 563 315 q 547 438 563 414 q 490 483 531 461 q 422 515 450 504 q 328 549 393 526 q 242 513 274 540 q 211 446 211 486 q 226 401 211 421 q 273 364 240 381 q 332 337 306 347 q 410 310 358 326 q 486 283 461 293 z "},"¨":{"ha":465,"x_min":54,"x_max":415,"o":"m 166 860 q 157 851 166 860 q 119 842 147 842 q 73 861 92 842 q 54 907 54 881 q 73 953 54 935 q 119 972 92 972 q 166 953 147 972 q 185 907 185 935 q 166 860 185 879 m 397 860 q 387 851 397 860 q 350 842 378 842 q 303 861 322 842 q 285 907 285 881 q 303 953 285 935 q 350 972 322 972 q 397 953 378 972 q 415 907 415 935 q 397 860 415 879 z "},"©":{"ha":1214,"x_min":104,"x_max":1110,"o":"m 965 128 q 893 56 965 128 q 607 -17 821 -17 q 249 128 393 -17 q 104 486 104 272 q 249 844 104 700 q 607 989 393 989 q 965 844 821 989 q 1110 486 1110 700 q 965 128 1110 272 m 304 181 q 365 119 304 181 q 607 58 425 58 q 908 181 789 58 q 1028 486 1028 303 q 908 791 1028 669 q 607 913 789 913 q 304 790 425 913 q 183 486 183 668 q 304 181 183 303 m 615 192 q 429 270 496 192 q 363 493 363 349 q 432 715 363 633 q 626 796 501 796 q 832 643 776 796 l 744 607 q 614 706 711 706 q 492 652 526 706 q 457 493 457 599 q 492 331 457 382 q 618 279 528 279 q 757 392 735 279 l 836 360 q 755 235 814 279 q 615 192 696 192 z "},"ª":{"ha":642,"x_min":69,"x_max":544,"o":"m 450 393 l 450 435 q 372 396 419 413 q 283 379 325 379 q 128 431 186 379 q 69 578 69 482 q 140 721 69 669 q 300 772 210 772 q 450 740 376 772 l 450 760 q 418 872 450 840 q 310 903 386 903 q 149 853 213 903 l 124 935 q 324 989 194 989 q 401 982 368 989 q 470 955 435 975 q 525 889 506 935 q 544 774 544 843 l 544 393 l 450 393 m 294 461 q 378 481 333 461 q 450 525 422 500 l 450 653 q 310 689 382 689 q 210 661 251 689 q 169 578 169 633 q 203 492 169 524 q 294 461 238 461 z "},"«":{"ha":703,"x_min":63,"x_max":661,"o":"m 274 0 l 63 356 l 274 710 l 382 710 l 171 356 l 382 0 l 274 0 m 550 0 l 339 356 l 550 710 l 661 710 l 450 356 l 661 0 l 550 0 z "},"¬":{"ha":917,"x_min":132,"x_max":785,"o":"m 685 244 l 685 550 l 132 550 l 132 643 l 785 643 l 785 244 l 685 244 z "},"­":{"ha":560,"x_min":125,"x_max":435,"o":"m 125 367 l 125 461 l 435 461 l 435 367 l 125 367 z "},"®":{"ha":1214,"x_min":104,"x_max":1110,"o":"m 965 128 q 893 56 965 128 q 607 -17 821 -17 q 249 128 393 -17 q 104 486 104 272 q 249 844 104 700 q 607 989 393 989 q 965 844 821 989 q 1110 486 1110 700 q 965 128 1110 272 m 304 181 q 365 119 304 181 q 607 58 425 58 q 908 181 789 58 q 1028 486 1028 303 q 908 791 1028 669 q 607 913 789 913 q 304 790 425 913 q 183 486 183 668 q 304 181 183 303 m 396 190 l 396 778 l 683 778 q 803 725 763 778 q 844 608 844 672 q 805 492 844 544 q 699 431 765 440 l 840 190 l 740 190 l 608 429 l 486 429 l 486 190 l 396 190 m 486 507 l 686 507 q 738 535 718 507 q 757 606 757 564 q 738 667 757 639 q 686 694 719 694 l 486 694 l 486 507 z "},"¯":{"ha":465,"x_min":3,"x_max":461,"o":"m 3 846 l 3 931 l 461 931 l 461 846 l 3 846 z "},"°":{"ha":581,"x_min":56,"x_max":525,"o":"m 292 625 q 124 692 192 625 q 56 857 56 758 q 124 1022 56 956 q 292 1088 192 1088 q 458 1022 390 1088 q 525 857 525 956 q 458 692 525 758 q 292 625 390 625 m 197 760 q 217 740 197 760 q 292 721 236 721 q 384 760 347 721 q 421 857 421 799 q 385 956 421 918 q 292 994 349 994 q 197 956 236 994 q 158 857 158 917 q 197 760 158 799 z "},"±":{"ha":917,"x_min":132,"x_max":785,"o":"m 507 518 l 507 285 l 407 285 l 407 518 l 132 518 l 132 611 l 407 611 l 407 844 l 507 844 l 507 611 l 785 611 l 785 518 l 507 518 m 132 0 l 132 93 l 785 93 l 785 0 l 132 0 z "},"²":{"ha":514,"x_min":56,"x_max":440,"o":"m 56 617 q 67 697 56 660 q 91 756 78 733 q 138 809 104 779 q 190 853 171 839 q 260 900 210 867 q 331 965 308 932 q 354 1047 354 997 q 326 1112 354 1082 q 244 1142 299 1142 q 128 1044 149 1142 l 57 1074 q 124 1174 72 1136 q 256 1213 175 1213 q 388 1166 336 1213 q 440 1040 440 1119 q 403 920 440 968 q 278 819 365 872 q 190 756 221 785 q 146 690 160 726 l 439 690 l 439 617 l 56 617 z "},"³":{"ha":510,"x_min":47,"x_max":457,"o":"m 258 603 q 47 746 106 603 l 124 778 q 258 672 168 672 q 339 700 310 672 q 368 774 368 728 q 341 848 368 815 q 271 881 314 881 l 224 881 l 224 950 l 254 950 q 322 978 300 950 q 344 1047 344 1006 q 320 1115 344 1086 q 250 1143 296 1143 q 181 1118 213 1143 q 132 1054 150 1093 l 58 1079 q 135 1175 82 1138 q 256 1213 189 1213 q 384 1170 335 1213 q 433 1056 433 1128 q 412 981 433 1017 q 354 928 390 944 q 429 875 401 913 q 457 785 457 838 q 402 651 457 700 q 258 603 347 603 z "},"´":{"ha":465,"x_min":94,"x_max":440,"o":"m 94 800 l 292 1017 l 440 1017 l 193 800 l 94 800 z "},"µ":{"ha":785,"x_min":125,"x_max":660,"o":"m 563 0 l 563 71 q 368 -17 476 -17 q 283 1 317 -17 q 222 68 250 19 l 222 -231 l 125 -278 l 125 710 l 222 710 l 222 276 q 262 113 222 154 q 388 71 301 71 q 563 274 563 71 l 563 710 l 660 710 l 660 0 l 563 0 z "},"¶":{"ha":879,"x_min":49,"x_max":747,"o":"m 408 -278 l 408 386 q 238 413 311 386 q 126 484 165 439 q 67 578 86 529 q 49 682 49 628 q 65 789 49 739 q 117 881 82 839 q 216 948 153 924 q 365 972 279 972 l 747 972 l 747 -142 l 649 -186 l 649 875 l 507 875 l 507 -233 l 408 -278 z "},"·":{"ha":314,"x_min":69,"x_max":244,"o":"m 219 424 q 206 410 219 424 q 157 397 193 397 q 95 424 121 397 q 69 485 69 450 q 95 546 69 519 q 157 572 121 572 q 219 546 193 572 q 244 485 244 519 q 219 424 244 450 z "},"¸":{"ha":465,"x_min":118,"x_max":397,"o":"m 240 -325 q 118 -286 164 -325 l 182 -244 q 232 -258 193 -258 q 283 -237 261 -258 q 306 -187 306 -217 q 279 -141 306 -161 q 221 -121 253 -121 q 171 -128 186 -121 l 154 -107 l 249 14 l 306 14 l 251 -76 q 362 -110 326 -76 q 397 -189 397 -143 q 353 -287 397 -249 q 240 -325 308 -325 z "},"¹":{"ha":278,"x_min":35,"x_max":183,"o":"m 100 617 l 100 1067 l 35 1067 l 35 1126 q 126 1203 103 1126 l 183 1203 l 183 617 l 100 617 z "},"º":{"ha":651,"x_min":63,"x_max":589,"o":"m 325 378 q 133 458 204 378 q 63 683 63 539 q 133 908 63 826 q 325 989 204 989 q 518 908 447 989 q 589 683 589 826 q 518 458 589 539 q 325 378 447 378 m 325 468 q 492 683 492 468 q 325 899 492 899 q 204 842 249 899 q 160 683 160 786 q 204 524 160 581 q 325 468 249 468 z "},"»":{"ha":703,"x_min":42,"x_max":640,"o":"m 42 0 l 253 356 l 42 710 l 150 710 l 361 356 l 150 0 l 42 0 m 318 0 l 529 356 l 318 710 l 429 710 l 640 356 l 429 0 l 318 0 z "},"¼":{"ha":936,"x_min":19,"x_max":882,"o":"m 19 -17 l 683 989 l 779 989 l 115 -17 l 19 -17 m 114 393 l 114 843 l 49 843 l 49 903 q 140 979 117 903 l 199 979 l 199 393 l 114 393 m 725 0 l 725 150 l 433 150 l 433 192 l 744 588 l 810 588 l 810 226 l 882 226 l 882 150 l 810 150 l 810 0 l 725 0 m 725 226 l 725 465 l 546 226 l 725 226 z "},"½":{"ha":1004,"x_min":19,"x_max":931,"o":"m 19 -17 l 683 989 l 779 989 l 115 -17 l 19 -17 m 114 393 l 114 843 l 49 843 l 49 903 q 140 979 117 903 l 199 979 l 199 393 l 114 393 m 546 0 q 557 80 546 43 q 581 140 568 117 q 628 192 594 163 q 681 236 661 222 q 750 283 700 250 q 822 348 799 315 q 844 431 844 381 q 817 496 844 465 q 735 526 789 526 q 618 428 639 526 l 547 457 q 614 558 563 519 q 746 596 665 596 q 878 549 826 596 q 931 424 931 503 q 893 303 931 351 q 768 203 856 256 q 680 140 710 167 q 636 76 650 113 l 929 76 l 929 0 l 546 0 z "},"¾":{"ha":1136,"x_min":47,"x_max":1081,"o":"m 258 376 q 47 519 106 376 l 124 551 q 258 446 168 446 q 339 474 310 446 q 368 549 368 503 q 341 624 368 592 q 271 657 314 657 l 224 657 l 224 726 l 254 726 q 322 754 300 726 q 344 824 344 782 q 320 891 344 863 q 250 919 296 919 q 181 894 213 919 q 132 831 150 869 l 58 856 q 135 951 82 914 q 256 989 189 989 q 384 947 335 989 q 433 832 433 904 q 412 757 433 793 q 354 704 390 721 q 428 651 400 689 q 457 560 457 614 q 402 426 457 475 q 258 376 347 376 m 218 -17 l 882 989 l 978 989 l 314 -17 l 218 -17 m 924 0 l 924 150 l 632 150 l 632 192 l 943 588 l 1008 588 l 1008 226 l 1081 226 l 1081 150 l 1008 150 l 1008 0 l 924 0 m 924 226 l 924 465 l 744 226 l 924 226 z "},"¿":{"ha":731,"x_min":69,"x_max":682,"o":"m 383 553 q 322 578 346 553 q 297 638 297 603 q 322 699 297 672 q 383 726 347 726 q 447 699 419 726 q 475 638 475 671 q 447 578 475 603 q 383 553 419 553 m 360 -278 q 146 -204 222 -278 q 69 -12 69 -131 q 97 98 69 50 q 162 179 124 146 q 238 247 200 213 q 303 331 276 281 q 331 444 331 381 l 331 475 l 429 475 l 429 444 q 402 314 429 369 q 337 225 375 258 q 260 162 299 192 q 195 88 222 132 q 168 -12 168 44 q 219 -141 168 -92 q 360 -190 269 -190 q 523 -131 464 -190 q 582 31 582 -72 l 682 31 q 592 -193 682 -108 q 360 -278 503 -278 z "},"À":{"ha":919,"x_min":83,"x_max":836,"o":"m 501 1063 l 254 1279 l 403 1279 l 600 1063 l 501 1063 m 738 0 l 649 251 l 269 251 l 185 0 l 83 0 l 421 972 l 496 972 l 836 0 l 738 0 m 619 338 l 486 726 q 458 814 464 789 l 447 778 q 432 726 438 740 l 299 338 l 619 338 z "},"Á":{"ha":919,"x_min":83,"x_max":836,"o":"m 347 1063 l 544 1279 l 693 1279 l 446 1063 l 347 1063 m 738 0 l 649 251 l 269 251 l 185 0 l 83 0 l 421 972 l 496 972 l 836 0 l 738 0 m 619 338 l 486 726 q 458 814 464 789 l 447 778 q 432 726 438 740 l 299 338 l 619 338 z "},"Â":{"ha":919,"x_min":83,"x_max":836,"o":"m 621 1063 l 460 1203 l 299 1063 l 208 1063 l 418 1279 l 501 1279 l 711 1063 l 621 1063 m 738 0 l 649 251 l 269 251 l 185 0 l 83 0 l 421 972 l 496 972 l 836 0 l 738 0 m 619 338 l 486 726 q 458 814 464 789 l 447 778 q 432 726 438 740 l 299 338 l 619 338 z "},"Ã":{"ha":919,"x_min":83,"x_max":836,"o":"m 568 1099 q 442 1133 515 1099 q 339 1168 369 1168 q 294 1151 313 1168 q 274 1104 275 1135 l 219 1104 q 349 1257 219 1257 q 474 1222 401 1257 q 578 1186 547 1186 q 623 1203 604 1186 q 643 1251 642 1221 l 696 1251 q 568 1099 696 1099 m 738 0 l 649 251 l 269 251 l 185 0 l 83 0 l 421 972 l 496 972 l 836 0 l 738 0 m 619 338 l 486 726 q 458 814 464 789 l 447 778 q 432 726 438 740 l 299 338 l 619 338 z "},"Ä":{"ha":919,"x_min":83,"x_max":836,"o":"m 391 1123 q 382 1114 391 1123 q 344 1104 372 1104 q 298 1123 317 1104 q 279 1169 279 1142 q 298 1216 279 1197 q 344 1235 317 1235 q 391 1216 372 1235 q 410 1169 410 1197 q 391 1123 410 1142 m 622 1123 q 612 1114 622 1123 q 575 1104 603 1104 q 528 1123 547 1104 q 510 1169 510 1142 q 528 1216 510 1197 q 575 1235 547 1235 q 622 1216 603 1235 q 640 1169 640 1197 q 622 1123 640 1142 m 738 0 l 649 251 l 269 251 l 185 0 l 83 0 l 421 972 l 496 972 l 836 0 l 738 0 m 619 338 l 486 726 q 458 814 464 789 l 447 778 q 432 726 438 740 l 299 338 l 619 338 z "},"Å":{"ha":919,"x_min":83,"x_max":836,"o":"m 83 0 l 394 896 q 329 953 354 915 q 304 1039 304 992 q 351 1148 304 1103 q 463 1193 397 1193 q 575 1148 528 1193 q 622 1039 622 1103 q 594 952 622 992 q 524 893 567 913 l 836 0 l 738 0 l 649 251 l 269 251 l 185 0 l 83 0 m 463 954 q 518 978 496 954 q 540 1039 540 1003 q 518 1097 540 1074 q 463 1121 496 1121 q 408 1097 431 1121 q 386 1039 386 1074 q 408 979 386 1004 q 463 954 431 954 m 299 338 l 619 338 l 486 726 q 458 814 464 789 l 447 778 q 432 726 438 740 l 299 338 z "},"Æ":{"ha":1193,"x_min":-22,"x_max":1096,"o":"m -22 0 l 543 972 l 1065 972 l 1065 879 l 688 879 l 688 549 l 944 549 l 944 457 l 688 457 l 688 93 l 1096 93 l 1096 0 l 590 0 l 590 251 l 231 251 l 88 0 l -22 0 m 279 338 l 590 338 l 590 892 q 547 813 582 875 l 279 338 z "},"Ç":{"ha":894,"x_min":97,"x_max":811,"o":"m 478 -325 q 356 -286 401 -325 l 419 -244 q 469 -258 431 -258 q 521 -237 499 -258 q 543 -187 543 -217 q 517 -141 543 -161 q 458 -121 490 -121 q 408 -128 424 -121 l 392 -107 l 464 -15 q 297 36 369 -8 q 181 152 224 81 q 118 308 139 224 q 97 486 97 392 q 138 735 97 625 q 272 917 179 846 q 500 989 365 989 q 686 947 619 989 q 797 832 753 904 l 711 782 q 624 871 672 839 q 500 903 576 903 q 360 865 421 903 q 265 766 299 828 q 215 633 232 704 q 199 486 199 563 q 228 283 199 374 q 328 131 258 192 q 500 71 399 71 q 725 194 650 71 l 811 161 q 703 40 775 89 q 525 -15 632 -10 l 489 -76 q 599 -110 564 -76 q 635 -189 635 -143 q 590 -287 635 -249 q 478 -325 546 -325 z "},"È":{"ha":828,"x_min":146,"x_max":731,"o":"m 413 1063 l 165 1279 l 314 1279 l 511 1063 l 413 1063 m 146 0 l 146 972 l 700 972 l 700 879 l 243 879 l 243 549 l 551 549 l 551 457 l 243 457 l 243 93 l 731 93 l 731 0 l 146 0 z "},"É":{"ha":828,"x_min":146,"x_max":731,"o":"m 281 1063 l 478 1279 l 626 1279 l 379 1063 l 281 1063 m 146 0 l 146 972 l 700 972 l 700 879 l 243 879 l 243 549 l 551 549 l 551 457 l 243 457 l 243 93 l 731 93 l 731 0 l 146 0 z "},"Ê":{"ha":828,"x_min":146,"x_max":731,"o":"m 585 1063 l 424 1203 l 263 1063 l 172 1063 l 382 1279 l 465 1279 l 675 1063 l 585 1063 m 146 0 l 146 972 l 700 972 l 700 879 l 243 879 l 243 549 l 551 549 l 551 457 l 243 457 l 243 93 l 731 93 l 731 0 l 146 0 z "},"Ë":{"ha":828,"x_min":146,"x_max":731,"o":"m 352 1123 q 343 1114 352 1123 q 306 1104 333 1104 q 259 1123 278 1104 q 240 1169 240 1142 q 259 1216 240 1197 q 306 1235 278 1235 q 352 1216 333 1235 q 371 1169 371 1197 q 352 1123 371 1142 m 583 1123 q 573 1114 583 1123 q 536 1104 564 1104 q 490 1123 508 1104 q 471 1169 471 1142 q 490 1216 471 1197 q 536 1235 508 1235 q 583 1216 564 1235 q 601 1169 601 1197 q 583 1123 601 1142 m 146 0 l 146 972 l 700 972 l 700 879 l 243 879 l 243 549 l 551 549 l 551 457 l 243 457 l 243 93 l 731 93 l 731 0 l 146 0 z "},"Ì":{"ha":389,"x_min":-32,"x_max":314,"o":"m 215 1063 l -32 1279 l 117 1279 l 314 1063 l 215 1063 m 146 0 l 146 972 l 243 972 l 243 0 l 146 0 z "},"Í":{"ha":389,"x_min":54,"x_max":400,"o":"m 54 1063 l 251 1279 l 400 1279 l 153 1063 l 54 1063 m 146 0 l 146 972 l 243 972 l 243 0 l 146 0 z "},"Î":{"ha":389,"x_min":-57,"x_max":446,"o":"m 356 1063 l 194 1203 l 33 1063 l -57 1063 l 153 1279 l 236 1279 l 446 1063 l 356 1063 m 146 0 l 146 972 l 243 972 l 243 0 l 146 0 z "},"Ï":{"ha":389,"x_min":14,"x_max":375,"o":"m 79 1104 q 33 1123 53 1104 q 14 1169 14 1142 q 33 1216 14 1197 q 79 1235 51 1235 q 126 1216 107 1235 q 144 1169 144 1197 q 126 1123 144 1142 q 79 1104 107 1104 m 310 1104 q 264 1123 283 1104 q 244 1169 244 1142 q 263 1216 244 1197 q 310 1235 282 1235 q 356 1216 338 1235 q 375 1169 375 1197 q 356 1123 375 1142 q 310 1104 338 1104 m 146 0 l 146 972 l 243 972 l 243 0 l 146 0 z "},"Ð":{"ha":942,"x_min":49,"x_max":844,"o":"m 146 442 l 49 442 l 49 528 l 146 528 l 146 972 l 404 972 q 611 931 522 972 q 749 818 700 889 q 821 664 797 747 q 844 486 844 581 q 832 349 844 415 q 788 219 819 283 q 707 106 756 154 q 579 29 658 58 q 399 0 500 0 l 146 0 l 146 442 m 406 88 q 567 122 499 88 q 673 217 636 157 q 726 343 710 276 q 743 486 743 410 q 663 769 743 653 q 421 885 582 885 l 243 885 l 243 528 l 458 528 l 458 442 l 243 442 l 243 88 l 406 88 z "},"Ñ":{"ha":979,"x_min":146,"x_max":833,"o":"m 599 1099 q 473 1133 546 1099 q 369 1168 400 1168 q 324 1151 343 1168 q 304 1104 306 1135 l 250 1104 q 379 1257 250 1257 q 505 1222 432 1257 q 608 1186 578 1186 q 653 1203 635 1186 q 674 1251 672 1221 l 726 1251 q 599 1099 726 1099 m 833 0 l 735 0 l 282 728 q 243 793 247 786 l 243 728 l 243 0 l 146 0 l 146 972 l 244 972 l 696 236 q 736 168 718 200 l 736 236 l 736 972 l 833 972 l 833 0 z "},"Ò":{"ha":1000,"x_min":97,"x_max":903,"o":"m 539 1064 l 292 1281 l 440 1281 l 638 1064 l 539 1064 m 689 27 q 649 5 689 27 q 500 -17 608 -17 q 311 27 392 -17 q 185 145 231 71 q 119 305 140 219 q 97 486 97 390 q 119 667 97 582 q 185 827 140 753 q 311 945 231 901 q 500 989 392 989 q 689 945 608 989 q 815 827 769 901 q 881 667 860 753 q 903 486 903 582 q 881 305 903 390 q 815 145 860 219 q 689 27 769 71 m 500 71 q 641 108 581 71 q 735 206 701 144 q 785 339 769 268 q 801 486 801 410 q 774 688 801 599 q 677 840 747 778 q 500 901 607 901 q 359 865 419 901 q 265 766 299 828 q 215 633 231 704 q 199 486 199 563 q 226 284 199 374 q 323 133 253 194 q 500 71 393 71 z "},"Ó":{"ha":1000,"x_min":97,"x_max":903,"o":"m 360 1063 l 557 1279 l 706 1279 l 458 1063 l 360 1063 m 689 27 q 649 5 689 27 q 500 -17 608 -17 q 311 27 392 -17 q 185 145 231 71 q 119 305 140 219 q 97 486 97 390 q 119 667 97 582 q 185 827 140 753 q 311 945 231 901 q 500 989 392 989 q 689 945 608 989 q 815 827 769 901 q 881 667 860 753 q 903 486 903 582 q 881 305 903 390 q 815 145 860 219 q 689 27 769 71 m 500 71 q 641 108 581 71 q 735 206 701 144 q 785 339 769 268 q 801 486 801 410 q 774 688 801 599 q 677 840 747 778 q 500 901 607 901 q 359 865 419 901 q 265 766 299 828 q 215 633 231 704 q 199 486 199 563 q 226 284 199 374 q 323 133 253 194 q 500 71 393 71 z "},"Ô":{"ha":1000,"x_min":97,"x_max":903,"o":"m 661 1063 l 500 1203 l 339 1063 l 249 1063 l 458 1279 l 542 1279 l 751 1063 l 661 1063 m 689 27 q 649 5 689 27 q 500 -17 608 -17 q 311 27 392 -17 q 185 145 231 71 q 119 305 140 219 q 97 486 97 390 q 119 667 97 582 q 185 827 140 753 q 311 945 231 901 q 500 989 392 989 q 689 945 608 989 q 815 827 769 901 q 881 667 860 753 q 903 486 903 582 q 881 305 903 390 q 815 145 860 219 q 689 27 769 71 m 500 71 q 641 108 581 71 q 735 206 701 144 q 785 339 769 268 q 801 486 801 410 q 774 688 801 599 q 677 840 747 778 q 500 901 607 901 q 359 865 419 901 q 265 766 299 828 q 215 633 231 704 q 199 486 199 563 q 226 284 199 374 q 323 133 253 194 q 500 71 393 71 z "},"Õ":{"ha":1000,"x_min":97,"x_max":903,"o":"m 608 1099 q 483 1133 556 1099 q 379 1168 410 1168 q 334 1151 353 1168 q 314 1104 315 1135 l 260 1104 q 389 1257 260 1257 q 515 1222 442 1257 q 618 1186 588 1186 q 663 1203 644 1186 q 683 1251 682 1221 l 736 1251 q 608 1099 736 1099 m 689 27 q 649 5 689 27 q 500 -17 608 -17 q 311 27 392 -17 q 185 145 231 71 q 119 305 140 219 q 97 486 97 390 q 119 667 97 582 q 185 827 140 753 q 311 945 231 901 q 500 989 392 989 q 689 945 608 989 q 815 827 769 901 q 881 667 860 753 q 903 486 903 582 q 881 305 903 390 q 815 145 860 219 q 689 27 769 71 m 500 71 q 641 108 581 71 q 735 206 701 144 q 785 339 769 268 q 801 486 801 410 q 774 688 801 599 q 677 840 747 778 q 500 901 607 901 q 359 865 419 901 q 265 766 299 828 q 215 633 231 704 q 199 486 199 563 q 226 284 199 374 q 323 133 253 194 q 500 71 393 71 z "},"Ö":{"ha":1000,"x_min":97,"x_max":903,"o":"m 385 1104 q 339 1123 358 1104 q 319 1169 319 1142 q 338 1216 319 1197 q 385 1235 357 1235 q 431 1216 413 1235 q 450 1169 450 1197 q 431 1123 450 1142 q 385 1104 413 1104 m 615 1104 q 569 1123 589 1104 q 550 1169 550 1142 q 569 1216 550 1197 q 615 1235 588 1235 q 662 1216 643 1235 q 681 1169 681 1197 q 662 1123 681 1142 q 615 1104 643 1104 m 689 27 q 649 5 689 27 q 500 -17 608 -17 q 311 27 392 -17 q 185 145 231 71 q 119 305 140 219 q 97 486 97 390 q 119 667 97 582 q 185 827 140 753 q 311 945 231 901 q 500 989 392 989 q 689 945 608 989 q 815 827 769 901 q 881 667 860 753 q 903 486 903 582 q 881 305 903 390 q 815 145 860 219 q 689 27 769 71 m 500 71 q 641 108 581 71 q 735 206 701 144 q 785 339 769 268 q 801 486 801 410 q 774 688 801 599 q 677 840 747 778 q 500 901 607 901 q 359 865 419 901 q 265 766 299 828 q 215 633 231 704 q 199 486 199 563 q 226 284 199 374 q 323 133 253 194 q 500 71 393 71 z "},"×":{"ha":917,"x_min":150,"x_max":764,"o":"m 460 407 l 222 168 l 150 238 l 392 478 l 151 714 l 219 781 l 457 543 l 694 782 l 764 711 l 525 475 l 763 235 l 697 169 l 460 407 z "},"Ø":{"ha":1000,"x_min":97,"x_max":903,"o":"m 114 -17 l 204 119 q 97 486 97 256 q 119 667 97 582 q 185 827 140 753 q 311 945 231 901 q 500 989 392 989 q 733 914 638 989 l 783 989 l 886 989 l 796 853 q 903 486 903 717 q 881 305 903 390 q 815 145 860 219 q 689 27 769 71 q 500 -17 608 -17 q 264 58 361 -17 l 214 -17 l 114 -17 m 261 206 l 682 836 q 500 901 608 901 q 359 865 419 901 q 265 766 299 828 q 215 633 231 704 q 199 486 199 563 q 261 206 199 313 m 500 71 q 641 108 581 71 q 735 206 701 144 q 785 339 769 268 q 801 486 801 410 q 738 767 801 660 l 317 136 q 500 71 389 71 z "},"Ù":{"ha":944,"x_min":139,"x_max":806,"o":"m 493 1063 l 246 1279 l 394 1279 l 592 1063 l 493 1063 m 806 361 q 472 -17 806 -17 q 139 361 139 -17 l 139 972 l 236 972 l 236 361 q 472 71 236 71 q 708 361 708 71 l 708 972 l 806 972 l 806 361 z "},"Ú":{"ha":944,"x_min":139,"x_max":806,"o":"m 346 1063 l 543 1279 l 692 1279 l 444 1063 l 346 1063 m 806 361 q 472 -17 806 -17 q 139 361 139 -17 l 139 972 l 236 972 l 236 361 q 472 71 236 71 q 708 361 708 71 l 708 972 l 806 972 l 806 361 z "},"Û":{"ha":944,"x_min":139,"x_max":806,"o":"m 633 1063 l 472 1203 l 311 1063 l 221 1063 l 431 1279 l 514 1279 l 724 1063 l 633 1063 m 806 361 q 472 -17 806 -17 q 139 361 139 -17 l 139 972 l 236 972 l 236 361 q 472 71 236 71 q 708 361 708 71 l 708 972 l 806 972 l 806 361 z "},"Ü":{"ha":944,"x_min":139,"x_max":806,"o":"m 357 1104 q 311 1123 331 1104 q 292 1169 292 1142 q 310 1216 292 1197 q 357 1235 329 1235 q 403 1216 385 1235 q 422 1169 422 1197 q 403 1123 422 1142 q 357 1104 385 1104 m 588 1104 q 542 1123 561 1104 q 522 1169 522 1142 q 541 1216 522 1197 q 588 1235 560 1235 q 634 1216 615 1235 q 653 1169 653 1197 q 634 1123 653 1142 q 588 1104 615 1104 m 806 361 q 472 -17 806 -17 q 139 361 139 -17 l 139 972 l 236 972 l 236 361 q 472 71 236 71 q 708 361 708 71 l 708 972 l 806 972 l 806 361 z "},"Ý":{"ha":856,"x_min":63,"x_max":793,"o":"m 300 1063 l 497 1279 l 646 1279 l 399 1063 l 300 1063 m 381 0 l 381 382 l 63 972 l 169 972 l 428 472 l 693 972 l 793 972 l 478 386 l 478 0 l 381 0 z "},"Þ":{"ha":864,"x_min":146,"x_max":808,"o":"m 146 0 l 146 972 l 243 972 l 243 779 l 501 779 q 735 697 663 779 q 808 493 808 615 q 792 394 808 442 q 740 303 775 346 q 644 234 706 260 q 501 208 582 208 l 243 208 l 243 0 l 146 0 m 510 296 q 665 354 615 296 q 715 493 715 413 q 667 631 715 569 q 510 692 619 692 l 243 692 l 243 296 l 510 296 z "},"ß":{"ha":786,"x_min":111,"x_max":710,"o":"m 111 -282 l 111 664 q 192 909 111 829 q 385 989 274 989 q 583 919 507 989 q 660 735 660 849 q 626 610 660 665 q 528 535 593 556 q 663 440 615 504 q 710 290 710 375 q 628 68 710 153 q 418 -17 546 -17 q 308 6 356 -17 l 354 81 q 421 71 381 71 q 551 126 494 71 q 608 285 608 181 q 553 426 608 369 q 382 483 499 483 l 376 483 l 376 571 l 382 571 q 558 731 558 571 q 515 856 558 811 q 386 901 471 901 q 258 844 308 901 q 208 668 208 786 l 208 -232 l 111 -282 z "},"à":{"ha":721,"x_min":83,"x_max":624,"o":"m 401 800 l 154 1017 l 303 1017 l 500 800 l 401 800 m 533 0 l 533 69 q 325 -17 438 -17 q 149 45 214 -17 q 83 224 83 107 q 158 399 83 339 q 342 458 232 458 q 533 408 440 458 l 533 468 q 378 642 533 642 q 167 565 278 642 l 139 649 q 388 726 261 726 q 468 716 431 726 q 542 680 506 706 q 601 603 579 654 q 624 481 624 553 l 624 0 l 533 0 m 335 68 q 533 178 444 68 l 533 315 q 351 374 446 374 q 224 335 275 374 q 174 224 174 297 q 216 110 174 153 q 335 68 258 68 z "},"á":{"ha":721,"x_min":83,"x_max":624,"o":"m 249 800 l 446 1017 l 594 1017 l 347 800 l 249 800 m 533 0 l 533 69 q 325 -17 438 -17 q 149 45 214 -17 q 83 224 83 107 q 158 399 83 339 q 342 458 232 458 q 533 408 440 458 l 533 468 q 378 642 533 642 q 167 565 278 642 l 139 649 q 388 726 261 726 q 468 716 431 726 q 542 680 506 706 q 601 603 579 654 q 624 481 624 553 l 624 0 l 533 0 m 335 68 q 533 178 444 68 l 533 315 q 351 374 446 374 q 224 335 275 374 q 174 224 174 297 q 216 110 174 153 q 335 68 258 68 z "},"â":{"ha":721,"x_min":83,"x_max":640,"o":"m 550 800 l 389 940 l 228 800 l 138 800 l 347 1017 l 431 1017 l 640 800 l 550 800 m 533 0 l 533 69 q 325 -17 438 -17 q 149 45 214 -17 q 83 224 83 107 q 158 399 83 339 q 342 458 232 458 q 533 408 440 458 l 533 468 q 378 642 533 642 q 167 565 278 642 l 139 649 q 388 726 261 726 q 468 716 431 726 q 542 680 506 706 q 601 603 579 654 q 624 481 624 553 l 624 0 l 533 0 m 335 68 q 533 178 444 68 l 533 315 q 351 374 446 374 q 224 335 275 374 q 174 224 174 297 q 216 110 174 153 q 335 68 258 68 z "},"ã":{"ha":721,"x_min":83,"x_max":625,"o":"m 497 836 q 372 871 444 836 q 268 906 299 906 q 223 889 242 906 q 203 842 204 872 l 149 842 q 278 994 149 994 q 403 959 331 994 q 507 924 476 924 q 552 941 533 924 q 572 989 571 958 l 625 989 q 497 836 625 836 m 533 0 l 533 69 q 325 -17 438 -17 q 149 45 214 -17 q 83 224 83 107 q 158 399 83 339 q 342 458 232 458 q 533 408 440 458 l 533 468 q 378 642 533 642 q 167 565 278 642 l 139 649 q 388 726 261 726 q 468 716 431 726 q 542 680 506 706 q 601 603 579 654 q 624 481 624 553 l 624 0 l 533 0 m 335 68 q 533 178 444 68 l 533 315 q 351 374 446 374 q 224 335 275 374 q 174 224 174 297 q 216 110 174 153 q 335 68 258 68 z "},"ä":{"ha":721,"x_min":83,"x_max":624,"o":"m 274 842 q 228 861 247 842 q 208 907 208 881 q 227 953 208 935 q 274 972 246 972 q 320 953 301 972 q 339 907 339 935 q 320 860 339 879 q 274 842 301 842 m 504 842 q 458 861 478 842 q 439 907 439 881 q 458 953 439 935 q 504 972 476 972 q 551 953 532 972 q 569 907 569 935 q 551 860 569 879 q 504 842 532 842 m 533 0 l 533 69 q 325 -17 438 -17 q 149 45 214 -17 q 83 224 83 107 q 158 399 83 339 q 342 458 232 458 q 533 408 440 458 l 533 468 q 378 642 533 642 q 167 565 278 642 l 139 649 q 388 726 261 726 q 468 716 431 726 q 542 680 506 706 q 601 603 579 654 q 624 481 624 553 l 624 0 l 533 0 m 335 68 q 533 178 444 68 l 533 315 q 351 374 446 374 q 224 335 275 374 q 174 224 174 297 q 216 110 174 153 q 335 68 258 68 z "},"å":{"ha":721,"x_min":83,"x_max":624,"o":"m 501 846 q 478 822 501 846 q 389 799 454 799 q 276 846 324 799 q 229 957 229 893 q 276 1066 229 1021 q 389 1111 324 1111 q 501 1066 454 1111 q 549 957 549 1021 q 501 846 549 893 m 389 871 q 444 895 422 871 q 467 957 467 919 q 444 1017 467 994 q 389 1039 422 1039 q 334 1016 357 1039 q 311 957 311 993 q 334 895 311 919 q 389 871 357 871 m 533 0 l 533 69 q 325 -17 438 -17 q 149 45 214 -17 q 83 224 83 107 q 158 399 83 339 q 342 458 232 458 q 533 408 440 458 l 533 468 q 378 642 533 642 q 167 565 278 642 l 139 649 q 388 726 261 726 q 468 716 431 726 q 542 680 506 706 q 601 603 579 654 q 624 481 624 553 l 624 0 l 533 0 m 335 68 q 533 178 444 68 l 533 315 q 351 374 446 374 q 224 335 275 374 q 174 224 174 297 q 216 110 174 153 q 335 68 258 68 z "},"æ":{"ha":1189,"x_min":83,"x_max":1119,"o":"m 325 -17 q 149 45 214 -17 q 83 224 83 107 q 157 399 83 339 q 342 458 231 458 q 533 408 440 458 l 533 468 q 378 642 533 642 q 167 565 278 642 l 139 649 q 388 726 261 726 q 599 607 547 726 q 838 726 685 726 q 1042 637 965 726 q 1119 383 1119 547 q 1117 315 1119 346 l 633 315 q 702 137 647 200 q 842 74 757 74 q 1003 129 928 74 l 1056 64 q 838 -17 956 -17 q 688 26 753 -17 q 586 135 622 69 q 466 22 539 60 q 325 -17 393 -17 m 631 403 l 1021 403 q 1003 520 1021 471 q 957 594 986 569 q 899 628 928 618 q 839 639 869 639 q 693 579 750 639 q 631 403 636 519 m 335 68 q 460 109 400 68 q 554 208 519 150 q 533 315 538 256 q 351 374 442 374 q 224 335 275 374 q 174 224 174 297 q 216 110 174 153 q 335 68 258 68 z "},"ç":{"ha":668,"x_min":76,"x_max":606,"o":"m 353 -325 q 231 -286 276 -325 l 294 -244 q 344 -258 306 -258 q 397 -237 374 -258 q 419 -187 419 -217 q 392 -141 419 -161 q 333 -121 365 -121 q 283 -128 299 -121 l 267 -107 l 338 -15 q 147 88 217 -8 q 76 354 76 185 q 154 628 76 529 q 368 726 232 726 q 507 688 447 726 q 596 578 567 649 l 507 543 q 364 639 468 639 q 178 354 178 639 q 361 71 178 71 q 459 100 418 71 q 518 179 500 129 l 606 146 q 530 39 583 81 q 401 -14 476 -3 l 364 -76 q 473 -109 439 -76 q 507 -189 507 -142 q 463 -287 507 -249 q 353 -325 419 -325 z "},"è":{"ha":735,"x_min":76,"x_max":665,"o":"m 426 800 l 179 1017 l 328 1017 l 525 800 l 426 800 m 385 -17 q 161 92 246 -17 q 76 356 76 200 q 161 628 76 529 q 385 726 246 726 q 586 640 507 726 q 665 383 665 553 q 663 315 665 346 l 179 315 q 246 139 192 204 q 389 74 300 74 q 549 129 474 74 l 601 64 q 385 -17 504 -17 m 176 403 l 567 403 q 510 585 565 532 q 385 639 456 639 q 239 579 296 639 q 176 403 182 519 z "},"é":{"ha":735,"x_min":76,"x_max":665,"o":"m 244 800 l 442 1017 l 590 1017 l 343 800 l 244 800 m 385 -17 q 161 92 246 -17 q 76 356 76 200 q 161 628 76 529 q 385 726 246 726 q 586 640 507 726 q 665 383 665 553 q 663 315 665 346 l 179 315 q 246 139 192 204 q 389 74 300 74 q 549 129 474 74 l 601 64 q 385 -17 504 -17 m 176 403 l 567 403 q 510 585 565 532 q 385 639 456 639 q 239 579 296 639 q 176 403 182 519 z "},"ê":{"ha":735,"x_min":76,"x_max":665,"o":"m 546 800 l 385 940 l 224 800 l 133 800 l 343 1017 l 426 1017 l 636 800 l 546 800 m 385 -17 q 161 92 246 -17 q 76 356 76 200 q 161 628 76 529 q 385 726 246 726 q 586 640 507 726 q 665 383 665 553 q 663 315 665 346 l 179 315 q 246 139 192 204 q 389 74 300 74 q 549 129 474 74 l 601 64 q 385 -17 504 -17 m 176 403 l 567 403 q 510 585 565 532 q 385 639 456 639 q 239 579 296 639 q 176 403 182 519 z "},"ë":{"ha":735,"x_min":76,"x_max":665,"o":"m 316 860 q 307 851 316 860 q 269 842 297 842 q 223 861 242 842 q 204 907 204 881 q 223 953 204 935 q 269 972 242 972 q 316 953 297 972 q 335 907 335 935 q 316 860 335 879 m 547 860 q 537 851 547 860 q 500 842 528 842 q 453 861 472 842 q 435 907 435 881 q 453 953 435 935 q 500 972 472 972 q 547 953 528 972 q 565 907 565 935 q 547 860 565 879 m 385 -17 q 161 92 246 -17 q 76 356 76 200 q 161 628 76 529 q 385 726 246 726 q 586 640 507 726 q 665 383 665 553 q 663 315 665 346 l 179 315 q 246 139 192 204 q 389 74 300 74 q 549 129 474 74 l 601 64 q 385 -17 504 -17 m 176 403 l 567 403 q 510 585 565 532 q 385 639 456 639 q 239 579 296 639 q 176 403 182 519 z "},"ì":{"ha":350,"x_min":-42,"x_max":304,"o":"m 206 800 l -42 1017 l 107 1017 l 304 800 l 206 800 m 126 0 l 126 710 l 224 710 l 224 0 l 126 0 z "},"í":{"ha":350,"x_min":46,"x_max":392,"o":"m 46 800 l 243 1017 l 392 1017 l 144 800 l 46 800 m 126 0 l 126 710 l 224 710 l 224 0 l 126 0 z "},"î":{"ha":350,"x_min":-76,"x_max":426,"o":"m 336 800 l 175 940 l 14 800 l -76 800 l 133 1017 l 217 1017 l 426 800 l 336 800 m 126 0 l 126 710 l 224 710 l 224 0 l 126 0 z "},"ï":{"ha":350,"x_min":-6,"x_max":356,"o":"m 60 842 q 14 861 33 842 q -6 907 -6 881 q 13 953 -6 935 q 60 972 32 972 q 106 953 88 972 q 125 907 125 935 q 106 860 125 879 q 60 842 88 842 m 290 842 q 244 861 264 842 q 225 907 225 881 q 244 953 225 935 q 290 972 263 972 q 337 953 318 972 q 356 907 356 935 q 337 860 356 879 q 290 842 318 842 m 126 0 l 126 710 l 224 710 l 224 0 l 126 0 z "},"ð":{"ha":761,"x_min":76,"x_max":685,"o":"m 381 -17 q 160 74 243 -17 q 76 307 76 165 q 163 543 76 453 q 381 633 249 633 q 586 513 522 633 q 417 828 560 718 l 325 731 l 279 778 l 360 865 q 186 915 282 907 l 186 989 q 414 924 317 978 l 493 1010 l 542 961 l 471 886 q 685 374 685 721 q 605 86 685 189 q 381 -17 525 -17 m 381 71 q 524 138 465 71 q 583 306 583 206 q 526 476 583 407 q 381 546 468 546 q 237 478 296 546 q 178 307 178 410 q 238 139 178 207 q 381 71 297 71 z "},"ñ":{"ha":778,"x_min":125,"x_max":660,"o":"m 506 836 q 380 871 453 836 q 276 906 307 906 q 231 889 250 906 q 211 842 213 872 l 157 842 q 286 994 157 994 q 412 959 339 994 q 515 924 485 924 q 560 941 542 924 q 581 989 579 958 l 633 989 q 506 836 633 836 m 563 0 l 563 433 q 518 590 563 540 q 397 639 474 639 q 222 436 222 639 l 222 0 l 125 0 l 125 710 l 222 710 l 222 632 q 406 726 288 726 q 598 647 536 726 q 660 393 660 568 l 660 0 l 563 0 z "},"ò":{"ha":761,"x_min":76,"x_max":685,"o":"m 422 800 l 175 1017 l 324 1017 l 521 800 l 422 800 m 381 -17 q 159 81 242 -17 q 76 354 76 179 q 160 627 76 528 q 381 726 243 726 q 602 628 519 726 q 685 356 685 531 q 601 83 685 182 q 381 -17 518 -17 m 381 71 q 530 147 476 71 q 583 356 583 222 q 531 564 583 489 q 381 639 479 639 q 230 566 282 639 q 178 354 178 493 q 230 146 178 221 q 381 71 282 71 z "},"ó":{"ha":761,"x_min":76,"x_max":685,"o":"m 240 800 l 438 1017 l 586 1017 l 339 800 l 240 800 m 381 -17 q 159 81 242 -17 q 76 354 76 179 q 160 627 76 528 q 381 726 243 726 q 602 628 519 726 q 685 356 685 531 q 601 83 685 182 q 381 -17 518 -17 m 381 71 q 530 147 476 71 q 583 356 583 222 q 531 564 583 489 q 381 639 479 639 q 230 566 282 639 q 178 354 178 493 q 230 146 178 221 q 381 71 282 71 z "},"ô":{"ha":761,"x_min":76,"x_max":685,"o":"m 542 800 l 381 940 l 219 800 l 129 800 l 339 1017 l 422 1017 l 632 800 l 542 800 m 381 -17 q 159 81 242 -17 q 76 354 76 179 q 160 627 76 528 q 381 726 243 726 q 602 628 519 726 q 685 356 685 531 q 601 83 685 182 q 381 -17 518 -17 m 381 71 q 530 147 476 71 q 583 356 583 222 q 531 564 583 489 q 381 639 479 639 q 230 566 282 639 q 178 354 178 493 q 230 146 178 221 q 381 71 282 71 z "},"õ":{"ha":761,"x_min":76,"x_max":685,"o":"m 489 836 q 363 871 436 836 q 260 906 290 906 q 215 889 233 906 q 194 842 196 872 l 140 842 q 269 994 140 994 q 395 959 322 994 q 499 924 468 924 q 544 941 525 924 q 564 989 563 958 l 617 989 q 489 836 617 836 m 381 -17 q 159 81 242 -17 q 76 354 76 179 q 160 627 76 528 q 381 726 243 726 q 602 628 519 726 q 685 356 685 531 q 601 83 685 182 q 381 -17 518 -17 m 381 71 q 530 147 476 71 q 583 356 583 222 q 531 564 583 489 q 381 639 479 639 q 230 566 282 639 q 178 354 178 493 q 230 146 178 221 q 381 71 282 71 z "},"ö":{"ha":761,"x_min":76,"x_max":685,"o":"m 265 842 q 219 861 239 842 q 200 907 200 881 q 219 953 200 935 q 265 972 238 972 q 312 953 293 972 q 331 907 331 935 q 312 860 331 879 q 265 842 293 842 m 496 842 q 450 861 469 842 q 431 907 431 881 q 449 953 431 935 q 496 972 468 972 q 542 953 524 972 q 561 907 561 935 q 542 860 561 879 q 496 842 524 842 m 381 -17 q 159 81 242 -17 q 76 354 76 179 q 160 627 76 528 q 381 726 243 726 q 602 628 519 726 q 685 356 685 531 q 601 83 685 182 q 381 -17 518 -17 m 381 71 q 530 147 476 71 q 583 356 583 222 q 531 564 583 489 q 381 639 479 639 q 230 566 282 639 q 178 354 178 493 q 230 146 178 221 q 381 71 282 71 z "},"÷":{"ha":917,"x_min":132,"x_max":785,"o":"m 454 696 q 406 715 425 696 q 388 763 388 735 q 407 810 388 789 q 454 831 426 831 q 504 810 483 831 q 525 763 525 789 q 505 715 525 735 q 454 696 485 696 m 132 428 l 132 522 l 785 522 l 785 428 l 132 428 m 454 122 q 406 140 425 122 q 388 186 388 158 q 406 235 388 215 q 454 254 425 254 q 505 234 485 254 q 525 186 525 214 q 505 140 525 158 q 454 122 485 122 z "},"ø":{"ha":761,"x_min":76,"x_max":685,"o":"m 608 619 q 685 356 685 521 q 601 83 685 182 q 381 -17 518 -17 q 204 38 281 -17 l 167 -17 l 76 -17 l 151 92 q 76 354 76 190 q 160 627 76 528 q 381 726 243 726 q 554 674 482 726 l 592 726 l 683 726 l 608 619 m 178 354 q 211 178 178 247 l 501 597 q 381 639 451 639 q 230 566 282 639 q 178 354 178 493 m 381 71 q 530 147 476 71 q 583 356 583 222 q 549 533 583 465 l 258 114 q 381 71 308 71 z "},"ù":{"ha":778,"x_min":118,"x_max":653,"o":"m 421 800 l 174 1017 l 322 1017 l 519 800 l 421 800 m 556 0 l 556 68 q 478 2 519 21 q 379 -17 438 -17 q 180 61 242 -17 q 118 314 118 139 l 118 710 l 215 710 l 215 276 q 260 121 215 171 q 379 71 304 71 q 556 274 556 71 l 556 710 l 653 710 l 653 0 l 556 0 z "},"ú":{"ha":778,"x_min":118,"x_max":653,"o":"m 239 800 l 436 1017 l 585 1017 l 338 800 l 239 800 m 556 0 l 556 68 q 478 2 519 21 q 379 -17 438 -17 q 180 61 242 -17 q 118 314 118 139 l 118 710 l 215 710 l 215 276 q 260 121 215 171 q 379 71 304 71 q 556 274 556 71 l 556 710 l 653 710 l 653 0 l 556 0 z "},"û":{"ha":778,"x_min":118,"x_max":653,"o":"m 540 800 l 379 940 l 218 800 l 128 800 l 338 1017 l 421 1017 l 631 800 l 540 800 m 556 0 l 556 68 q 478 2 519 21 q 379 -17 438 -17 q 180 61 242 -17 q 118 314 118 139 l 118 710 l 215 710 l 215 276 q 260 121 215 171 q 379 71 304 71 q 556 274 556 71 l 556 710 l 653 710 l 653 0 l 556 0 z "},"ü":{"ha":778,"x_min":118,"x_max":653,"o":"m 310 860 q 301 851 310 860 q 264 842 292 842 q 217 861 236 842 q 199 907 199 881 q 217 953 199 935 q 264 972 236 972 q 310 953 292 972 q 329 907 329 935 q 310 860 329 879 m 541 860 q 532 851 541 860 q 494 842 522 842 q 448 861 467 842 q 429 907 429 881 q 448 953 429 935 q 494 972 467 972 q 541 953 522 972 q 560 907 560 935 q 541 860 560 879 m 556 0 l 556 68 q 478 2 519 21 q 379 -17 438 -17 q 180 61 242 -17 q 118 314 118 139 l 118 710 l 215 710 l 215 276 q 260 121 215 171 q 379 71 304 71 q 556 274 556 71 l 556 710 l 653 710 l 653 0 l 556 0 z "},"ý":{"ha":724,"x_min":56,"x_max":668,"o":"m 217 800 l 414 1017 l 563 1017 l 315 800 l 217 800 m 210 -269 l 315 22 l 56 710 l 154 710 l 333 206 q 346 167 338 192 q 357 133 354 142 l 382 206 l 564 710 l 668 710 l 306 -269 l 210 -269 z "},"þ":{"ha":786,"x_min":125,"x_max":710,"o":"m 417 -17 q 222 72 299 -17 l 222 -233 l 125 -282 l 125 942 l 222 989 l 222 646 q 309 706 267 685 q 417 726 351 726 q 631 626 553 726 q 710 356 710 525 q 629 83 710 182 q 417 -17 549 -17 m 406 71 q 556 145 503 71 q 608 356 608 219 q 553 562 608 485 q 406 639 499 639 q 300 610 349 639 q 222 529 251 581 l 222 181 q 406 71 307 71 z "},"ÿ":{"ha":724,"x_min":56,"x_max":668,"o":"m 288 860 q 279 851 288 860 q 242 842 269 842 q 195 861 214 842 q 176 907 176 881 q 195 953 176 935 q 242 972 214 972 q 288 953 269 972 q 307 907 307 935 q 288 860 307 879 m 519 860 q 509 851 519 860 q 472 842 500 842 q 426 861 444 842 q 407 907 407 881 q 426 953 407 935 q 472 972 444 972 q 519 953 500 972 q 538 907 538 935 q 519 860 538 879 m 210 -269 l 315 22 l 56 710 l 154 710 l 333 206 q 346 167 338 192 q 357 133 354 142 l 382 206 l 564 710 l 668 710 l 306 -269 l 210 -269 z "},"Ā":{"ha":919,"x_min":83,"x_max":836,"o":"m 228 1108 l 228 1193 l 686 1193 l 686 1108 l 228 1108 m 738 0 l 649 251 l 269 251 l 185 0 l 83 0 l 421 972 l 496 972 l 836 0 l 738 0 m 619 338 l 486 726 q 458 814 464 789 l 447 778 q 432 726 438 740 l 299 338 l 619 338 z "},"ā":{"ha":721,"x_min":83,"x_max":624,"o":"m 157 846 l 157 931 l 615 931 l 615 846 l 157 846 m 533 0 l 533 69 q 325 -17 438 -17 q 149 45 214 -17 q 83 224 83 107 q 158 399 83 339 q 342 458 232 458 q 533 408 440 458 l 533 468 q 378 642 533 642 q 167 565 278 642 l 139 649 q 388 726 261 726 q 468 716 431 726 q 542 680 506 706 q 601 603 579 654 q 624 481 624 553 l 624 0 l 533 0 m 335 68 q 533 178 444 68 l 533 315 q 351 374 446 374 q 224 335 275 374 q 174 224 174 297 q 216 110 174 153 q 335 68 258 68 z "},"Ă":{"ha":919,"x_min":83,"x_max":836,"o":"m 644 1132 q 613 1101 644 1132 q 458 1069 582 1069 q 272 1132 335 1069 q 210 1293 210 1194 l 304 1293 q 348 1192 304 1229 q 458 1156 392 1156 q 569 1192 525 1156 q 613 1293 613 1229 l 707 1293 q 644 1132 707 1194 m 738 0 l 649 251 l 269 251 l 185 0 l 83 0 l 421 972 l 496 972 l 836 0 l 738 0 m 619 338 l 486 726 q 458 814 464 789 l 447 778 q 432 726 438 740 l 299 338 l 619 338 z "},"ă":{"ha":721,"x_min":83,"x_max":636,"o":"m 574 869 q 542 838 574 869 q 388 807 511 807 q 201 869 264 807 q 139 1031 139 932 l 233 1031 q 277 930 233 967 q 388 893 321 893 q 498 930 454 893 q 542 1031 542 967 l 636 1031 q 574 869 636 932 m 533 0 l 533 69 q 325 -17 438 -17 q 149 45 214 -17 q 83 224 83 107 q 158 399 83 339 q 342 458 232 458 q 533 408 440 458 l 533 468 q 378 642 533 642 q 167 565 278 642 l 139 649 q 388 726 261 726 q 468 716 431 726 q 542 680 506 706 q 601 603 579 654 q 624 481 624 553 l 624 0 l 533 0 m 335 68 q 533 178 444 68 l 533 315 q 351 374 446 374 q 224 335 275 374 q 174 224 174 297 q 216 110 174 153 q 335 68 258 68 z "},"Ą":{"ha":919,"x_min":83,"x_max":861,"o":"m 722 -325 q 615 -290 658 -325 q 571 -189 571 -254 q 738 0 571 -57 l 649 251 l 269 251 l 185 0 l 83 0 l 421 972 l 496 972 l 836 0 q 656 -176 656 -62 q 678 -236 656 -217 q 731 -256 700 -256 q 807 -224 772 -256 l 861 -264 q 722 -325 806 -325 m 299 338 l 619 338 l 486 726 q 458 814 464 789 l 447 778 q 432 726 438 740 l 299 338 z "},"ą":{"ha":721,"x_min":83,"x_max":668,"o":"m 529 -325 q 422 -290 465 -325 q 378 -189 378 -254 q 533 0 378 -67 l 533 69 q 325 -17 438 -17 q 149 45 214 -17 q 83 224 83 107 q 158 399 83 339 q 342 458 232 458 q 533 408 440 458 l 533 468 q 378 642 533 642 q 167 565 278 642 l 139 649 q 388 726 261 726 q 468 716 431 726 q 542 680 506 706 q 601 603 579 654 q 624 481 624 553 l 624 0 q 463 -176 463 -68 q 485 -236 463 -217 q 538 -256 507 -256 q 614 -224 579 -256 l 668 -264 q 529 -325 613 -325 m 335 68 q 533 178 444 68 l 533 315 q 351 374 446 374 q 224 335 275 374 q 174 224 174 297 q 216 110 174 153 q 335 68 258 68 z "},"Ć":{"ha":894,"x_min":97,"x_max":811,"o":"m 379 1063 l 576 1279 l 725 1279 l 478 1063 l 379 1063 m 500 -17 q 316 26 396 -17 q 190 140 236 68 q 120 300 143 213 q 97 486 97 388 q 138 735 97 625 q 272 917 179 846 q 500 989 365 989 q 686 947 619 989 q 797 832 753 904 l 711 782 q 624 869 672 838 q 500 901 576 901 q 360 865 421 901 q 265 766 299 828 q 215 633 232 704 q 199 486 199 563 q 228 283 199 374 q 328 131 258 192 q 500 71 399 71 q 725 194 650 71 l 811 161 q 695 34 774 85 q 500 -17 617 -17 z "},"ć":{"ha":668,"x_min":76,"x_max":606,"o":"m 226 800 l 424 1017 l 572 1017 l 325 800 l 226 800 m 357 -17 q 152 81 228 -17 q 76 354 76 179 q 154 628 76 529 q 368 726 232 726 q 507 688 447 726 q 596 578 567 649 l 507 543 q 364 639 468 639 q 178 354 178 639 q 361 71 178 71 q 459 100 418 71 q 518 179 500 129 l 606 146 q 514 27 581 71 q 357 -17 447 -17 z "},"Ĉ":{"ha":894,"x_min":97,"x_max":811,"o":"m 660 1063 l 499 1203 l 338 1063 l 247 1063 l 457 1279 l 540 1279 l 750 1063 l 660 1063 m 500 -17 q 316 26 396 -17 q 190 140 236 68 q 120 300 143 213 q 97 486 97 388 q 138 735 97 625 q 272 917 179 846 q 500 989 365 989 q 686 947 619 989 q 797 832 753 904 l 711 782 q 624 869 672 838 q 500 901 576 901 q 360 865 421 901 q 265 766 299 828 q 215 633 232 704 q 199 486 199 563 q 228 283 199 374 q 328 131 258 192 q 500 71 399 71 q 725 194 650 71 l 811 161 q 695 34 774 85 q 500 -17 617 -17 z "},"ĉ":{"ha":668,"x_min":76,"x_max":618,"o":"m 528 800 l 367 940 l 206 800 l 115 800 l 325 1017 l 408 1017 l 618 800 l 528 800 m 357 -17 q 152 81 228 -17 q 76 354 76 179 q 154 628 76 529 q 368 726 232 726 q 507 688 447 726 q 596 578 567 649 l 507 543 q 364 639 468 639 q 178 354 178 639 q 361 71 178 71 q 459 100 418 71 q 518 179 500 129 l 606 146 q 514 27 581 71 q 357 -17 447 -17 z "},"Ċ":{"ha":894,"x_min":97,"x_max":811,"o":"m 499 1104 q 453 1123 472 1104 q 433 1169 433 1142 q 452 1216 433 1197 q 499 1235 471 1235 q 545 1216 526 1235 q 564 1169 564 1197 q 545 1123 564 1142 q 499 1104 526 1104 m 500 -17 q 316 26 396 -17 q 190 140 236 68 q 120 300 143 213 q 97 486 97 388 q 138 735 97 625 q 272 917 179 846 q 500 989 365 989 q 686 947 619 989 q 797 832 753 904 l 711 782 q 624 869 672 838 q 500 901 576 901 q 360 865 421 901 q 265 766 299 828 q 215 633 232 704 q 199 486 199 563 q 228 283 199 374 q 328 131 258 192 q 500 71 399 71 q 725 194 650 71 l 811 161 q 695 34 774 85 q 500 -17 617 -17 z "},"ċ":{"ha":668,"x_min":76,"x_max":606,"o":"m 413 860 q 404 851 413 860 q 367 842 394 842 q 320 861 339 842 q 301 907 301 881 q 320 953 301 935 q 367 972 339 972 q 413 953 394 972 q 432 907 432 935 q 413 860 432 879 m 357 -17 q 152 81 228 -17 q 76 354 76 179 q 154 628 76 529 q 368 726 232 726 q 507 688 447 726 q 596 578 567 649 l 507 543 q 364 639 468 639 q 178 354 178 639 q 361 71 178 71 q 459 100 418 71 q 518 179 500 129 l 606 146 q 514 27 581 71 q 357 -17 447 -17 z "},"Č":{"ha":894,"x_min":97,"x_max":811,"o":"m 540 1063 l 457 1063 l 247 1279 l 338 1279 l 499 1139 l 660 1279 l 750 1279 l 540 1063 m 500 -17 q 316 26 396 -17 q 190 140 236 68 q 120 300 143 213 q 97 486 97 388 q 138 735 97 625 q 272 917 179 846 q 500 989 365 989 q 686 947 619 989 q 797 832 753 904 l 711 782 q 624 869 672 838 q 500 901 576 901 q 360 865 421 901 q 265 766 299 828 q 215 633 232 704 q 199 486 199 563 q 228 283 199 374 q 328 131 258 192 q 500 71 399 71 q 725 194 650 71 l 811 161 q 695 34 774 85 q 500 -17 617 -17 z "},"č":{"ha":668,"x_min":76,"x_max":618,"o":"m 408 800 l 325 800 l 115 1017 l 206 1017 l 367 876 l 528 1017 l 618 1017 l 408 800 m 357 -17 q 152 81 228 -17 q 76 354 76 179 q 154 628 76 529 q 368 726 232 726 q 507 688 447 726 q 596 578 567 649 l 507 543 q 364 639 468 639 q 178 354 178 639 q 361 71 178 71 q 459 100 418 71 q 518 179 500 129 l 606 146 q 514 27 581 71 q 357 -17 447 -17 z "},"Ď":{"ha":942,"x_min":146,"x_max":844,"o":"m 457 1063 l 374 1063 l 164 1279 l 254 1279 l 415 1139 l 576 1279 l 667 1279 l 457 1063 m 146 972 l 404 972 q 611 931 522 972 q 749 818 700 889 q 821 664 797 747 q 844 486 844 581 q 832 349 844 415 q 788 219 819 283 q 707 106 756 154 q 579 29 658 58 q 399 0 500 0 l 146 0 l 146 972 m 406 88 q 567 122 499 88 q 673 217 636 157 q 726 343 710 276 q 743 486 743 410 q 663 769 743 653 q 421 885 582 885 l 243 885 l 243 88 l 406 88 z "},"ď":{"ha":979,"x_min":76,"x_max":914,"o":"m 369 -17 q 155 84 233 -17 q 76 356 76 185 q 155 628 76 529 q 369 726 233 726 q 558 660 475 726 l 558 954 l 656 1003 l 656 0 l 558 0 l 558 61 q 369 -17 481 -17 m 914 989 l 914 978 q 803 672 914 782 l 775 692 q 805 819 793 731 q 817 989 817 908 l 914 989 m 381 71 q 482 100 435 71 q 558 182 529 129 l 558 536 q 381 639 494 639 q 231 565 283 639 q 178 356 178 492 q 233 152 178 233 q 381 71 289 71 z "},"Đ":{"ha":942,"x_min":49,"x_max":844,"o":"m 146 442 l 49 442 l 49 528 l 146 528 l 146 972 l 404 972 q 611 931 522 972 q 749 818 700 889 q 821 664 797 747 q 844 486 844 581 q 832 349 844 415 q 788 219 819 283 q 707 106 756 154 q 579 29 658 58 q 399 0 500 0 l 146 0 l 146 442 m 406 88 q 567 122 499 88 q 673 217 636 157 q 726 343 710 276 q 743 486 743 410 q 663 769 743 653 q 421 885 582 885 l 243 885 l 243 528 l 458 528 l 458 442 l 243 442 l 243 88 l 406 88 z "},"đ":{"ha":781,"x_min":76,"x_max":746,"o":"m 656 768 l 656 0 l 558 0 l 558 61 q 369 -17 476 -17 q 156 80 235 -17 q 76 333 76 176 q 155 588 76 496 q 369 679 233 679 q 558 613 475 679 l 558 768 l 361 768 l 361 856 l 558 856 l 558 954 l 656 1003 l 656 856 l 746 856 l 746 768 l 656 768 m 381 71 q 482 100 435 71 q 558 182 529 129 l 558 489 q 381 592 494 592 q 231 524 283 592 q 178 333 178 457 q 234 149 178 226 q 381 71 290 71 z "},"Ē":{"ha":828,"x_min":146,"x_max":731,"o":"m 193 1108 l 193 1193 l 651 1193 l 651 1108 l 193 1108 m 146 0 l 146 972 l 700 972 l 700 879 l 243 879 l 243 549 l 551 549 l 551 457 l 243 457 l 243 93 l 731 93 l 731 0 l 146 0 z "},"ē":{"ha":735,"x_min":76,"x_max":665,"o":"m 153 846 l 153 931 l 611 931 l 611 846 l 153 846 m 385 -17 q 161 92 246 -17 q 76 356 76 200 q 161 628 76 529 q 385 726 246 726 q 586 640 507 726 q 665 383 665 553 q 663 315 665 346 l 179 315 q 246 139 192 204 q 389 74 300 74 q 549 129 474 74 l 601 64 q 385 -17 504 -17 m 176 403 l 567 403 q 510 585 565 532 q 385 639 456 639 q 239 579 296 639 q 176 403 182 519 z "},"Ĕ":{"ha":828,"x_min":146,"x_max":731,"o":"m 613 1132 q 581 1101 613 1132 q 426 1069 550 1069 q 240 1132 303 1069 q 178 1293 178 1194 l 272 1293 q 316 1192 272 1229 q 426 1156 360 1156 q 537 1192 493 1156 q 581 1293 581 1229 l 675 1293 q 613 1132 675 1194 m 146 0 l 146 972 l 700 972 l 700 879 l 243 879 l 243 549 l 551 549 l 551 457 l 243 457 l 243 93 l 731 93 l 731 0 l 146 0 z "},"ĕ":{"ha":735,"x_min":76,"x_max":665,"o":"m 569 869 q 538 838 569 869 q 383 807 507 807 q 197 869 260 807 q 135 1031 135 932 l 229 1031 q 273 930 229 967 q 383 893 317 893 q 494 930 450 893 q 538 1031 538 967 l 632 1031 q 569 869 632 932 m 385 -17 q 161 92 246 -17 q 76 356 76 200 q 161 628 76 529 q 385 726 246 726 q 586 640 507 726 q 665 383 665 553 q 663 315 665 346 l 179 315 q 246 139 192 204 q 389 74 300 74 q 549 129 474 74 l 601 64 q 385 -17 504 -17 m 176 403 l 567 403 q 510 585 565 532 q 385 639 456 639 q 239 579 296 639 q 176 403 182 519 z "},"Ė":{"ha":828,"x_min":146,"x_max":731,"o":"m 480 1123 q 470 1114 480 1123 q 433 1104 461 1104 q 387 1123 406 1104 q 368 1169 368 1142 q 387 1216 368 1197 q 433 1235 406 1235 q 480 1216 461 1235 q 499 1169 499 1197 q 480 1123 499 1142 m 146 0 l 146 972 l 700 972 l 700 879 l 243 879 l 243 549 l 551 549 l 551 457 l 243 457 l 243 93 l 731 93 l 731 0 l 146 0 z "},"ė":{"ha":735,"x_min":76,"x_max":665,"o":"m 385 842 q 339 861 358 842 q 319 907 319 881 q 338 953 319 935 q 385 972 357 972 q 431 953 413 972 q 450 907 450 935 q 431 860 450 879 q 385 842 413 842 m 385 -17 q 161 92 246 -17 q 76 356 76 200 q 161 628 76 529 q 385 726 246 726 q 586 640 507 726 q 665 383 665 553 q 663 315 665 346 l 179 315 q 246 139 192 204 q 389 74 300 74 q 549 129 474 74 l 601 64 q 385 -17 504 -17 m 176 403 l 567 403 q 510 585 565 532 q 385 639 456 639 q 239 579 296 639 q 176 403 182 519 z "},"Ę":{"ha":828,"x_min":146,"x_max":731,"o":"m 546 -325 q 438 -290 482 -325 q 394 -189 394 -254 q 547 0 394 -64 l 146 0 l 146 972 l 700 972 l 700 879 l 243 879 l 243 549 l 551 549 l 551 457 l 243 457 l 243 93 l 731 93 l 731 0 l 681 0 q 542 -56 606 0 q 479 -176 479 -111 q 501 -236 479 -217 q 554 -256 524 -256 q 631 -224 596 -256 l 685 -264 q 546 -325 629 -325 z "},"ę":{"ha":735,"x_min":76,"x_max":665,"o":"m 404 -325 q 297 -290 340 -325 q 253 -189 253 -254 q 371 -17 253 -81 q 157 97 238 -11 q 76 356 76 204 q 161 628 76 529 q 385 726 246 726 q 586 640 507 726 q 665 383 665 553 q 663 315 665 346 l 179 315 q 246 139 192 204 q 389 74 300 74 q 549 129 474 74 l 601 64 q 501 1 581 46 q 440 -33 460 -21 q 392 -69 421 -46 q 350 -118 363 -92 q 338 -176 338 -144 q 360 -236 338 -217 q 413 -256 382 -256 q 489 -224 454 -256 l 543 -264 q 404 -325 488 -325 m 385 639 q 239 579 296 639 q 176 403 182 519 l 567 403 q 510 585 565 532 q 385 639 456 639 z "},"Ě":{"ha":828,"x_min":146,"x_max":731,"o":"m 478 1063 l 394 1063 l 185 1279 l 275 1279 l 436 1139 l 597 1279 l 688 1279 l 478 1063 m 146 0 l 146 972 l 700 972 l 700 879 l 243 879 l 243 549 l 551 549 l 551 457 l 243 457 l 243 93 l 731 93 l 731 0 l 146 0 z "},"ě":{"ha":735,"x_min":76,"x_max":665,"o":"m 426 800 l 343 800 l 133 1017 l 224 1017 l 385 876 l 546 1017 l 636 1017 l 426 800 m 385 -17 q 161 92 246 -17 q 76 356 76 200 q 161 628 76 529 q 385 726 246 726 q 586 640 507 726 q 665 383 665 553 q 663 315 665 346 l 179 315 q 246 139 192 204 q 389 74 300 74 q 549 129 474 74 l 601 64 q 385 -17 504 -17 m 176 403 l 567 403 q 510 585 565 532 q 385 639 456 639 q 239 579 296 639 q 176 403 182 519 z "},"Ĝ":{"ha":951,"x_min":97,"x_max":833,"o":"m 661 1063 l 500 1203 l 339 1063 l 249 1063 l 458 1279 l 542 1279 l 751 1063 l 661 1063 m 500 -17 q 316 26 396 -17 q 190 140 236 68 q 120 300 143 213 q 97 486 97 388 q 138 735 97 625 q 272 917 179 846 q 500 989 365 989 q 686 947 619 989 q 797 832 753 904 l 711 782 q 624 869 672 838 q 500 901 576 901 q 360 865 421 901 q 265 766 299 828 q 215 633 232 704 q 199 486 199 563 q 228 283 199 374 q 328 131 258 192 q 500 71 399 71 q 668 136 606 71 q 731 313 731 201 l 731 371 l 551 371 l 551 457 l 833 457 l 833 350 q 740 80 833 176 q 500 -17 646 -17 z "},"ĝ":{"ha":783,"x_min":76,"x_max":658,"o":"m 560 800 l 399 940 l 238 800 l 147 800 l 357 1017 l 440 1017 l 650 800 l 560 800 m 325 -296 l 281 -219 q 501 -161 440 -211 q 561 -28 561 -111 l 561 81 q 367 -17 496 -17 q 160 81 244 -17 q 76 356 76 179 q 158 627 76 528 q 372 726 240 726 q 561 643 490 726 l 561 710 l 658 710 l 658 11 q 325 -296 658 -282 m 389 71 q 484 103 435 71 q 561 189 533 136 l 561 531 q 483 610 533 581 q 389 639 432 639 q 231 566 285 639 q 178 356 178 493 q 237 147 178 222 q 389 71 296 71 z "},"Ğ":{"ha":951,"x_min":97,"x_max":833,"o":"m 685 1132 q 653 1101 685 1132 q 499 1069 622 1069 q 313 1132 375 1069 q 250 1293 250 1194 l 344 1293 q 388 1192 344 1229 q 499 1156 432 1156 q 609 1192 565 1156 q 653 1293 653 1229 l 747 1293 q 685 1132 747 1194 m 500 -17 q 316 26 396 -17 q 190 140 236 68 q 120 300 143 213 q 97 486 97 388 q 138 735 97 625 q 272 917 179 846 q 500 989 365 989 q 686 947 619 989 q 797 832 753 904 l 711 782 q 624 869 672 838 q 500 901 576 901 q 360 865 421 901 q 265 766 299 828 q 215 633 232 704 q 199 486 199 563 q 228 283 199 374 q 328 131 258 192 q 500 71 399 71 q 668 136 606 71 q 731 313 731 201 l 731 371 l 551 371 l 551 457 l 833 457 l 833 350 q 740 80 833 176 q 500 -17 646 -17 z "},"ğ":{"ha":783,"x_min":76,"x_max":658,"o":"m 585 869 q 553 838 585 869 q 399 807 522 807 q 213 869 275 807 q 150 1031 150 932 l 244 1031 q 288 930 244 967 q 399 893 332 893 q 509 930 465 893 q 553 1031 553 967 l 647 1031 q 585 869 647 932 m 325 -296 l 281 -219 q 501 -161 440 -211 q 561 -28 561 -111 l 561 81 q 367 -17 496 -17 q 160 81 244 -17 q 76 356 76 179 q 158 627 76 528 q 372 726 240 726 q 561 643 490 726 l 561 710 l 658 710 l 658 11 q 325 -296 658 -282 m 389 71 q 484 103 435 71 q 561 189 533 136 l 561 531 q 483 610 533 581 q 389 639 432 639 q 231 566 285 639 q 178 356 178 493 q 237 147 178 222 q 389 71 296 71 z "},"Ġ":{"ha":951,"x_min":97,"x_max":833,"o":"m 482 1104 q 436 1123 456 1104 q 417 1169 417 1142 q 435 1216 417 1197 q 482 1235 454 1235 q 528 1216 510 1235 q 547 1169 547 1197 q 528 1123 547 1142 q 482 1104 510 1104 m 500 -17 q 316 26 396 -17 q 190 140 236 68 q 120 300 143 213 q 97 486 97 388 q 138 735 97 625 q 272 917 179 846 q 500 989 365 989 q 686 947 619 989 q 797 832 753 904 l 711 782 q 624 869 672 838 q 500 901 576 901 q 360 865 421 901 q 265 766 299 828 q 215 633 232 704 q 199 486 199 563 q 228 283 199 374 q 328 131 258 192 q 500 71 399 71 q 668 136 606 71 q 731 313 731 201 l 731 371 l 551 371 l 551 457 l 833 457 l 833 350 q 740 80 833 176 q 500 -17 646 -17 z "},"ġ":{"ha":783,"x_min":76,"x_max":658,"o":"m 399 842 q 353 861 372 842 q 333 907 333 881 q 352 953 333 935 q 399 972 371 972 q 445 953 426 972 q 464 907 464 935 q 445 860 464 879 q 399 842 426 842 m 325 -296 l 281 -219 q 501 -161 440 -211 q 561 -28 561 -111 l 561 81 q 367 -17 496 -17 q 160 81 244 -17 q 76 356 76 179 q 158 627 76 528 q 372 726 240 726 q 561 643 490 726 l 561 710 l 658 710 l 658 11 q 325 -296 658 -282 m 389 71 q 484 103 435 71 q 561 189 533 136 l 561 531 q 483 610 533 581 q 389 639 432 639 q 231 566 285 639 q 178 356 178 493 q 237 147 178 222 q 389 71 296 71 z "},"Ģ":{"ha":951,"x_min":97,"x_max":833,"o":"m 500 -17 q 316 26 396 -17 q 190 140 236 68 q 120 300 143 213 q 97 486 97 388 q 138 735 97 625 q 272 917 179 846 q 500 989 365 989 q 686 947 619 989 q 797 832 753 904 l 711 782 q 624 869 672 838 q 500 901 576 901 q 360 865 421 901 q 265 766 299 828 q 215 633 232 704 q 199 486 199 563 q 228 283 199 374 q 328 131 258 192 q 500 71 399 71 q 668 136 606 71 q 731 313 731 201 l 731 371 l 551 371 l 551 457 l 833 457 l 833 350 q 740 80 833 176 q 500 -17 646 -17 m 446 -332 q 500 -229 493 -294 q 444 -208 463 -229 q 425 -154 425 -186 q 447 -101 425 -122 q 497 -81 469 -81 q 549 -103 526 -81 q 572 -162 572 -126 q 471 -339 572 -278 l 446 -332 z "},"ģ":{"ha":783,"x_min":76,"x_max":658,"o":"m 397 838 q 345 860 368 838 q 322 919 322 883 q 424 1096 322 1035 l 449 1089 q 394 986 401 1051 q 451 965 432 986 q 469 911 469 943 q 447 858 469 879 q 397 838 425 838 m 325 -296 l 281 -219 q 501 -161 440 -211 q 561 -28 561 -111 l 561 81 q 367 -17 496 -17 q 160 81 244 -17 q 76 356 76 179 q 158 627 76 528 q 372 726 240 726 q 561 643 490 726 l 561 710 l 658 710 l 658 11 q 325 -296 658 -282 m 389 71 q 484 103 435 71 q 561 189 533 136 l 561 531 q 483 610 533 581 q 389 639 432 639 q 231 566 285 639 q 178 356 178 493 q 237 147 178 222 q 389 71 296 71 z "},"Ĥ":{"ha":961,"x_min":146,"x_max":815,"o":"m 642 1063 l 481 1203 l 319 1063 l 229 1063 l 439 1279 l 522 1279 l 732 1063 l 642 1063 m 718 0 l 718 460 l 243 460 l 243 0 l 146 0 l 146 972 l 243 972 l 243 551 l 718 551 l 718 972 l 815 972 l 815 0 l 718 0 z "},"ĥ":{"ha":778,"x_min":125,"x_max":660,"o":"m 558 1063 l 397 1203 l 236 1063 l 146 1063 l 356 1279 l 439 1279 l 649 1063 l 558 1063 m 125 0 l 125 957 l 222 1003 l 222 631 q 406 726 286 726 q 598 647 536 726 q 660 393 660 568 l 660 0 l 563 0 l 563 433 q 518 590 563 540 q 397 639 474 639 q 222 436 222 639 l 222 0 l 125 0 z "},"Ħ":{"ha":961,"x_min":21,"x_max":940,"o":"m 718 0 l 718 460 l 243 460 l 243 0 l 146 0 l 146 739 l 21 739 l 21 831 l 146 831 l 146 972 l 243 972 l 243 831 l 718 831 l 718 972 l 815 972 l 815 831 l 940 831 l 940 739 l 815 739 l 815 0 l 718 0 m 718 551 l 718 739 l 243 739 l 243 551 l 718 551 z "},"ħ":{"ha":778,"x_min":35,"x_max":660,"o":"m 125 0 l 125 768 l 35 768 l 35 856 l 125 856 l 125 957 l 222 1003 l 222 856 l 439 856 l 439 768 l 222 768 l 222 583 q 407 679 286 679 q 599 600 538 679 q 660 346 660 521 l 660 0 l 563 0 l 563 386 q 399 592 563 592 q 222 389 222 592 l 222 0 l 125 0 z "},"Ĩ":{"ha":389,"x_min":-46,"x_max":431,"o":"m 303 1099 q 177 1133 250 1099 q 74 1168 104 1168 q 28 1151 47 1168 q 8 1104 10 1135 l -46 1104 q 83 1257 -46 1257 q 209 1222 136 1257 q 313 1186 282 1186 q 358 1203 339 1186 q 378 1251 376 1221 l 431 1251 q 303 1099 431 1099 m 146 0 l 146 972 l 243 972 l 243 0 l 146 0 z "},"ĩ":{"ha":350,"x_min":-65,"x_max":411,"o":"m 283 836 q 158 871 231 836 q 54 906 85 906 q 9 889 28 906 q -11 842 -10 872 l -65 842 q 64 994 -65 994 q 190 959 117 994 q 293 924 263 924 q 338 941 319 924 q 358 989 357 958 l 411 989 q 283 836 411 836 m 126 0 l 126 710 l 224 710 l 224 0 l 126 0 z "},"Ī":{"ha":389,"x_min":-37,"x_max":421,"o":"m -37 1108 l -37 1193 l 421 1193 l 421 1108 l -37 1108 m 146 0 l 146 972 l 243 972 l 243 0 l 146 0 z "},"ī":{"ha":350,"x_min":-57,"x_max":401,"o":"m -57 846 l -57 931 l 401 931 l 401 846 l -57 846 m 126 0 l 126 710 l 224 710 l 224 0 l 126 0 z "},"Ĭ":{"ha":389,"x_min":-56,"x_max":442,"o":"m 379 1132 q 348 1101 379 1132 q 193 1069 317 1069 q 7 1132 69 1069 q -56 1293 -56 1194 l 39 1293 q 83 1192 39 1229 q 193 1156 126 1156 q 303 1192 260 1156 q 347 1293 347 1229 l 442 1293 q 379 1132 442 1194 m 146 0 l 146 972 l 243 972 l 243 0 l 146 0 z "},"ĭ":{"ha":350,"x_min":-75,"x_max":422,"o":"m 360 869 q 328 838 360 869 q 174 807 297 807 q -12 869 50 807 q -75 1031 -75 932 l 19 1031 q 63 930 19 967 q 174 893 107 893 q 284 930 240 893 q 328 1031 328 967 l 422 1031 q 360 869 422 932 m 126 0 l 126 710 l 224 710 l 224 0 l 126 0 z "},"Į":{"ha":389,"x_min":-11,"x_max":279,"o":"m 140 -325 q 33 -290 76 -325 q -11 -189 -11 -254 q 146 0 -11 -62 l 146 972 l 243 972 l 243 0 q 118 -75 163 -28 q 74 -176 74 -122 q 96 -236 74 -217 q 149 -256 118 -256 q 225 -224 190 -256 l 279 -264 q 140 -325 224 -325 z "},"į":{"ha":350,"x_min":-29,"x_max":261,"o":"m 222 874 q 212 865 222 874 q 175 856 203 856 q 129 874 147 856 q 111 919 111 892 q 130 967 111 947 q 175 986 149 986 q 222 967 203 986 q 240 919 240 947 q 222 874 240 892 m 122 -325 q 15 -290 58 -325 q -29 -189 -29 -254 q 13 -76 -29 -124 q 126 0 56 -28 l 126 710 l 225 710 l 225 0 q 100 -75 144 -28 q 56 -176 56 -122 q 78 -236 56 -217 q 131 -256 100 -256 q 207 -224 172 -256 l 261 -264 q 122 -325 206 -325 z "},"İ":{"ha":389,"x_min":129,"x_max":260,"o":"m 241 1123 q 232 1114 241 1123 q 194 1104 222 1104 q 148 1123 167 1104 q 129 1169 129 1142 q 148 1216 129 1197 q 194 1235 167 1235 q 241 1216 222 1235 q 260 1169 260 1197 q 241 1123 260 1142 m 146 0 l 146 972 l 243 972 l 243 0 l 146 0 z "},"ı":{"ha":350,"x_min":126,"x_max":224,"o":"m 126 0 l 126 710 l 224 710 l 224 0 l 126 0 z "},"Ĳ":{"ha":1119,"x_min":146,"x_max":974,"o":"m 146 0 l 146 972 l 243 972 l 243 0 l 146 0 m 683 -17 q 524 25 583 -17 q 431 149 465 67 l 507 190 q 547 123 532 143 q 597 87 563 103 q 688 71 632 71 q 822 119 768 71 q 876 283 876 168 l 876 972 l 974 972 l 974 313 q 956 176 974 236 q 908 81 938 117 q 840 23 879 46 q 763 -8 800 0 q 683 -17 725 -17 z "},"ĳ":{"ha":742,"x_min":111,"x_max":632,"o":"m 221 874 q 212 865 221 874 q 175 856 203 856 q 129 874 147 856 q 111 919 111 892 q 130 967 111 947 q 175 986 149 986 q 221 967 203 986 q 239 919 239 947 q 221 874 239 892 m 568 856 q 523 874 542 856 q 504 919 504 892 q 523 967 504 947 q 568 986 542 986 q 614 967 596 986 q 632 919 632 947 q 614 874 632 892 q 568 856 596 856 m 126 0 l 126 710 l 224 710 l 224 0 l 126 0 m 394 -296 l 350 -219 q 519 -83 519 -204 l 519 710 l 617 710 l 617 -44 q 578 -203 617 -142 q 394 -296 521 -289 z "},"Ĵ":{"ha":731,"x_min":42,"x_max":788,"o":"m 697 1063 l 536 1203 l 375 1063 l 285 1063 l 494 1279 l 578 1279 l 788 1063 l 697 1063 m 294 -17 q 135 25 194 -17 q 42 149 76 67 l 118 190 q 158 123 143 143 q 208 87 174 103 q 299 71 243 71 q 433 119 379 71 q 488 283 488 168 l 488 972 l 585 972 l 585 313 q 567 176 585 236 q 519 81 549 117 q 451 23 490 46 q 374 -8 411 0 q 294 -17 336 -17 z "},"ĵ":{"ha":350,"x_min":-72,"x_max":431,"o":"m 340 800 l 179 940 l 18 800 l -72 800 l 138 1017 l 221 1017 l 431 800 l 340 800 m 3 -296 l -42 -219 q 128 -83 128 -204 l 128 710 l 225 710 l 225 -44 q 186 -203 225 -142 q 3 -296 129 -289 z "},"Ķ":{"ha":893,"x_min":146,"x_max":817,"o":"m 707 0 l 401 560 l 243 363 l 243 0 l 146 0 l 146 972 l 243 972 l 243 489 l 628 972 l 733 972 l 468 642 l 817 0 l 707 0 m 396 -332 q 450 -229 443 -294 q 394 -208 413 -229 q 375 -154 375 -186 q 397 -101 375 -122 q 447 -81 419 -81 q 499 -103 476 -81 q 522 -162 522 -126 q 421 -339 522 -278 l 396 -332 z "},"ķ":{"ha":710,"x_min":125,"x_max":675,"o":"m 675 0 l 568 0 l 340 450 l 222 324 l 222 0 l 125 0 l 125 956 l 222 1003 l 222 439 l 474 710 l 586 710 l 408 521 l 675 0 m 304 -332 q 358 -229 351 -294 q 302 -208 321 -229 q 283 -154 283 -186 q 306 -101 283 -122 q 356 -81 328 -81 q 408 -103 385 -81 q 431 -162 431 -126 q 329 -339 431 -278 l 304 -332 z "},"ĸ":{"ha":725,"x_min":125,"x_max":697,"o":"m 586 0 l 388 367 l 222 160 l 222 0 l 125 0 l 125 710 l 222 710 l 222 289 l 553 710 l 661 710 l 454 449 l 697 0 l 586 0 z "},"Ĺ":{"ha":774,"x_min":81,"x_max":725,"o":"m 81 1063 l 278 1279 l 426 1279 l 179 1063 l 81 1063 m 146 0 l 146 972 l 243 972 l 243 93 l 725 93 l 725 0 l 146 0 z "},"ĺ":{"ha":361,"x_min":40,"x_max":386,"o":"m 40 1050 l 238 1267 l 386 1267 l 139 1050 l 40 1050 m 132 0 l 132 956 l 229 1003 l 229 0 l 132 0 z "},"Ļ":{"ha":774,"x_min":146,"x_max":725,"o":"m 146 0 l 146 972 l 243 972 l 243 93 l 725 93 l 725 0 l 146 0 m 386 -332 q 440 -229 433 -294 q 384 -208 403 -229 q 365 -154 365 -186 q 388 -101 365 -122 q 438 -81 410 -81 q 490 -103 467 -81 q 513 -162 513 -126 q 411 -339 513 -278 l 386 -332 z "},"ļ":{"ha":361,"x_min":108,"x_max":256,"o":"m 132 0 l 132 956 l 229 1003 l 229 0 l 132 0 m 129 -332 q 183 -229 176 -294 q 127 -208 146 -229 q 108 -154 108 -186 q 131 -101 108 -122 q 181 -81 153 -81 q 233 -103 210 -81 q 256 -162 256 -126 q 154 -339 256 -278 l 129 -332 z "},"Ľ":{"ha":774,"x_min":-57,"x_max":725,"o":"m 236 1063 l 153 1063 l -57 1279 l 33 1279 l 194 1139 l 356 1279 l 446 1279 l 236 1063 m 146 0 l 146 972 l 243 972 l 243 93 l 725 93 l 725 0 l 146 0 z "},"ľ":{"ha":554,"x_min":132,"x_max":515,"o":"m 132 0 l 132 956 l 229 1003 l 229 0 l 132 0 m 515 989 l 515 978 q 404 672 515 782 l 376 692 q 406 819 394 731 q 418 989 418 908 l 515 989 z "},"Ŀ":{"ha":774,"x_min":146,"x_max":725,"o":"m 146 0 l 146 972 l 243 972 l 243 93 l 725 93 l 725 0 l 146 0 m 628 422 q 616 409 628 422 q 567 396 603 396 q 505 422 531 396 q 479 483 479 449 q 505 544 479 518 q 567 571 531 571 q 628 544 603 571 q 654 483 654 518 q 628 422 654 449 z "},"ŀ":{"ha":494,"x_min":132,"x_max":485,"o":"m 132 0 l 132 956 l 229 1003 l 229 0 l 132 0 m 459 375 q 446 362 459 375 q 397 349 433 349 q 335 375 361 349 q 310 436 310 401 q 335 497 310 471 q 397 524 361 524 q 459 497 433 524 q 485 436 485 471 q 459 375 485 401 z "},"Ł":{"ha":774,"x_min":42,"x_max":725,"o":"m 146 0 l 146 378 l 42 301 l 42 407 l 146 485 l 146 972 l 243 972 l 243 568 l 393 682 l 393 575 l 243 458 l 243 93 l 725 93 l 725 0 l 146 0 z "},"ł":{"ha":363,"x_min":42,"x_max":321,"o":"m 133 0 l 133 383 l 42 311 l 42 393 l 133 465 l 133 956 l 231 1003 l 231 538 l 321 607 l 321 525 l 231 456 l 231 0 l 133 0 z "},"Ń":{"ha":979,"x_min":146,"x_max":833,"o":"m 363 1064 l 560 1281 l 708 1281 l 461 1064 l 363 1064 m 833 0 l 735 0 l 282 728 q 243 793 247 786 l 243 728 l 243 0 l 146 0 l 146 972 l 244 972 l 696 236 q 736 168 718 200 l 736 236 l 736 972 l 833 972 l 833 0 z "},"ń":{"ha":778,"x_min":125,"x_max":660,"o":"m 257 800 l 454 1017 l 603 1017 l 356 800 l 257 800 m 563 0 l 563 433 q 518 590 563 540 q 397 639 474 639 q 222 436 222 639 l 222 0 l 125 0 l 125 710 l 222 710 l 222 632 q 406 726 288 726 q 598 647 536 726 q 660 393 660 568 l 660 0 l 563 0 z "},"Ņ":{"ha":979,"x_min":146,"x_max":833,"o":"m 833 0 l 735 0 l 282 728 q 243 793 247 786 l 243 728 l 243 0 l 146 0 l 146 972 l 244 972 l 696 236 q 736 168 718 200 l 736 236 l 736 972 l 833 972 l 833 0 m 439 -332 q 493 -229 486 -294 q 437 -208 456 -229 q 418 -154 418 -186 q 440 -101 418 -122 q 490 -81 463 -81 q 542 -103 519 -81 q 565 -162 565 -126 q 464 -339 565 -278 l 439 -332 z "},"ņ":{"ha":778,"x_min":125,"x_max":660,"o":"m 563 0 l 563 433 q 518 590 563 540 q 397 639 474 639 q 222 436 222 639 l 222 0 l 125 0 l 125 710 l 222 710 l 222 632 q 406 726 288 726 q 598 647 536 726 q 660 393 660 568 l 660 0 l 563 0 m 338 -332 q 392 -229 385 -294 q 335 -208 354 -229 q 317 -154 317 -186 q 339 -101 317 -122 q 389 -81 361 -81 q 441 -103 418 -81 q 464 -162 464 -126 q 363 -339 464 -278 l 338 -332 z "},"Ň":{"ha":979,"x_min":146,"x_max":833,"o":"m 532 1063 l 449 1063 l 239 1279 l 329 1279 l 490 1139 l 651 1279 l 742 1279 l 532 1063 m 833 0 l 735 0 l 282 728 q 243 793 247 786 l 243 728 l 243 0 l 146 0 l 146 972 l 244 972 l 696 236 q 736 168 718 200 l 736 236 l 736 972 l 833 972 l 833 0 z "},"ň":{"ha":778,"x_min":125,"x_max":660,"o":"m 439 800 l 356 800 l 146 1017 l 236 1017 l 397 876 l 558 1017 l 649 1017 l 439 800 m 563 0 l 563 433 q 518 590 563 540 q 397 639 474 639 q 222 436 222 639 l 222 0 l 125 0 l 125 710 l 222 710 l 222 632 q 406 726 288 726 q 598 647 536 726 q 660 393 660 568 l 660 0 l 563 0 z "},"ŉ":{"ha":1050,"x_min":69,"x_max":932,"o":"m 101 649 q 149 714 126 671 q 171 811 171 757 q 98 835 126 811 q 69 897 69 860 q 94 964 69 939 q 154 989 118 989 q 224 959 194 989 q 254 872 254 929 q 219 736 254 796 q 128 642 185 676 l 101 649 m 835 0 l 835 433 q 790 590 835 540 q 669 639 746 639 q 494 436 494 639 l 494 0 l 397 0 l 397 710 l 494 710 l 494 632 q 678 726 560 726 q 870 647 808 726 q 932 393 932 568 l 932 0 l 835 0 z "},"Ŋ":{"ha":979,"x_min":146,"x_max":833,"o":"m 610 -339 l 565 -262 q 697 -203 658 -254 q 736 -83 736 -151 l 736 -1 l 282 728 q 243 793 247 786 l 243 728 l 243 0 l 146 0 l 146 972 l 244 972 l 696 236 q 736 168 718 200 l 736 236 l 736 972 l 833 972 l 833 -64 q 753 -281 833 -210 q 610 -339 700 -326 z "},"ŋ":{"ha":778,"x_min":125,"x_max":660,"o":"m 438 -296 l 393 -219 q 563 -83 563 -204 l 563 433 q 518 590 563 540 q 399 639 474 639 q 222 436 222 639 l 222 0 l 125 0 l 125 710 l 222 710 l 222 632 q 407 726 288 726 q 599 647 538 726 q 660 393 660 568 l 660 -44 q 618 -207 660 -146 q 438 -296 561 -289 z "},"Ō":{"ha":1000,"x_min":97,"x_max":903,"o":"m 268 1108 l 268 1193 l 726 1193 l 726 1108 l 268 1108 m 689 27 q 649 5 689 27 q 500 -17 608 -17 q 311 27 392 -17 q 185 145 231 71 q 119 305 140 219 q 97 486 97 390 q 119 667 97 582 q 185 827 140 753 q 311 945 231 901 q 500 989 392 989 q 689 945 608 989 q 815 827 769 901 q 881 667 860 753 q 903 486 903 582 q 881 305 903 390 q 815 145 860 219 q 689 27 769 71 m 500 71 q 641 108 581 71 q 735 206 701 144 q 785 339 769 268 q 801 486 801 410 q 774 688 801 599 q 677 840 747 778 q 500 901 607 901 q 359 865 419 901 q 265 766 299 828 q 215 633 231 704 q 199 486 199 563 q 226 284 199 374 q 323 133 253 194 q 500 71 393 71 z "},"ō":{"ha":761,"x_min":76,"x_max":685,"o":"m 149 846 l 149 931 l 607 931 l 607 846 l 149 846 m 381 -17 q 159 81 242 -17 q 76 354 76 179 q 160 627 76 528 q 381 726 243 726 q 602 628 519 726 q 685 356 685 531 q 601 83 685 182 q 381 -17 518 -17 m 381 71 q 530 147 476 71 q 583 356 583 222 q 531 564 583 489 q 381 639 479 639 q 230 566 282 639 q 178 354 178 493 q 230 146 178 221 q 381 71 282 71 z "},"Ŏ":{"ha":1000,"x_min":97,"x_max":903,"o":"m 685 1132 q 653 1101 685 1132 q 499 1069 622 1069 q 313 1132 375 1069 q 250 1293 250 1194 l 344 1293 q 388 1192 344 1229 q 499 1156 432 1156 q 609 1192 565 1156 q 653 1293 653 1229 l 747 1293 q 685 1132 747 1194 m 689 27 q 649 5 689 27 q 500 -17 608 -17 q 311 27 392 -17 q 185 145 231 71 q 119 305 140 219 q 97 486 97 390 q 119 667 97 582 q 185 827 140 753 q 311 945 231 901 q 500 989 392 989 q 689 945 608 989 q 815 827 769 901 q 881 667 860 753 q 903 486 903 582 q 881 305 903 390 q 815 145 860 219 q 689 27 769 71 m 500 71 q 641 108 581 71 q 735 206 701 144 q 785 339 769 268 q 801 486 801 410 q 774 688 801 599 q 677 840 747 778 q 500 901 607 901 q 359 865 419 901 q 265 766 299 828 q 215 633 231 704 q 199 486 199 563 q 226 284 199 374 q 323 133 253 194 q 500 71 393 71 z "},"ŏ":{"ha":761,"x_min":76,"x_max":685,"o":"m 565 869 q 534 838 565 869 q 379 807 503 807 q 193 869 256 807 q 131 1031 131 932 l 225 1031 q 269 930 225 967 q 379 893 313 893 q 490 930 446 893 q 533 1031 533 967 l 628 1031 q 565 869 628 932 m 381 -17 q 159 81 242 -17 q 76 354 76 179 q 160 627 76 528 q 381 726 243 726 q 602 628 519 726 q 685 356 685 531 q 601 83 685 182 q 381 -17 518 -17 m 381 71 q 530 147 476 71 q 583 356 583 222 q 531 564 583 489 q 381 639 479 639 q 230 566 282 639 q 178 354 178 493 q 230 146 178 221 q 381 71 282 71 z "},"Ő":{"ha":1000,"x_min":97,"x_max":903,"o":"m 363 1063 l 264 1063 l 461 1279 l 610 1279 l 363 1063 m 638 1063 l 539 1063 l 736 1279 l 885 1279 l 638 1063 m 689 27 q 649 5 689 27 q 500 -17 608 -17 q 311 27 392 -17 q 185 145 231 71 q 119 305 140 219 q 97 486 97 390 q 119 667 97 582 q 185 827 140 753 q 311 945 231 901 q 500 989 392 989 q 689 945 608 989 q 815 827 769 901 q 881 667 860 753 q 903 486 903 582 q 881 305 903 390 q 815 145 860 219 q 689 27 769 71 m 500 71 q 641 108 581 71 q 735 206 701 144 q 785 339 769 268 q 801 486 801 410 q 774 688 801 599 q 677 840 747 778 q 500 901 607 901 q 359 865 419 901 q 265 766 299 828 q 215 633 231 704 q 199 486 199 563 q 226 284 199 374 q 323 133 253 194 q 500 71 393 71 z "},"ő":{"ha":761,"x_min":76,"x_max":765,"o":"m 243 800 l 144 800 l 342 1017 l 490 1017 l 243 800 m 518 800 l 419 800 l 617 1017 l 765 1017 l 518 800 m 381 -17 q 159 81 242 -17 q 76 354 76 179 q 160 627 76 528 q 381 726 243 726 q 602 628 519 726 q 685 356 685 531 q 601 83 685 182 q 381 -17 518 -17 m 381 71 q 530 147 476 71 q 583 356 583 222 q 531 564 583 489 q 381 639 479 639 q 230 566 282 639 q 178 354 178 493 q 230 146 178 221 q 381 71 282 71 z "},"Œ":{"ha":1263,"x_min":97,"x_max":1165,"o":"m 660 0 l 660 15 q 500 -17 592 -17 q 311 27 392 -17 q 185 144 231 71 q 119 304 140 218 q 97 486 97 390 q 110 633 97 563 q 153 769 124 703 q 228 883 183 835 q 344 960 274 931 q 500 989 414 989 q 660 957 593 989 l 660 972 l 1135 972 l 1135 879 l 757 879 l 757 549 l 986 549 l 986 457 l 757 457 l 757 93 l 1165 93 l 1165 0 l 660 0 m 500 71 q 660 118 586 71 l 660 856 q 500 901 593 901 q 359 865 419 901 q 265 766 299 828 q 215 633 231 704 q 199 486 199 563 q 226 283 199 372 q 323 132 253 193 q 500 71 393 71 z "},"œ":{"ha":1242,"x_min":76,"x_max":1172,"o":"m 382 -17 q 159 81 242 -17 q 76 354 76 179 q 159 627 76 528 q 382 726 242 726 q 636 579 549 726 q 890 726 717 726 q 1093 640 1014 726 q 1172 383 1172 553 q 1169 315 1172 346 l 686 315 q 753 139 699 204 q 894 74 807 74 q 1056 129 981 74 l 1108 64 q 890 -17 1010 -17 q 639 139 724 -17 q 382 -17 557 -17 m 382 71 q 531 147 478 71 q 583 356 583 222 q 531 564 583 489 q 382 639 479 639 q 230 566 282 639 q 178 354 178 493 q 231 146 178 221 q 382 71 283 71 m 683 403 l 1074 403 q 1017 585 1072 532 q 890 639 963 639 q 745 579 801 639 q 683 403 689 519 z "},"Ŕ":{"ha":907,"x_min":146,"x_max":803,"o":"m 303 1063 l 500 1279 l 649 1279 l 401 1063 l 303 1063 m 146 0 l 146 972 l 503 972 q 732 895 661 972 q 803 706 803 818 q 744 533 803 607 q 563 439 686 458 l 778 0 l 671 0 l 463 435 l 243 435 l 243 0 l 146 0 m 243 522 l 506 522 q 660 574 611 522 q 710 701 710 626 q 662 828 710 772 q 506 885 614 885 l 243 885 l 243 522 z "},"ŕ":{"ha":529,"x_min":125,"x_max":525,"o":"m 179 800 l 376 1017 l 525 1017 l 278 800 l 179 800 m 125 0 l 125 710 l 222 710 l 222 610 q 401 726 276 726 q 501 697 461 726 l 486 603 q 394 629 443 629 q 276 574 329 629 q 222 401 222 519 l 222 0 l 125 0 z "},"Ŗ":{"ha":907,"x_min":146,"x_max":803,"o":"m 146 0 l 146 972 l 503 972 q 732 895 661 972 q 803 706 803 818 q 744 533 803 607 q 563 439 686 458 l 778 0 l 671 0 l 463 435 l 243 435 l 243 0 l 146 0 m 243 522 l 506 522 q 660 574 611 522 q 710 701 710 626 q 662 828 710 772 q 506 885 614 885 l 243 885 l 243 522 m 406 -332 q 460 -229 453 -294 q 403 -208 422 -229 q 385 -154 385 -186 q 407 -101 385 -122 q 457 -81 429 -81 q 509 -103 486 -81 q 532 -162 532 -126 q 431 -339 532 -278 l 406 -332 z "},"ŗ":{"ha":529,"x_min":104,"x_max":501,"o":"m 125 0 l 125 710 l 222 710 l 222 610 q 401 726 276 726 q 501 697 461 726 l 486 603 q 394 629 443 629 q 276 574 329 629 q 222 401 222 519 l 222 0 l 125 0 m 125 -360 q 179 -257 172 -322 q 123 -235 142 -257 q 104 -182 104 -214 q 126 -129 104 -150 q 176 -108 149 -108 q 228 -131 206 -108 q 251 -190 251 -154 q 150 -367 251 -306 l 125 -360 z "},"Ř":{"ha":907,"x_min":146,"x_max":803,"o":"m 485 1063 l 401 1063 l 192 1279 l 282 1279 l 443 1139 l 604 1279 l 694 1279 l 485 1063 m 146 0 l 146 972 l 503 972 q 732 895 661 972 q 803 706 803 818 q 744 533 803 607 q 563 439 686 458 l 778 0 l 671 0 l 463 435 l 243 435 l 243 0 l 146 0 m 243 522 l 506 522 q 660 574 611 522 q 710 701 710 626 q 662 828 710 772 q 506 885 614 885 l 243 885 l 243 522 z "},"ř":{"ha":529,"x_min":68,"x_max":571,"o":"m 361 800 l 278 800 l 68 1017 l 158 1017 l 319 876 l 481 1017 l 571 1017 l 361 800 m 125 0 l 125 710 l 222 710 l 222 610 q 401 726 276 726 q 501 697 461 726 l 486 603 q 394 629 443 629 q 276 574 329 629 q 222 401 222 519 l 222 0 l 125 0 z "},"Ś":{"ha":825,"x_min":90,"x_max":721,"o":"m 292 1063 l 489 1279 l 638 1279 l 390 1063 l 292 1063 m 414 -17 q 208 40 296 -17 q 90 181 121 97 l 182 214 q 274 110 213 149 q 415 71 335 71 q 566 117 511 71 q 621 250 621 164 q 561 385 621 332 q 401 476 501 439 q 298 521 342 499 q 209 577 254 543 q 140 658 164 611 q 117 763 117 706 q 194 924 117 858 q 403 989 272 989 q 581 946 508 989 q 674 835 653 903 l 583 804 q 516 874 564 846 q 399 901 468 901 q 265 864 314 901 q 217 764 217 826 q 234 697 217 726 q 287 644 251 668 q 355 606 322 621 q 440 569 388 590 q 541 523 497 547 q 628 461 585 499 q 697 371 672 424 q 721 253 721 318 q 636 55 721 126 q 414 -17 551 -17 z "},"ś":{"ha":643,"x_min":81,"x_max":564,"o":"m 206 800 l 403 1017 l 551 1017 l 304 800 l 206 800 m 325 -17 q 81 107 185 -17 l 149 167 q 333 69 231 69 q 433 97 394 69 q 472 172 472 124 q 458 227 472 203 q 415 272 444 251 q 361 303 385 292 q 296 331 338 314 q 214 368 246 351 q 149 410 182 385 q 99 469 115 435 q 83 546 83 503 q 147 676 83 626 q 313 726 211 726 q 543 618 453 726 l 479 564 q 310 640 403 640 q 212 615 249 640 q 175 547 175 590 q 185 508 175 526 q 207 478 194 490 q 246 452 219 467 q 288 431 272 438 q 338 411 303 425 q 403 384 379 394 q 462 352 426 374 q 516 309 497 331 q 549 253 535 288 q 564 178 564 219 q 499 36 564 89 q 325 -17 435 -17 z "},"Ŝ":{"ha":825,"x_min":90,"x_max":721,"o":"m 565 1063 l 404 1203 l 243 1063 l 153 1063 l 363 1279 l 446 1279 l 656 1063 l 565 1063 m 414 -17 q 208 40 296 -17 q 90 181 121 97 l 182 214 q 274 110 213 149 q 415 71 335 71 q 566 117 511 71 q 621 250 621 164 q 561 385 621 332 q 401 476 501 439 q 298 521 342 499 q 209 577 254 543 q 140 658 164 611 q 117 763 117 706 q 194 924 117 858 q 403 989 272 989 q 581 946 508 989 q 674 835 653 903 l 583 804 q 516 874 564 846 q 399 901 468 901 q 265 864 314 901 q 217 764 217 826 q 234 697 217 726 q 287 644 251 668 q 355 606 322 621 q 440 569 388 590 q 541 523 497 547 q 628 461 585 499 q 697 371 672 424 q 721 253 721 318 q 636 55 721 126 q 414 -17 551 -17 z "},"ŝ":{"ha":643,"x_min":63,"x_max":565,"o":"m 475 800 l 314 940 l 153 800 l 63 800 l 272 1017 l 356 1017 l 565 800 l 475 800 m 325 -17 q 81 107 185 -17 l 149 167 q 333 69 231 69 q 433 97 394 69 q 472 172 472 124 q 458 227 472 203 q 415 272 444 251 q 361 303 385 292 q 296 331 338 314 q 214 368 246 351 q 149 410 182 385 q 99 469 115 435 q 83 546 83 503 q 147 676 83 626 q 313 726 211 726 q 543 618 453 726 l 479 564 q 310 640 403 640 q 212 615 249 640 q 175 547 175 590 q 185 508 175 526 q 207 478 194 490 q 246 452 219 467 q 288 431 272 438 q 338 411 303 425 q 403 384 379 394 q 462 352 426 374 q 516 309 497 331 q 549 253 535 288 q 564 178 564 219 q 499 36 564 89 q 325 -17 435 -17 z "},"Ş":{"ha":825,"x_min":90,"x_max":721,"o":"m 407 -325 q 285 -286 331 -325 l 349 -244 q 399 -258 360 -258 q 450 -237 428 -258 q 472 -187 472 -217 q 446 -141 472 -161 q 388 -121 419 -121 q 338 -128 353 -121 l 321 -107 l 392 -15 q 199 46 281 -10 q 90 181 118 101 l 182 214 q 272 111 211 149 q 415 74 333 74 q 565 119 511 74 q 619 250 619 164 q 401 476 619 394 q 298 521 340 500 q 210 576 256 542 q 140 657 164 610 q 117 763 117 704 q 194 924 117 858 q 403 989 272 989 q 581 946 508 989 q 674 835 653 903 l 583 804 q 516 872 564 846 q 399 899 468 899 q 266 863 314 899 q 218 764 218 826 q 276 653 218 696 q 440 569 333 611 q 542 524 499 547 q 629 463 585 500 q 697 372 674 425 q 721 253 721 318 q 649 66 721 136 q 454 -15 576 -4 l 418 -76 q 528 -110 493 -76 q 564 -189 564 -143 q 519 -287 564 -249 q 407 -325 475 -325 z "},"ş":{"ha":643,"x_min":81,"x_max":564,"o":"m 297 -325 q 175 -286 221 -325 l 239 -244 q 289 -258 250 -258 q 340 -237 318 -258 q 363 -187 363 -217 q 336 -141 363 -161 q 278 -121 310 -121 q 228 -128 243 -121 l 211 -107 l 283 -12 q 81 107 165 6 l 149 167 q 333 69 231 69 q 433 97 394 69 q 472 172 472 124 q 458 227 472 203 q 415 272 444 251 q 361 303 385 292 q 296 331 338 314 q 214 368 246 351 q 149 410 182 385 q 99 469 115 435 q 83 546 83 503 q 147 676 83 626 q 313 726 211 726 q 543 618 453 726 l 479 564 q 310 640 403 640 q 212 615 249 640 q 175 547 175 590 q 185 508 175 526 q 207 478 194 490 q 246 452 219 467 q 288 431 272 438 q 338 411 303 425 q 403 384 379 394 q 462 352 426 374 q 516 309 497 331 q 549 253 535 288 q 564 178 564 219 q 505 41 564 93 q 344 -15 446 -11 l 308 -76 q 419 -110 383 -76 q 454 -189 454 -143 q 410 -287 454 -249 q 297 -325 365 -325 z "},"Š":{"ha":825,"x_min":90,"x_max":721,"o":"m 446 1063 l 363 1063 l 153 1279 l 243 1279 l 404 1139 l 565 1279 l 656 1279 l 446 1063 m 414 -17 q 208 40 296 -17 q 90 181 121 97 l 182 214 q 274 110 213 149 q 415 71 335 71 q 566 117 511 71 q 621 250 621 164 q 561 385 621 332 q 401 476 501 439 q 298 521 342 499 q 209 577 254 543 q 140 658 164 611 q 117 763 117 706 q 194 924 117 858 q 403 989 272 989 q 581 946 508 989 q 674 835 653 903 l 583 804 q 516 874 564 846 q 399 901 468 901 q 265 864 314 901 q 217 764 217 826 q 234 697 217 726 q 287 644 251 668 q 355 606 322 621 q 440 569 388 590 q 541 523 497 547 q 628 461 585 499 q 697 371 672 424 q 721 253 721 318 q 636 55 721 126 q 414 -17 551 -17 z "},"š":{"ha":643,"x_min":63,"x_max":565,"o":"m 356 800 l 272 800 l 63 1017 l 153 1017 l 314 876 l 475 1017 l 565 1017 l 356 800 m 325 -17 q 81 107 185 -17 l 149 167 q 333 69 231 69 q 433 97 394 69 q 472 172 472 124 q 458 227 472 203 q 415 272 444 251 q 361 303 385 292 q 296 331 338 314 q 214 368 246 351 q 149 410 182 385 q 99 469 115 435 q 83 546 83 503 q 147 676 83 626 q 313 726 211 726 q 543 618 453 726 l 479 564 q 310 640 403 640 q 212 615 249 640 q 175 547 175 590 q 185 508 175 526 q 207 478 194 490 q 246 452 219 467 q 288 431 272 438 q 338 411 303 425 q 403 384 379 394 q 462 352 426 374 q 516 309 497 331 q 549 253 535 288 q 564 178 564 219 q 499 36 564 89 q 325 -17 435 -17 z "},"Ţ":{"ha":799,"x_min":83,"x_max":715,"o":"m 369 -325 q 247 -286 293 -325 l 311 -244 q 361 -258 322 -258 q 413 -237 390 -258 q 435 -187 435 -217 q 408 -141 435 -161 q 350 -121 382 -121 q 300 -128 315 -121 l 283 -107 l 369 0 l 350 0 l 350 882 l 83 882 l 83 972 l 715 972 l 715 882 l 447 882 l 447 0 l 428 0 l 381 -76 q 491 -110 456 -76 q 526 -189 526 -143 q 482 -287 526 -249 q 369 -325 438 -325 z "},"ţ":{"ha":513,"x_min":42,"x_max":443,"o":"m 240 -325 q 118 -286 164 -325 l 182 -244 q 232 -258 193 -258 q 283 -237 261 -258 q 306 -187 306 -217 q 279 -141 306 -161 q 221 -121 253 -121 q 171 -128 186 -121 l 154 -107 l 235 -3 q 163 146 163 32 l 163 622 l 42 622 l 42 710 l 163 710 l 163 954 l 260 1003 l 260 710 l 440 710 l 440 622 l 260 622 l 260 188 q 275 104 260 133 q 336 75 290 75 q 443 117 382 75 l 432 15 q 303 -17 372 -17 q 288 -15 292 -17 l 251 -76 q 362 -110 326 -76 q 397 -189 397 -143 q 353 -287 397 -249 q 240 -325 308 -325 z "},"Ť":{"ha":799,"x_min":83,"x_max":715,"o":"m 442 1063 l 358 1063 l 149 1279 l 239 1279 l 400 1139 l 561 1279 l 651 1279 l 442 1063 m 447 879 l 447 0 l 350 0 l 350 879 l 83 879 l 83 972 l 715 972 l 715 879 l 447 879 z "},"ť":{"ha":540,"x_min":42,"x_max":522,"o":"m 522 1167 l 522 1156 q 411 850 522 960 l 383 869 q 413 997 401 908 q 425 1167 425 1086 l 522 1167 m 303 -17 q 163 146 163 -17 l 163 622 l 42 622 l 42 710 l 163 710 l 163 954 l 260 1003 l 260 710 l 440 710 l 440 622 l 260 622 l 260 188 q 275 104 260 133 q 336 75 290 75 q 443 117 382 75 l 432 15 q 303 -17 372 -17 z "},"Ŧ":{"ha":799,"x_min":83,"x_max":715,"o":"m 715 879 l 447 879 l 447 486 l 625 486 l 625 393 l 447 393 l 447 0 l 350 0 l 350 393 l 171 393 l 171 486 l 350 486 l 350 879 l 83 879 l 83 972 l 715 972 l 715 879 z "},"ŧ":{"ha":554,"x_min":69,"x_max":471,"o":"m 331 -17 q 190 146 190 -17 l 190 331 l 69 331 l 69 418 l 190 418 l 190 622 l 69 622 l 69 710 l 190 710 l 190 954 l 288 1003 l 288 710 l 468 710 l 468 622 l 288 622 l 288 418 l 468 418 l 468 331 l 288 331 l 288 188 q 303 104 288 133 q 364 75 318 75 q 471 117 410 75 l 460 15 q 331 -17 400 -17 z "},"Ũ":{"ha":944,"x_min":139,"x_max":806,"o":"m 581 1099 q 455 1133 528 1099 q 351 1168 382 1168 q 306 1151 325 1168 q 286 1104 288 1135 l 232 1104 q 361 1257 232 1257 q 487 1222 414 1257 q 590 1186 560 1186 q 635 1203 617 1186 q 656 1251 654 1221 l 708 1251 q 581 1099 708 1099 m 806 361 q 472 -17 806 -17 q 139 361 139 -17 l 139 972 l 236 972 l 236 361 q 472 71 236 71 q 708 361 708 71 l 708 972 l 806 972 l 806 361 z "},"ũ":{"ha":778,"x_min":118,"x_max":653,"o":"m 496 836 q 370 871 443 836 q 267 906 297 906 q 222 889 240 906 q 201 842 203 872 l 147 842 q 276 994 147 994 q 402 959 329 994 q 506 924 475 924 q 551 941 532 924 q 571 989 569 958 l 624 989 q 496 836 624 836 m 556 0 l 556 68 q 478 2 519 21 q 379 -17 438 -17 q 180 61 242 -17 q 118 314 118 139 l 118 710 l 215 710 l 215 276 q 260 121 215 171 q 379 71 304 71 q 556 274 556 71 l 556 710 l 653 710 l 653 0 l 556 0 z "},"Ū":{"ha":944,"x_min":139,"x_max":806,"o":"m 240 1108 l 240 1193 l 699 1193 l 699 1108 l 240 1108 m 806 361 q 472 -17 806 -17 q 139 361 139 -17 l 139 972 l 236 972 l 236 361 q 472 71 236 71 q 708 361 708 71 l 708 972 l 806 972 l 806 361 z "},"ū":{"ha":778,"x_min":118,"x_max":653,"o":"m 156 846 l 156 931 l 614 931 l 614 846 l 156 846 m 556 0 l 556 68 q 478 2 519 21 q 379 -17 438 -17 q 180 61 242 -17 q 118 314 118 139 l 118 710 l 215 710 l 215 276 q 260 121 215 171 q 379 71 304 71 q 556 274 556 71 l 556 710 l 653 710 l 653 0 l 556 0 z "},"Ŭ":{"ha":944,"x_min":139,"x_max":806,"o":"m 657 1132 q 626 1101 657 1132 q 471 1069 594 1069 q 285 1132 347 1069 q 222 1293 222 1194 l 317 1293 q 360 1192 317 1229 q 471 1156 404 1156 q 581 1192 538 1156 q 625 1293 625 1229 l 719 1293 q 657 1132 719 1194 m 806 361 q 472 -17 806 -17 q 139 361 139 -17 l 139 972 l 236 972 l 236 361 q 472 71 236 71 q 708 361 708 71 l 708 972 l 806 972 l 806 361 z "},"ŭ":{"ha":778,"x_min":118,"x_max":653,"o":"m 571 869 q 540 838 571 869 q 385 807 508 807 q 199 869 261 807 q 136 1031 136 932 l 231 1031 q 274 930 231 967 q 385 893 318 893 q 495 930 451 893 q 539 1031 539 967 l 633 1031 q 571 869 633 932 m 556 0 l 556 68 q 478 2 519 21 q 379 -17 438 -17 q 180 61 242 -17 q 118 314 118 139 l 118 710 l 215 710 l 215 276 q 260 121 215 171 q 379 71 304 71 q 556 274 556 71 l 556 710 l 653 710 l 653 0 l 556 0 z "},"Ů":{"ha":944,"x_min":139,"x_max":806,"o":"m 585 1060 q 561 1036 585 1060 q 472 1013 538 1013 q 360 1060 407 1013 q 313 1171 313 1107 q 360 1280 313 1235 q 472 1325 407 1325 q 585 1280 538 1325 q 632 1171 632 1235 q 585 1060 632 1107 m 472 1085 q 528 1109 506 1085 q 550 1171 550 1133 q 528 1231 550 1208 q 472 1253 506 1253 q 417 1230 440 1253 q 394 1171 394 1207 q 417 1109 394 1133 q 472 1085 440 1085 m 806 361 q 472 -17 806 -17 q 139 361 139 -17 l 139 972 l 236 972 l 236 361 q 472 71 236 71 q 708 361 708 71 l 708 972 l 806 972 l 806 361 z "},"ů":{"ha":778,"x_min":118,"x_max":653,"o":"m 497 797 q 474 774 497 797 q 385 750 450 750 q 272 797 319 750 q 225 908 225 844 q 272 1017 225 972 q 385 1063 319 1063 q 497 1017 450 1063 q 544 908 544 972 q 497 797 544 844 m 385 822 q 440 847 418 822 q 463 908 463 871 q 440 968 463 946 q 385 990 418 990 q 330 967 353 990 q 307 908 307 944 q 330 847 307 871 q 385 822 353 822 m 556 0 l 556 68 q 478 2 519 21 q 379 -17 438 -17 q 180 61 242 -17 q 118 314 118 139 l 118 710 l 215 710 l 215 276 q 260 121 215 171 q 379 71 304 71 q 556 274 556 71 l 556 710 l 653 710 l 653 0 l 556 0 z "},"Ű":{"ha":944,"x_min":139,"x_max":871,"o":"m 349 1063 l 250 1063 l 447 1279 l 596 1279 l 349 1063 m 624 1063 l 525 1063 l 722 1279 l 871 1279 l 624 1063 m 806 361 q 472 -17 806 -17 q 139 361 139 -17 l 139 972 l 236 972 l 236 361 q 472 71 236 71 q 708 361 708 71 l 708 972 l 806 972 l 806 361 z "},"ű":{"ha":778,"x_min":118,"x_max":774,"o":"m 251 800 l 153 800 l 350 1017 l 499 1017 l 251 800 m 526 800 l 428 800 l 625 1017 l 774 1017 l 526 800 m 556 0 l 556 68 q 478 2 519 21 q 379 -17 438 -17 q 180 61 242 -17 q 118 314 118 139 l 118 710 l 215 710 l 215 276 q 260 121 215 171 q 379 71 304 71 q 556 274 556 71 l 556 710 l 653 710 l 653 0 l 556 0 z "},"Ų":{"ha":944,"x_min":139,"x_max":806,"o":"m 508 -325 q 401 -290 444 -325 q 357 -189 357 -254 q 476 -17 357 -83 l 465 -17 q 222 76 304 -14 q 139 361 139 167 l 139 972 l 236 972 l 236 361 q 300 136 236 201 q 476 71 364 71 q 708 361 708 71 l 708 972 l 806 972 l 806 361 q 760 128 806 210 q 628 8 714 47 q 486 -77 531 -36 q 442 -176 442 -118 q 464 -236 442 -217 q 517 -256 486 -256 q 593 -224 558 -256 l 647 -264 q 508 -325 592 -325 z "},"ų":{"ha":778,"x_min":118,"x_max":685,"o":"m 546 -325 q 438 -290 482 -325 q 394 -189 394 -254 q 556 0 394 -62 l 556 68 q 478 2 519 21 q 379 -17 438 -17 q 180 61 242 -17 q 118 314 118 139 l 118 710 l 215 710 l 215 276 q 260 121 215 171 q 379 71 304 71 q 556 274 556 71 l 556 710 l 653 710 l 653 0 q 522 -74 565 -26 q 479 -176 479 -121 q 501 -236 479 -217 q 554 -256 524 -256 q 631 -224 596 -256 l 685 -264 q 546 -325 629 -325 z "},"Ŵ":{"ha":1149,"x_min":76,"x_max":1072,"o":"m 736 1063 l 575 1203 l 414 1063 l 324 1063 l 533 1279 l 617 1279 l 826 1063 l 736 1063 m 264 0 l 76 972 l 179 972 l 297 304 l 314 207 q 340 301 318 224 l 532 972 l 604 972 l 793 301 q 814 224 807 251 l 831 306 l 971 972 l 1072 972 l 861 0 l 800 0 l 592 697 q 567 783 575 753 q 542 697 558 753 l 331 0 l 264 0 z "},"ŵ":{"ha":978,"x_min":56,"x_max":922,"o":"m 650 800 l 489 940 l 328 800 l 238 800 l 447 1017 l 531 1017 l 740 800 l 650 800 m 231 0 l 56 710 l 153 710 l 269 199 l 286 121 q 297 163 290 136 q 307 199 304 190 l 456 710 l 522 710 l 671 199 q 683 154 675 183 q 694 114 692 125 q 703 158 697 129 q 713 199 710 186 l 825 710 l 922 710 l 747 0 l 660 0 l 518 429 q 506 468 517 433 q 488 525 494 503 q 458 431 481 504 l 319 0 l 231 0 z "},"Ŷ":{"ha":856,"x_min":63,"x_max":793,"o":"m 589 1063 l 428 1203 l 267 1063 l 176 1063 l 386 1279 l 469 1279 l 679 1063 l 589 1063 m 381 0 l 381 382 l 63 972 l 169 972 l 428 472 l 693 972 l 793 972 l 478 386 l 478 0 l 381 0 z "},"ŷ":{"ha":724,"x_min":56,"x_max":668,"o":"m 518 800 l 357 940 l 196 800 l 106 800 l 315 1017 l 399 1017 l 608 800 l 518 800 m 210 -269 l 315 22 l 56 710 l 154 710 l 333 206 q 346 167 338 192 q 357 133 354 142 l 382 206 l 564 710 l 668 710 l 306 -269 l 210 -269 z "},"Ÿ":{"ha":856,"x_min":63,"x_max":793,"o":"m 313 1104 q 267 1123 286 1104 q 247 1169 247 1142 q 266 1216 247 1197 q 313 1235 285 1235 q 359 1216 340 1235 q 378 1169 378 1197 q 359 1123 378 1142 q 313 1104 340 1104 m 543 1104 q 497 1123 517 1104 q 478 1169 478 1142 q 497 1216 478 1197 q 543 1235 515 1235 q 590 1216 571 1235 q 608 1169 608 1197 q 590 1123 608 1142 q 543 1104 571 1104 m 381 0 l 381 382 l 63 972 l 169 972 l 428 472 l 693 972 l 793 972 l 478 386 l 478 0 l 381 0 z "},"Ź":{"ha":885,"x_min":97,"x_max":788,"o":"m 346 1063 l 543 1279 l 692 1279 l 444 1063 l 346 1063 m 97 0 l 97 68 l 664 881 l 129 881 l 129 972 l 788 972 l 788 901 l 228 92 l 788 92 l 788 0 l 97 0 z "},"ź":{"ha":693,"x_min":97,"x_max":589,"o":"m 235 800 l 432 1017 l 581 1017 l 333 800 l 235 800 m 97 0 l 97 60 l 460 622 l 125 622 l 125 710 l 589 710 l 589 651 l 224 88 l 588 88 l 588 0 l 97 0 z "},"Ż":{"ha":885,"x_min":97,"x_max":788,"o":"m 457 1104 q 411 1123 431 1104 q 392 1169 392 1142 q 410 1216 392 1197 q 457 1235 429 1235 q 503 1216 485 1235 q 522 1169 522 1197 q 503 1123 522 1142 q 457 1104 485 1104 m 97 0 l 97 68 l 664 881 l 129 881 l 129 972 l 788 972 l 788 901 l 228 92 l 788 92 l 788 0 l 97 0 z "},"ż":{"ha":693,"x_min":97,"x_max":589,"o":"m 408 860 q 398 851 408 860 q 361 842 389 842 q 315 861 333 842 q 296 907 296 881 q 315 953 296 935 q 361 972 333 972 q 408 953 389 972 q 426 907 426 935 q 408 860 426 879 m 97 0 l 97 60 l 460 622 l 125 622 l 125 710 l 589 710 l 589 651 l 224 88 l 588 88 l 588 0 l 97 0 z "},"Ž":{"ha":885,"x_min":97,"x_max":788,"o":"m 514 1063 l 431 1063 l 221 1279 l 311 1279 l 472 1139 l 633 1279 l 724 1279 l 514 1063 m 97 0 l 97 68 l 664 881 l 129 881 l 129 972 l 788 972 l 788 901 l 228 92 l 788 92 l 788 0 l 97 0 z "},"ž":{"ha":693,"x_min":97,"x_max":613,"o":"m 403 800 l 319 800 l 110 1017 l 200 1017 l 361 876 l 522 1017 l 613 1017 l 403 800 m 97 0 l 97 60 l 460 622 l 125 622 l 125 710 l 589 710 l 589 651 l 224 88 l 588 88 l 588 0 l 97 0 z "},"ſ":{"ha":428,"x_min":132,"x_max":400,"o":"m 132 0 l 132 831 q 174 951 132 913 q 279 989 217 989 q 400 956 342 989 l 400 871 q 299 899 351 899 q 242 878 256 899 q 229 815 229 857 l 229 0 l 132 0 z "},"ƒ":{"ha":511,"x_min":25,"x_max":463,"o":"m 69 -296 l 25 -219 q 194 -83 194 -204 l 194 622 l 81 622 l 81 710 l 194 710 l 194 831 q 237 950 194 911 q 342 989 279 989 q 463 956 404 989 l 463 871 q 361 899 410 899 q 304 877 317 899 q 292 815 292 856 l 292 710 l 463 710 l 463 622 l 292 622 l 292 -44 q 69 -296 292 -282 z "},"Ǎ":{"ha":919,"x_min":83,"x_max":836,"o":"m 501 1063 l 418 1063 l 208 1279 l 299 1279 l 460 1139 l 621 1279 l 711 1279 l 501 1063 m 738 0 l 649 251 l 269 251 l 185 0 l 83 0 l 421 972 l 496 972 l 836 0 l 738 0 m 619 338 l 486 726 q 458 814 464 789 l 447 778 q 432 726 438 740 l 299 338 l 619 338 z "},"ǎ":{"ha":721,"x_min":83,"x_max":640,"o":"m 431 800 l 347 800 l 138 1017 l 228 1017 l 389 876 l 550 1017 l 640 1017 l 431 800 m 533 0 l 533 69 q 325 -17 438 -17 q 149 45 214 -17 q 83 224 83 107 q 158 399 83 339 q 342 458 232 458 q 533 408 440 458 l 533 468 q 378 642 533 642 q 167 565 278 642 l 139 649 q 388 726 261 726 q 468 716 431 726 q 542 680 506 706 q 601 603 579 654 q 624 481 624 553 l 624 0 l 533 0 m 335 68 q 533 178 444 68 l 533 315 q 351 374 446 374 q 224 335 275 374 q 174 224 174 297 q 216 110 174 153 q 335 68 258 68 z "},"Ǐ":{"ha":389,"x_min":-57,"x_max":446,"o":"m 236 1063 l 153 1063 l -57 1279 l 33 1279 l 194 1139 l 356 1279 l 446 1279 l 236 1063 m 146 0 l 146 972 l 243 972 l 243 0 l 146 0 z "},"ǐ":{"ha":350,"x_min":-76,"x_max":426,"o":"m 217 800 l 133 800 l -76 1017 l 14 1017 l 175 876 l 336 1017 l 426 1017 l 217 800 m 126 0 l 126 710 l 224 710 l 224 0 l 126 0 z "},"Ǒ":{"ha":1000,"x_min":97,"x_max":903,"o":"m 542 1063 l 458 1063 l 249 1279 l 339 1279 l 500 1139 l 661 1279 l 751 1279 l 542 1063 m 689 27 q 649 5 689 27 q 500 -17 608 -17 q 311 27 392 -17 q 185 145 231 71 q 119 305 140 219 q 97 486 97 390 q 119 667 97 582 q 185 827 140 753 q 311 945 231 901 q 500 989 392 989 q 689 945 608 989 q 815 827 769 901 q 881 667 860 753 q 903 486 903 582 q 881 305 903 390 q 815 145 860 219 q 689 27 769 71 m 500 71 q 641 108 581 71 q 735 206 701 144 q 785 339 769 268 q 801 486 801 410 q 774 688 801 599 q 677 840 747 778 q 500 901 607 901 q 359 865 419 901 q 265 766 299 828 q 215 633 231 704 q 199 486 199 563 q 226 284 199 374 q 323 133 253 194 q 500 71 393 71 z "},"ǒ":{"ha":761,"x_min":76,"x_max":685,"o":"m 422 800 l 339 800 l 129 1017 l 219 1017 l 381 876 l 542 1017 l 632 1017 l 422 800 m 381 -17 q 159 81 242 -17 q 76 354 76 179 q 160 627 76 528 q 381 726 243 726 q 602 628 519 726 q 685 356 685 531 q 601 83 685 182 q 381 -17 518 -17 m 381 71 q 530 147 476 71 q 583 356 583 222 q 531 564 583 489 q 381 639 479 639 q 230 566 282 639 q 178 354 178 493 q 230 146 178 221 q 381 71 282 71 z "},"Ǔ":{"ha":944,"x_min":139,"x_max":806,"o":"m 514 1063 l 431 1063 l 221 1279 l 311 1279 l 472 1139 l 633 1279 l 724 1279 l 514 1063 m 806 361 q 472 -17 806 -17 q 139 361 139 -17 l 139 972 l 236 972 l 236 361 q 472 71 236 71 q 708 361 708 71 l 708 972 l 806 972 l 806 361 z "},"ǔ":{"ha":778,"x_min":118,"x_max":653,"o":"m 421 800 l 338 800 l 128 1017 l 218 1017 l 379 876 l 540 1017 l 631 1017 l 421 800 m 556 0 l 556 68 q 478 2 519 21 q 379 -17 438 -17 q 180 61 242 -17 q 118 314 118 139 l 118 710 l 215 710 l 215 276 q 260 121 215 171 q 379 71 304 71 q 556 274 556 71 l 556 710 l 653 710 l 653 0 l 556 0 z "},"Ǽ":{"ha":1193,"x_min":-22,"x_max":1096,"o":"m 546 1063 l 743 1279 l 892 1279 l 644 1063 l 546 1063 m -22 0 l 543 972 l 1065 972 l 1065 879 l 688 879 l 688 549 l 944 549 l 944 457 l 688 457 l 688 93 l 1096 93 l 1096 0 l 590 0 l 590 251 l 231 251 l 88 0 l -22 0 m 279 338 l 590 338 l 590 892 q 547 813 582 875 l 279 338 z "},"ǽ":{"ha":1189,"x_min":83,"x_max":1119,"o":"m 485 800 l 682 1017 l 831 1017 l 583 800 l 485 800 m 325 -17 q 149 45 214 -17 q 83 224 83 107 q 157 399 83 339 q 342 458 231 458 q 533 408 440 458 l 533 468 q 378 642 533 642 q 167 565 278 642 l 139 649 q 388 726 261 726 q 599 607 547 726 q 838 726 685 726 q 1042 637 965 726 q 1119 383 1119 547 q 1117 315 1119 346 l 633 315 q 702 137 647 200 q 842 74 757 74 q 1003 129 928 74 l 1056 64 q 838 -17 956 -17 q 688 26 753 -17 q 586 135 622 69 q 466 22 539 60 q 325 -17 393 -17 m 631 403 l 1021 403 q 1003 520 1021 471 q 957 594 986 569 q 899 628 928 618 q 839 639 869 639 q 693 579 750 639 q 631 403 636 519 m 335 68 q 460 109 400 68 q 554 208 519 150 q 533 315 538 256 q 351 374 442 374 q 224 335 275 374 q 174 224 174 297 q 216 110 174 153 q 335 68 258 68 z "},"Ǿ":{"ha":1000,"x_min":97,"x_max":903,"o":"m 361 1063 l 558 1279 l 707 1279 l 460 1063 l 361 1063 m 114 -17 l 204 119 q 97 486 97 256 q 119 667 97 582 q 185 827 140 753 q 311 945 231 901 q 500 989 392 989 q 733 914 638 989 l 783 989 l 886 989 l 796 853 q 903 486 903 717 q 881 305 903 390 q 815 145 860 219 q 689 27 769 71 q 500 -17 608 -17 q 264 58 361 -17 l 214 -17 l 114 -17 m 261 206 l 682 836 q 500 901 608 901 q 359 865 419 901 q 265 766 299 828 q 215 633 231 704 q 199 486 199 563 q 261 206 199 313 m 500 71 q 641 108 581 71 q 735 206 701 144 q 785 339 769 268 q 801 486 801 410 q 738 767 801 660 l 317 136 q 500 71 389 71 z "},"ǿ":{"ha":761,"x_min":76,"x_max":685,"o":"m 588 1017 l 340 800 l 242 800 l 439 1017 l 588 1017 m 608 619 q 685 356 685 521 q 601 83 685 182 q 381 -17 518 -17 q 204 38 281 -17 l 167 -17 l 76 -17 l 151 92 q 76 354 76 190 q 160 627 76 528 q 381 726 243 726 q 554 674 482 726 l 592 726 l 683 726 l 608 619 m 178 354 q 211 178 178 247 l 501 597 q 381 639 451 639 q 230 566 282 639 q 178 354 178 493 m 381 71 q 530 147 476 71 q 583 356 583 222 q 549 533 583 465 l 258 114 q 381 71 308 71 z "},"Ș":{"ha":825,"x_min":90,"x_max":721,"o":"m 414 -17 q 208 40 296 -17 q 90 181 121 97 l 182 214 q 274 110 213 149 q 415 71 335 71 q 566 117 511 71 q 621 250 621 164 q 561 385 621 332 q 401 476 501 439 q 298 521 342 499 q 209 577 254 543 q 140 658 164 611 q 117 763 117 706 q 194 924 117 858 q 403 989 272 989 q 581 946 508 989 q 674 835 653 903 l 583 804 q 516 874 564 846 q 399 901 468 901 q 265 864 314 901 q 217 764 217 826 q 234 697 217 726 q 287 644 251 668 q 355 606 322 621 q 440 569 388 590 q 541 523 497 547 q 628 461 585 499 q 697 371 672 424 q 721 253 721 318 q 636 55 721 126 q 414 -17 551 -17 m 361 -332 q 415 -229 408 -294 q 359 -208 378 -229 q 340 -154 340 -186 q 363 -101 340 -122 q 413 -81 385 -81 q 465 -103 442 -81 q 488 -162 488 -126 q 386 -339 488 -278 l 361 -332 z "},"ș":{"ha":643,"x_min":81,"x_max":564,"o":"m 325 -17 q 81 107 185 -17 l 149 167 q 333 69 231 69 q 433 97 394 69 q 472 172 472 124 q 458 227 472 203 q 415 272 444 251 q 361 303 385 292 q 296 331 338 314 q 214 368 246 351 q 149 410 182 385 q 99 469 115 435 q 83 546 83 503 q 147 676 83 626 q 313 726 211 726 q 543 618 453 726 l 479 564 q 310 640 403 640 q 212 615 249 640 q 175 547 175 590 q 185 508 175 526 q 207 478 194 490 q 246 452 219 467 q 288 431 272 438 q 338 411 303 425 q 403 384 379 394 q 462 352 426 374 q 516 309 497 331 q 549 253 535 288 q 564 178 564 219 q 499 36 564 89 q 325 -17 435 -17 m 272 -332 q 326 -229 319 -294 q 270 -208 289 -229 q 251 -154 251 -186 q 274 -101 251 -122 q 324 -81 296 -81 q 376 -103 353 -81 q 399 -162 399 -126 q 297 -339 399 -278 l 272 -332 z "},"Ț":{"ha":799,"x_min":83,"x_max":715,"o":"m 447 879 l 447 0 l 350 0 l 350 879 l 83 879 l 83 972 l 715 972 l 715 879 l 447 879 m 349 -332 q 403 -229 396 -294 q 347 -208 365 -229 q 328 -154 328 -186 q 350 -101 328 -122 q 400 -81 372 -81 q 452 -103 429 -81 q 475 -162 475 -126 q 374 -339 475 -278 l 349 -332 z "},"ț":{"ha":513,"x_min":42,"x_max":443,"o":"m 303 -17 q 163 146 163 -17 l 163 622 l 42 622 l 42 710 l 163 710 l 163 954 l 260 1003 l 260 710 l 440 710 l 440 622 l 260 622 l 260 188 q 275 104 260 133 q 336 75 290 75 q 443 117 382 75 l 432 15 q 303 -17 372 -17 m 247 -332 q 301 -229 294 -294 q 245 -208 264 -229 q 226 -154 226 -186 q 249 -101 226 -122 q 299 -81 271 -81 q 351 -103 328 -81 q 374 -162 374 -126 q 272 -339 374 -278 l 247 -332 z "},"ȷ":{"ha":350,"x_min":-42,"x_max":225,"o":"m 3 -296 l -42 -219 q 128 -83 128 -204 l 128 710 l 225 710 l 225 -44 q 186 -203 225 -142 q 3 -296 129 -289 z "},"ˆ":{"ha":465,"x_min":-17,"x_max":486,"o":"m 396 800 l 235 940 l 74 800 l -17 800 l 193 1017 l 276 1017 l 486 800 l 396 800 z "},"ˇ":{"ha":465,"x_min":-17,"x_max":486,"o":"m 276 800 l 193 800 l -17 1017 l 74 1017 l 235 876 l 396 1017 l 486 1017 l 276 800 z "},"ˉ":{"ha":465,"x_min":3,"x_max":461,"o":"m 3 846 l 3 931 l 461 931 l 461 846 l 3 846 z "},"˘":{"ha":465,"x_min":-15,"x_max":482,"o":"m 419 869 q 388 838 419 869 q 233 807 357 807 q 47 869 110 807 q -15 1031 -15 932 l 79 1031 q 123 930 79 967 q 233 893 167 893 q 344 930 300 893 q 388 1031 388 967 l 482 1031 q 419 869 482 932 z "},"˙":{"ha":465,"x_min":167,"x_max":297,"o":"m 232 842 q 186 861 206 842 q 167 907 167 881 q 185 953 167 935 q 232 972 204 972 q 278 953 260 972 q 297 907 297 935 q 278 860 297 879 q 232 842 260 842 z "},"˚":{"ha":465,"x_min":75,"x_max":394,"o":"m 347 797 q 324 774 347 797 q 235 750 300 750 q 122 797 169 750 q 75 908 75 844 q 122 1017 75 972 q 235 1063 169 1063 q 347 1017 300 1063 q 394 908 394 972 q 347 797 394 844 m 235 822 q 290 847 268 822 q 313 908 313 871 q 290 968 313 946 q 235 990 268 990 q 180 967 203 990 q 157 908 157 944 q 180 847 157 871 q 235 822 203 822 z "},"˛":{"ha":465,"x_min":88,"x_max":378,"o":"m 239 -325 q 131 -290 175 -325 q 88 -189 88 -254 q 138 -68 88 -121 q 278 14 188 -15 l 356 14 q 218 -73 264 -24 q 172 -176 172 -122 q 194 -236 172 -217 q 247 -256 217 -256 q 324 -224 289 -256 l 378 -264 q 239 -325 322 -325 z "},"˜":{"ha":465,"x_min":-6,"x_max":471,"o":"m 343 836 q 217 871 290 836 q 114 906 144 906 q 69 889 88 906 q 49 842 50 872 l -6 842 q 124 994 -6 994 q 249 959 176 994 q 353 924 322 924 q 398 941 379 924 q 418 989 417 958 l 471 989 q 343 836 471 836 z "},"˝":{"ha":465,"x_min":96,"x_max":717,"o":"m 194 800 l 96 800 l 293 1017 l 442 1017 l 194 800 m 469 800 l 371 800 l 568 1017 l 717 1017 l 469 800 z "},"̒":{"ha":0,"x_min":-306,"x_max":-158,"o":"m -231 838 q -283 860 -260 838 q -306 919 -306 883 q -204 1096 -306 1035 l -179 1089 q -233 986 -226 1051 q -177 965 -196 986 q -158 911 -158 943 q -181 858 -158 879 q -231 838 -203 838 z "},"̦":{"ha":0,"x_min":-301,"x_max":-154,"o":"m -281 -332 q -226 -229 -233 -294 q -283 -208 -264 -229 q -301 -154 -301 -186 q -279 -101 -301 -122 q -229 -81 -257 -81 q -177 -103 -200 -81 q -154 -162 -154 -126 q -256 -339 -154 -278 l -281 -332 z "},"Ω":{"ha":1025,"x_min":118,"x_max":907,"o":"m 608 0 l 608 99 q 749 303 707 208 q 792 540 792 397 q 776 671 792 610 q 730 785 761 732 q 642 870 699 839 q 511 901 586 901 q 348 846 414 901 q 256 712 282 790 q 231 539 231 633 q 273 303 231 397 q 415 99 315 208 l 415 0 l 118 0 l 118 88 l 353 88 q 129 542 129 229 q 150 700 129 624 q 214 843 171 776 q 333 949 257 910 q 511 989 410 989 q 690 949 613 989 q 810 843 767 910 q 873 701 853 776 q 893 542 893 625 q 669 88 893 231 l 907 88 l 907 0 l 608 0 z "},"μ":{"ha":785,"x_min":125,"x_max":660,"o":"m 563 0 l 563 71 q 368 -17 476 -17 q 283 1 317 -17 q 222 68 250 19 l 222 -231 l 125 -278 l 125 710 l 222 710 l 222 276 q 262 113 222 154 q 388 71 301 71 q 563 274 563 71 l 563 710 l 660 710 l 660 0 l 563 0 z "},"π":{"ha":943,"x_min":79,"x_max":854,"o":"m 843 15 q 713 -17 783 -17 q 607 28 642 -17 q 572 146 572 72 l 572 606 l 340 606 l 340 518 q 304 163 340 296 q 164 -28 268 29 l 79 38 q 143 85 118 60 q 194 156 168 110 q 234 277 221 201 q 247 458 247 353 l 247 606 l 108 606 l 108 710 l 851 710 l 851 606 l 671 606 l 671 190 q 685 104 671 133 q 747 75 699 75 q 854 117 799 75 l 843 15 z "},"Ẁ":{"ha":1149,"x_min":76,"x_max":1072,"o":"m 617 1063 l 369 1279 l 518 1279 l 715 1063 l 617 1063 m 264 0 l 76 972 l 179 972 l 297 304 l 314 207 q 340 301 318 224 l 532 972 l 604 972 l 793 301 q 814 224 807 251 l 831 306 l 971 972 l 1072 972 l 861 0 l 800 0 l 592 697 q 567 783 575 753 q 542 697 558 753 l 331 0 l 264 0 z "},"ẁ":{"ha":978,"x_min":56,"x_max":922,"o":"m 531 800 l 283 1017 l 432 1017 l 629 800 l 531 800 m 231 0 l 56 710 l 153 710 l 269 199 l 286 121 q 297 163 290 136 q 307 199 304 190 l 456 710 l 522 710 l 671 199 q 683 154 675 183 q 694 114 692 125 q 703 158 697 129 q 713 199 710 186 l 825 710 l 922 710 l 747 0 l 660 0 l 518 429 q 506 468 517 433 q 488 525 494 503 q 458 431 481 504 l 319 0 l 231 0 z "},"Ẃ":{"ha":1149,"x_min":76,"x_max":1072,"o":"m 435 1063 l 632 1279 l 781 1279 l 533 1063 l 435 1063 m 264 0 l 76 972 l 179 972 l 297 304 l 314 207 q 340 301 318 224 l 532 972 l 604 972 l 793 301 q 814 224 807 251 l 831 306 l 971 972 l 1072 972 l 861 0 l 800 0 l 592 697 q 567 783 575 753 q 542 697 558 753 l 331 0 l 264 0 z "},"ẃ":{"ha":978,"x_min":56,"x_max":922,"o":"m 349 800 l 546 1017 l 694 1017 l 447 800 l 349 800 m 231 0 l 56 710 l 153 710 l 269 199 l 286 121 q 297 163 290 136 q 307 199 304 190 l 456 710 l 522 710 l 671 199 q 683 154 675 183 q 694 114 692 125 q 703 158 697 129 q 713 199 710 186 l 825 710 l 922 710 l 747 0 l 660 0 l 518 429 q 506 468 517 433 q 488 525 494 503 q 458 431 481 504 l 319 0 l 231 0 z "},"Ẅ":{"ha":1149,"x_min":76,"x_max":1072,"o":"m 460 1104 q 414 1123 433 1104 q 394 1169 394 1142 q 413 1216 394 1197 q 460 1235 432 1235 q 506 1216 488 1235 q 525 1169 525 1197 q 506 1123 525 1142 q 460 1104 488 1104 m 690 1104 q 644 1123 664 1104 q 625 1169 625 1142 q 644 1216 625 1197 q 690 1235 663 1235 q 737 1216 718 1235 q 756 1169 756 1197 q 737 1123 756 1142 q 690 1104 718 1104 m 264 0 l 76 972 l 179 972 l 297 304 l 314 207 q 340 301 318 224 l 532 972 l 604 972 l 793 301 q 814 224 807 251 l 831 306 l 971 972 l 1072 972 l 861 0 l 800 0 l 592 697 q 567 783 575 753 q 542 697 558 753 l 331 0 l 264 0 z "},"ẅ":{"ha":978,"x_min":56,"x_max":922,"o":"m 374 842 q 328 861 347 842 q 308 907 308 881 q 327 953 308 935 q 374 972 346 972 q 420 953 401 972 q 439 907 439 935 q 420 860 439 879 q 374 842 401 842 m 604 842 q 558 861 578 842 q 539 907 539 881 q 558 953 539 935 q 604 972 576 972 q 651 953 632 972 q 669 907 669 935 q 651 860 669 879 q 604 842 632 842 m 231 0 l 56 710 l 153 710 l 269 199 l 286 121 q 297 163 290 136 q 307 199 304 190 l 456 710 l 522 710 l 671 199 q 683 154 675 183 q 694 114 692 125 q 703 158 697 129 q 713 199 710 186 l 825 710 l 922 710 l 747 0 l 660 0 l 518 429 q 506 468 517 433 q 488 525 494 503 q 458 431 481 504 l 319 0 l 231 0 z "},"Ỳ":{"ha":856,"x_min":63,"x_max":793,"o":"m 429 1063 l 182 1279 l 331 1279 l 528 1063 l 429 1063 m 381 0 l 381 382 l 63 972 l 169 972 l 428 472 l 693 972 l 793 972 l 478 386 l 478 0 l 381 0 z "},"ỳ":{"ha":724,"x_min":56,"x_max":668,"o":"m 399 800 l 151 1017 l 300 1017 l 497 800 l 399 800 m 210 -269 l 315 22 l 56 710 l 154 710 l 333 206 q 346 167 338 192 q 357 133 354 142 l 382 206 l 564 710 l 668 710 l 306 -269 l 210 -269 z "},"–":{"ha":729,"x_min":90,"x_max":639,"o":"m 90 357 l 90 440 l 639 440 l 639 357 l 90 357 z "},"—":{"ha":840,"x_min":14,"x_max":826,"o":"m 14 357 l 14 440 l 826 440 l 826 357 l 14 357 z "},"―":{"ha":840,"x_min":14,"x_max":826,"o":"m 14 357 l 14 440 l 826 440 l 826 357 l 14 357 z "},"‘":{"ha":314,"x_min":60,"x_max":244,"o":"m 160 642 q 90 672 119 642 q 60 758 60 701 q 94 894 60 835 q 186 989 129 954 l 213 982 q 165 917 188 960 q 143 819 143 874 q 216 795 188 819 q 244 733 244 771 q 220 667 244 692 q 160 642 196 642 z "},"’":{"ha":314,"x_min":69,"x_max":254,"o":"m 101 649 q 149 714 126 671 q 171 811 171 757 q 98 835 126 811 q 69 897 69 860 q 94 964 69 939 q 154 989 118 989 q 224 959 194 989 q 254 872 254 929 q 219 736 254 796 q 128 642 185 676 l 101 649 z "},"‚":{"ha":314,"x_min":69,"x_max":254,"o":"m 101 -189 q 149 -124 126 -167 q 171 -26 171 -81 q 98 -2 126 -26 q 69 60 69 22 q 94 126 69 101 q 154 151 118 151 q 224 122 194 151 q 254 35 254 92 q 219 -101 254 -42 q 128 -196 185 -161 l 101 -189 z "},"‛":{"ha":314,"x_min":60,"x_max":244,"o":"m 186 642 q 94 736 129 676 q 60 872 60 796 q 90 959 60 929 q 160 989 119 989 q 220 964 196 989 q 244 897 244 939 q 216 835 244 860 q 143 811 188 811 q 165 714 143 757 q 213 649 188 671 l 186 642 z "},"“":{"ha":586,"x_min":60,"x_max":517,"o":"m 160 642 q 90 672 119 642 q 60 758 60 701 q 94 894 60 835 q 186 989 129 954 l 213 982 q 165 917 188 960 q 143 819 143 874 q 216 795 188 819 q 244 733 244 771 q 220 667 244 692 q 160 642 196 642 m 432 642 q 362 672 392 642 q 332 758 332 701 q 367 894 332 835 q 458 989 401 954 l 485 982 q 438 917 460 960 q 415 819 415 874 q 488 795 460 819 q 517 733 517 771 q 492 667 517 692 q 432 642 468 642 z "},"”":{"ha":586,"x_min":69,"x_max":526,"o":"m 101 649 q 149 714 126 671 q 171 811 171 757 q 98 835 126 811 q 69 897 69 860 q 94 964 69 939 q 154 989 118 989 q 224 959 194 989 q 254 872 254 929 q 219 736 254 796 q 128 642 185 676 l 101 649 m 374 649 q 421 714 399 671 q 443 811 443 757 q 370 835 399 811 q 342 897 342 860 q 366 964 342 939 q 426 989 390 989 q 497 959 467 989 q 526 872 526 929 q 492 736 526 796 q 400 642 457 676 l 374 649 z "},"„":{"ha":586,"x_min":69,"x_max":526,"o":"m 101 -189 q 149 -124 126 -167 q 171 -26 171 -81 q 98 -2 126 -26 q 69 60 69 22 q 94 126 69 101 q 154 151 118 151 q 224 122 194 151 q 254 35 254 92 q 219 -101 254 -42 q 128 -196 185 -161 l 101 -189 m 374 -189 q 421 -124 399 -167 q 443 -26 443 -81 q 370 -2 399 -26 q 342 60 342 22 q 366 126 342 101 q 426 151 390 151 q 497 122 467 151 q 526 35 526 92 q 492 -101 526 -42 q 400 -196 457 -161 l 374 -189 z "},"†":{"ha":778,"x_min":111,"x_max":667,"o":"m 419 635 l 438 469 l 394 -196 l 388 -196 l 338 469 l 353 635 l 160 608 l 111 608 l 111 703 l 160 703 l 349 675 l 338 815 l 338 989 l 438 989 l 438 815 l 424 675 l 615 703 l 667 703 l 667 608 l 615 608 l 419 635 z "},"‡":{"ha":778,"x_min":111,"x_max":667,"o":"m 667 88 l 615 88 l 424 118 l 438 -22 l 438 -196 l 338 -196 l 338 -22 l 349 118 l 160 88 l 111 88 l 111 185 l 160 185 l 353 156 l 338 322 l 338 469 l 353 635 l 160 608 l 111 608 l 111 703 l 160 703 l 349 675 l 338 815 l 338 989 l 438 989 l 438 815 l 424 675 l 615 703 l 667 703 l 667 608 l 615 608 l 419 635 l 438 469 l 438 322 l 419 156 l 615 185 l 667 185 l 667 88 z "},"•":{"ha":578,"x_min":104,"x_max":474,"o":"m 420 361 q 393 335 420 361 q 288 310 367 310 q 156 360 208 310 q 104 486 104 411 q 157 613 104 561 q 288 665 210 665 q 420 613 367 665 q 474 486 474 561 q 420 361 474 413 z "},"…":{"ha":1318,"x_min":146,"x_max":1172,"o":"m 295 7 q 282 -6 295 7 q 233 -19 269 -19 q 172 7 197 -19 q 146 68 146 33 q 172 129 146 103 q 233 156 197 156 q 295 129 269 156 q 321 68 321 103 q 295 7 321 33 m 720 7 q 707 -6 720 7 q 658 -19 694 -19 q 597 7 622 -19 q 571 68 571 33 q 597 129 571 103 q 658 156 622 156 q 720 129 694 156 q 746 68 746 103 q 720 7 746 33 m 1147 7 q 1134 -6 1147 7 q 1085 -19 1121 -19 q 1023 7 1049 -19 q 997 68 997 33 q 1023 129 997 103 q 1085 156 1049 156 q 1147 129 1121 156 q 1172 68 1172 103 q 1147 7 1172 33 z "},"‰":{"ha":1765,"x_min":82,"x_max":1682,"o":"m 300 494 q 135 568 189 494 q 82 742 82 642 q 136 912 82 835 q 300 989 190 989 q 465 916 411 989 q 518 742 518 843 q 499 629 518 682 q 428 535 481 576 q 300 494 376 494 m 335 -17 l 235 -17 l 899 989 l 999 989 l 335 -17 m 300 575 q 394 623 361 575 q 428 742 428 671 q 395 863 428 818 q 300 908 363 908 q 204 861 236 908 q 172 742 172 814 q 205 621 172 667 q 300 575 238 575 m 933 -17 q 769 57 822 -17 q 715 231 715 131 q 769 401 715 324 q 933 478 824 478 q 1098 405 1044 478 q 1151 231 1151 332 q 1133 118 1151 171 q 1062 24 1114 65 q 933 -17 1010 -17 m 1464 -17 q 1299 57 1353 -17 q 1246 231 1246 131 q 1300 401 1246 324 q 1464 478 1354 478 q 1628 405 1575 478 q 1682 231 1682 332 q 1663 118 1682 171 q 1592 24 1644 65 q 1464 -17 1540 -17 m 933 64 q 1028 112 994 64 q 1061 231 1061 160 q 1028 352 1061 307 q 933 397 996 397 q 838 350 869 397 q 806 231 806 303 q 838 110 806 156 q 933 64 871 64 m 1464 64 q 1558 112 1525 64 q 1592 231 1592 160 q 1559 352 1592 307 q 1464 397 1526 397 q 1368 350 1400 397 q 1336 231 1336 303 q 1369 110 1336 156 q 1464 64 1401 64 z "},"′":{"ha":299,"x_min":69,"x_max":229,"o":"m 69 590 l 97 1014 l 229 1014 l 146 590 l 69 590 z "},"″":{"ha":576,"x_min":69,"x_max":507,"o":"m 69 590 l 97 1014 l 229 1014 l 146 590 l 69 590 m 347 590 l 375 1014 l 507 1014 l 424 590 l 347 590 z "},"‹":{"ha":424,"x_min":63,"x_max":382,"o":"m 274 0 l 63 356 l 274 710 l 382 710 l 171 356 l 382 0 l 274 0 z "},"›":{"ha":424,"x_min":42,"x_max":361,"o":"m 42 0 l 253 356 l 42 710 l 150 710 l 361 356 l 150 0 l 42 0 z "},"⁄":{"ha":451,"x_min":-154,"x_max":606,"o":"m -154 -17 l 510 989 l 606 989 l -58 -17 l -154 -17 z "},"ⁿ":{"ha":638,"x_min":104,"x_max":540,"o":"m 442 393 l 442 732 q 328 899 442 899 q 204 738 204 899 l 204 393 l 104 393 l 104 975 l 204 975 l 204 904 q 360 989 263 989 q 499 925 457 989 q 540 715 540 861 l 540 393 l 442 393 z "},"₤":{"ha":818,"x_min":125,"x_max":776,"o":"m 126 0 l 126 92 q 217 199 183 135 q 256 332 251 264 l 125 332 l 125 411 l 260 411 q 236 503 260 449 l 125 503 l 125 582 l 203 582 q 169 721 169 661 q 250 911 169 833 q 482 989 331 989 q 757 899 643 989 l 719 811 q 594 881 650 865 q 482 896 543 896 q 328 843 381 896 q 275 719 275 790 q 314 582 275 665 l 575 582 l 575 503 l 349 503 q 365 411 365 453 l 575 411 l 575 332 l 357 332 q 218 90 333 196 l 776 90 l 776 0 l 126 0 z "},"€":{"ha":844,"x_min":63,"x_max":789,"o":"m 513 -17 q 274 74 358 -17 q 163 322 189 165 l 63 322 l 100 403 l 153 403 q 150 483 150 429 q 151 550 150 528 l 63 550 l 100 631 l 163 631 q 281 888 190 788 q 528 989 371 989 q 756 924 656 989 l 718 835 q 525 899 643 899 q 268 631 315 899 l 633 631 l 600 550 l 257 550 q 254 460 254 519 q 257 403 254 422 l 539 403 l 506 322 l 269 322 q 352 144 293 215 q 510 74 411 74 q 711 174 636 74 l 789 125 q 680 24 751 65 q 513 -17 608 -17 z "},"℅":{"ha":1421,"x_min":90,"x_max":1331,"o":"m 328 378 q 152 460 214 378 q 90 683 90 542 q 155 908 90 826 q 332 989 219 989 q 535 858 489 989 l 440 822 q 322 899 414 899 q 188 683 188 899 q 325 468 188 468 q 406 489 379 468 q 450 551 433 510 l 535 519 q 462 419 515 460 q 328 378 408 378 m 297 -17 l 961 989 l 1064 989 l 400 -17 l 297 -17 m 1067 -17 q 875 64 946 -17 q 804 289 804 144 q 875 513 804 432 q 1067 594 946 594 q 1260 513 1189 594 q 1331 289 1331 432 q 1260 64 1331 144 q 1067 -17 1189 -17 m 1067 74 q 1233 289 1233 74 q 1067 504 1233 504 q 946 448 990 504 q 901 289 901 392 q 946 130 901 186 q 1067 74 990 74 z "},"ℓ":{"ha":629,"x_min":97,"x_max":546,"o":"m 344 -17 q 208 142 208 -17 l 208 346 q 160 318 188 332 q 129 301 133 304 l 97 381 q 208 442 157 403 l 208 726 q 381 989 208 989 q 498 935 450 989 q 546 782 546 881 q 524 649 546 711 q 456 535 501 588 q 384 460 410 483 q 308 397 358 436 l 308 200 q 330 100 308 126 q 392 74 351 74 q 486 121 442 74 l 511 64 q 344 -17 447 -17 m 378 896 q 325 856 342 896 q 308 707 308 815 l 308 497 q 446 758 446 617 q 378 896 446 896 z "},"№":{"ha":1676,"x_min":146,"x_max":1551,"o":"m 1288 378 q 1096 458 1167 378 q 1025 683 1025 539 q 1096 908 1025 826 q 1288 989 1167 989 q 1481 908 1410 989 q 1551 683 1551 826 q 1481 458 1551 539 q 1288 378 1410 378 m 833 0 l 735 0 l 282 728 q 243 793 247 786 l 243 728 l 243 0 l 146 0 l 146 972 l 244 972 l 696 236 q 736 168 718 200 l 736 236 l 736 972 l 833 972 l 833 0 m 1288 468 q 1454 683 1454 468 q 1288 899 1454 899 q 1167 842 1211 899 q 1122 683 1122 786 q 1167 524 1122 581 q 1288 468 1211 468 m 1046 181 l 1046 257 l 1531 257 l 1531 181 l 1046 181 z "},"™":{"ha":1092,"x_min":49,"x_max":974,"o":"m 208 386 l 208 900 l 49 900 l 49 972 l 444 972 l 444 900 l 286 900 l 286 386 l 208 386 m 974 386 l 896 386 l 896 732 l 872 678 l 739 375 l 603 678 l 579 735 l 579 386 l 501 386 l 501 972 l 564 972 l 721 606 l 738 565 l 754 606 l 911 972 l 974 972 l 974 386 z "},"Ω":{"ha":1025,"x_min":118,"x_max":907,"o":"m 608 0 l 608 99 q 749 303 707 208 q 792 540 792 397 q 776 671 792 610 q 730 785 761 732 q 642 870 699 839 q 511 901 586 901 q 348 846 414 901 q 256 712 282 790 q 231 539 231 633 q 273 303 231 397 q 415 99 315 208 l 415 0 l 118 0 l 118 88 l 353 88 q 129 542 129 229 q 150 700 129 624 q 214 843 171 776 q 333 949 257 910 q 511 989 410 989 q 690 949 613 989 q 810 843 767 910 q 873 701 853 776 q 893 542 893 625 q 669 88 893 231 l 907 88 l 907 0 l 608 0 z "},"℮":{"ha":1125,"x_min":90,"x_max":1035,"o":"m 569 -17 q 229 122 368 -17 q 90 486 90 261 q 131 708 90 610 q 239 868 171 807 q 393 961 307 929 q 574 993 479 993 q 744 960 664 993 q 888 866 824 928 q 990 706 951 804 q 1035 486 1029 608 l 308 486 l 308 182 q 413 99 343 132 q 569 67 482 67 q 906 260 779 67 l 976 217 q 805 42 900 101 q 569 -17 710 -17 m 308 567 l 824 568 l 824 801 q 715 879 783 849 q 569 910 646 910 q 308 814 411 910 l 308 567 z "},"⅓":{"ha":997,"x_min":19,"x_max":944,"o":"m 19 -17 l 683 989 l 779 989 l 115 -17 l 19 -17 m 114 393 l 114 843 l 49 843 l 49 903 q 140 979 117 903 l 199 979 l 199 393 l 114 393 m 746 -17 q 535 126 593 -17 l 611 158 q 746 53 656 53 q 826 81 797 53 q 856 156 856 110 q 828 231 856 199 q 758 264 801 264 l 711 264 l 711 333 l 742 333 q 810 361 788 333 q 832 431 832 389 q 808 498 832 469 q 738 526 783 526 q 669 501 700 526 q 619 438 638 476 l 546 463 q 623 558 569 521 q 743 596 676 596 q 872 553 822 596 q 921 439 921 511 q 899 364 921 400 q 842 311 878 328 q 916 258 888 296 q 944 167 944 221 q 890 33 944 82 q 746 -17 835 -17 z "},"⅔":{"ha":1215,"x_min":56,"x_max":1163,"o":"m 56 393 q 67 473 56 436 q 91 533 78 510 q 138 585 104 556 q 190 629 171 615 q 260 676 210 643 q 331 741 308 708 q 354 824 354 774 q 326 889 354 858 q 244 919 299 919 q 128 821 149 919 l 57 850 q 124 951 72 913 q 256 989 175 989 q 388 942 336 989 q 440 817 440 896 q 403 697 440 744 q 278 596 365 649 q 190 533 219 560 q 146 469 160 506 l 439 469 l 439 393 l 56 393 m 238 -17 l 901 989 l 997 989 l 333 -17 l 238 -17 m 964 -17 q 753 126 811 -17 l 829 158 q 964 53 874 53 q 1044 81 1015 53 q 1074 156 1074 110 q 1047 231 1074 199 q 976 264 1019 264 l 929 264 l 929 333 l 960 333 q 1028 361 1006 333 q 1050 431 1050 389 q 1026 498 1050 469 q 956 526 1001 526 q 887 501 918 526 q 838 438 856 476 l 764 463 q 841 558 788 521 q 961 596 894 596 q 1090 553 1040 596 q 1139 439 1139 511 q 1117 364 1139 400 q 1060 311 1096 328 q 1134 258 1106 296 q 1163 167 1163 221 q 1108 33 1163 82 q 964 -17 1053 -17 z "},"⅛":{"ha":986,"x_min":19,"x_max":919,"o":"m 19 -17 l 683 989 l 779 989 l 115 -17 l 19 -17 m 114 393 l 114 843 l 49 843 l 49 903 q 140 979 117 903 l 199 979 l 199 393 l 114 393 m 865 33 q 838 8 865 33 q 724 -17 811 -17 q 582 33 636 -17 q 528 163 528 83 q 626 324 528 279 q 576 368 597 336 q 556 439 556 400 q 603 551 556 507 q 724 596 650 596 q 844 551 797 596 q 892 439 892 507 q 871 369 892 401 q 821 324 850 336 q 919 163 919 278 q 865 33 919 83 m 724 349 q 790 372 765 349 q 814 433 814 396 q 789 501 814 476 q 724 526 764 526 q 659 501 685 526 q 633 433 633 475 q 658 372 633 396 q 724 349 683 349 m 644 85 q 659 69 644 85 q 724 53 675 53 q 803 85 772 53 q 835 171 835 117 q 804 251 835 218 q 724 285 774 285 q 644 251 675 285 q 613 171 613 218 q 644 85 613 117 z "},"⅜":{"ha":1188,"x_min":47,"x_max":1119,"o":"m 258 376 q 47 519 106 376 l 124 551 q 258 446 168 446 q 339 474 310 446 q 368 549 368 503 q 341 624 368 592 q 271 657 314 657 l 224 657 l 224 726 l 254 726 q 322 754 300 726 q 344 824 344 782 q 320 891 344 863 q 250 919 296 919 q 181 894 213 919 q 132 831 150 869 l 58 856 q 135 951 82 914 q 256 989 189 989 q 384 947 335 989 q 433 832 433 904 q 412 757 433 793 q 354 704 390 721 q 428 651 400 689 q 457 560 457 614 q 402 426 457 475 q 258 376 347 376 m 218 -17 l 882 989 l 978 989 l 314 -17 l 218 -17 m 1065 33 q 1038 8 1065 33 q 924 -17 1011 -17 q 782 33 836 -17 q 728 163 728 83 q 826 324 728 279 q 776 368 797 336 q 756 439 756 400 q 803 551 756 507 q 924 596 850 596 q 1044 551 997 596 q 1092 439 1092 507 q 1071 369 1092 401 q 1021 324 1050 336 q 1119 163 1119 278 q 1065 33 1119 83 m 924 349 q 990 372 965 349 q 1014 433 1014 396 q 989 501 1014 476 q 924 526 964 526 q 859 501 885 526 q 833 433 833 475 q 858 372 833 396 q 924 349 883 349 m 844 85 q 859 69 844 85 q 924 53 875 53 q 1003 85 972 53 q 1035 171 1035 117 q 1004 251 1035 218 q 924 285 974 285 q 844 251 875 285 q 813 171 813 218 q 844 85 813 117 z "},"⅝":{"ha":1164,"x_min":43,"x_max":1096,"o":"m 196 -17 l 860 989 l 956 989 l 292 -17 l 196 -17 m 231 376 q 117 399 168 376 q 43 451 67 422 l 88 508 q 225 446 140 446 q 324 483 289 446 q 358 576 358 519 q 328 667 358 632 q 242 703 299 703 q 114 646 160 703 l 57 664 l 106 972 l 397 972 l 397 896 l 168 896 l 143 739 q 256 772 189 772 q 391 718 339 772 q 443 576 443 664 q 383 435 443 493 q 231 376 324 376 m 1042 33 q 1015 8 1042 33 q 900 -17 988 -17 q 758 33 813 -17 q 704 163 704 83 q 803 324 704 279 q 753 368 774 336 q 732 439 732 400 q 779 551 732 507 q 900 596 826 596 q 1021 551 974 596 q 1068 439 1068 507 q 1047 369 1068 401 q 997 324 1026 336 q 1096 163 1096 278 q 1042 33 1096 83 m 900 349 q 966 372 942 349 q 990 433 990 396 q 965 501 990 476 q 900 526 940 526 q 835 501 861 526 q 810 433 810 475 q 835 372 810 396 q 900 349 860 349 m 820 85 q 836 69 820 85 q 900 53 851 53 q 980 85 949 53 q 1011 171 1011 117 q 981 251 1011 218 q 900 285 950 285 q 820 251 851 285 q 789 171 789 218 q 820 85 789 117 z "},"⅞":{"ha":1038,"x_min":28,"x_max":971,"o":"m 68 -17 l 732 989 l 828 989 l 164 -17 l 68 -17 m 135 393 q 307 896 136 665 l 28 896 l 28 972 l 400 972 l 400 892 q 225 393 228 697 l 135 393 m 917 33 q 890 8 917 33 q 775 -17 863 -17 q 633 33 688 -17 q 579 163 579 83 q 678 324 579 279 q 628 368 649 336 q 607 439 607 400 q 654 551 607 507 q 775 596 701 596 q 896 551 849 596 q 943 439 943 507 q 922 369 943 401 q 872 324 901 336 q 971 163 971 278 q 917 33 971 83 m 775 349 q 841 372 817 349 q 865 433 865 396 q 840 501 865 476 q 775 526 815 526 q 710 501 736 526 q 685 433 685 475 q 710 372 685 396 q 775 349 735 349 m 695 85 q 711 69 695 85 q 775 53 726 53 q 855 85 824 53 q 886 171 886 117 q 856 251 886 218 q 775 285 825 285 q 695 251 726 285 q 664 171 664 218 q 695 85 664 117 z "},"←":{"ha":1111,"x_min":63,"x_max":1035,"o":"m 385 272 q 361 283 379 272 l 79 474 q 63 500 63 483 q 79 526 63 515 l 361 718 q 385 729 379 729 q 401 714 401 729 q 393 685 401 707 l 343 539 l 1035 554 l 1035 446 l 343 461 l 393 317 q 401 288 401 292 q 385 272 401 272 z "},"↑":{"ha":588,"x_min":67,"x_max":521,"o":"m 240 0 l 256 686 l 97 632 q 89 631 94 631 q 73 638 79 631 q 67 653 67 644 q 71 665 67 658 l 271 960 q 294 972 279 972 q 318 960 310 972 l 517 665 q 521 653 521 658 q 515 638 521 644 q 499 631 508 631 q 490 632 493 631 l 333 686 l 349 0 l 240 0 z "},"→":{"ha":1111,"x_min":76,"x_max":1049,"o":"m 726 272 q 710 288 710 272 q 718 317 710 292 l 768 461 l 76 446 l 76 554 l 768 539 l 718 685 q 710 714 710 707 q 726 729 710 729 q 750 718 732 729 l 1032 526 q 1049 500 1049 517 q 1032 474 1049 483 l 750 283 q 726 272 732 272 z "},"↓":{"ha":588,"x_min":67,"x_max":521,"o":"m 318 13 q 294 0 310 0 q 271 13 279 0 l 71 307 q 67 319 67 314 q 73 335 67 328 q 89 342 79 342 q 97 340 94 342 l 256 286 l 240 972 l 349 972 l 333 286 l 490 340 q 499 342 493 342 q 515 335 508 342 q 521 319 521 328 q 517 307 521 314 l 318 13 z "},"↔":{"ha":1238,"x_min":63,"x_max":1175,"o":"m 853 272 q 836 288 836 272 q 844 317 836 292 l 893 457 l 344 457 l 393 317 q 401 288 401 292 q 385 272 401 272 q 361 283 379 272 l 79 474 q 63 500 63 483 q 79 526 63 515 l 361 718 q 385 729 379 729 q 401 714 401 729 q 393 685 401 707 l 344 543 l 893 543 l 844 685 q 836 714 836 707 q 853 729 836 729 q 876 718 858 729 l 1158 526 q 1175 500 1175 517 q 1158 474 1175 483 l 876 283 q 853 272 858 272 z "},"↕":{"ha":588,"x_min":65,"x_max":522,"o":"m 319 -219 q 293 -236 308 -236 q 267 -219 278 -236 l 76 63 q 65 86 65 81 q 81 103 65 103 q 110 94 85 103 l 250 46 l 250 782 l 110 733 q 81 725 85 725 q 65 742 65 725 q 76 765 65 747 l 267 1047 q 293 1064 278 1064 q 319 1047 308 1064 l 511 765 q 522 742 522 747 q 507 725 522 725 q 478 733 500 725 l 336 782 l 336 46 l 478 94 q 507 103 500 103 q 522 86 522 103 q 511 63 522 81 l 319 -219 z "},"↖":{"ha":858,"x_min":83,"x_max":817,"o":"m 740 104 l 263 603 l 196 465 q 169 435 182 435 q 149 465 154 435 l 86 792 q 83 811 83 806 q 110 838 83 838 q 129 835 115 838 l 457 772 q 486 751 486 765 q 457 726 486 740 l 317 658 l 817 181 l 740 104 z "},"↗":{"ha":858,"x_min":42,"x_max":775,"o":"m 118 104 l 42 181 l 542 658 l 401 726 q 372 751 372 740 q 401 772 372 765 l 729 835 q 749 838 743 838 q 775 811 775 838 q 772 792 775 806 l 710 465 q 689 435 704 435 q 663 465 676 435 l 596 603 l 118 104 z "},"↘":{"ha":858,"x_min":42,"x_max":775,"o":"m 749 104 q 729 107 743 104 l 401 169 q 372 190 372 176 q 401 215 372 201 l 542 283 l 42 761 l 118 838 l 596 339 l 663 476 q 689 507 676 507 q 710 476 704 507 l 772 150 q 775 131 775 136 q 749 104 775 104 z "},"↙":{"ha":858,"x_min":83,"x_max":817,"o":"m 110 104 q 83 131 83 104 q 86 150 83 136 l 149 476 q 169 507 154 507 q 196 476 182 507 l 263 339 l 740 838 l 817 761 l 317 283 l 457 215 q 486 190 486 201 q 457 169 486 176 l 129 107 q 110 104 115 104 z "},"↳":{"ha":972,"x_min":126,"x_max":910,"o":"m 893 324 q 910 297 910 313 q 893 271 910 281 l 611 81 q 588 69 593 69 q 571 85 571 69 q 579 114 571 89 l 628 254 l 126 254 l 126 972 l 219 972 l 219 340 l 628 340 l 579 482 q 571 511 571 504 q 588 526 571 526 q 611 515 593 526 l 893 324 z "},"↴":{"ha":972,"x_min":126,"x_max":910,"o":"m 894 453 q 910 436 910 453 q 899 413 910 431 l 708 131 q 682 114 697 114 q 656 131 667 114 l 464 413 q 453 436 453 431 q 468 453 453 453 q 497 444 475 453 l 636 397 l 636 886 l 126 886 l 126 972 l 728 972 l 728 397 l 865 444 q 894 453 890 453 z "},"↵":{"ha":972,"x_min":63,"x_max":846,"o":"m 753 972 l 846 972 l 846 254 l 344 254 l 393 114 q 401 85 401 89 q 385 69 401 69 q 361 81 379 69 l 79 271 q 63 297 63 281 q 79 324 63 314 l 361 515 q 385 526 379 526 q 401 511 401 526 q 393 482 401 504 l 344 340 l 753 340 l 753 972 z "},"↶":{"ha":1090,"x_min":63,"x_max":951,"o":"m 345 888 q 395 938 345 888 q 599 989 444 989 q 852 888 753 989 q 951 615 951 786 l 951 0 l 860 0 l 860 615 q 786 828 860 753 q 599 904 713 904 q 411 829 485 904 q 338 615 338 754 l 338 557 l 475 604 q 504 613 500 613 q 519 596 519 613 q 508 572 519 590 l 318 290 q 292 274 308 274 q 265 290 275 274 l 74 572 q 63 596 63 590 q 78 613 63 613 q 107 604 85 613 l 246 557 l 246 615 q 345 888 246 786 z "},"↷":{"ha":1090,"x_min":139,"x_max":1028,"o":"m 1013 613 q 1028 596 1028 613 q 1017 572 1028 590 l 825 290 q 799 274 814 274 q 772 290 783 274 l 582 572 q 571 596 571 590 q 586 613 571 613 q 615 604 590 613 l 753 557 l 753 615 q 679 829 753 754 q 492 904 606 904 q 304 828 378 904 q 231 615 231 753 l 231 0 l 139 0 l 139 615 q 238 888 139 786 q 492 989 338 989 q 745 888 646 989 q 844 615 844 786 l 844 557 l 983 604 q 1013 613 1006 613 z "},"↸":{"ha":858,"x_min":83,"x_max":817,"o":"m 83 886 l 83 972 l 817 972 l 817 886 l 83 886 m 740 10 l 263 508 l 196 371 q 169 340 182 340 q 149 371 154 340 l 86 697 q 83 717 83 711 q 110 743 83 743 q 129 740 115 743 l 457 678 q 486 657 486 671 q 457 632 486 646 l 317 564 l 817 86 l 740 10 z "},"↹":{"ha":1147,"x_min":126,"x_max":1021,"o":"m 638 515 q 614 526 632 515 l 332 717 q 315 743 315 726 q 332 769 315 758 l 614 961 q 638 972 632 972 q 654 957 654 972 q 646 928 654 950 l 596 782 l 1021 797 l 1021 689 l 596 704 l 646 560 q 654 531 654 535 q 638 515 654 515 m 126 529 l 126 958 l 224 958 l 224 529 l 126 529 m 510 -278 q 493 -262 493 -278 q 501 -233 493 -258 l 551 -89 l 126 -104 l 126 4 l 551 -11 l 501 135 q 493 164 493 157 q 510 179 493 179 q 533 168 515 179 l 815 -24 q 832 -50 832 -35 q 815 -76 832 -67 l 533 -267 q 510 -278 515 -278 m 924 -264 l 924 179 l 1021 179 l 1021 -264 l 924 -264 z "},"↺":{"ha":1175,"x_min":139,"x_max":1078,"o":"m 1049 903 q 1078 882 1078 896 q 1049 857 1078 871 l 915 792 q 1036 486 1036 663 q 904 169 1036 300 q 588 38 772 38 q 271 169 403 38 q 139 486 139 300 q 269 803 139 668 l 335 738 q 231 486 231 629 q 335 234 231 339 q 588 129 440 129 q 840 234 735 129 q 944 486 944 339 q 850 726 944 624 l 788 596 q 761 565 774 565 q 740 596 746 565 l 678 922 q 675 942 675 936 q 701 968 675 968 q 721 965 707 968 l 1049 903 z "},"⇚":{"ha":1111,"x_min":63,"x_max":1035,"o":"m 1035 590 l 360 590 l 339 528 l 1035 528 l 1035 472 l 339 472 l 361 410 l 1035 410 l 1035 354 l 381 354 l 393 317 q 401 288 401 292 q 385 272 401 272 q 361 283 379 272 l 79 474 q 63 500 63 483 q 79 526 63 515 l 361 718 q 385 729 379 729 q 401 714 401 729 q 393 685 401 707 l 379 646 l 1035 646 l 1035 590 z "},"⇛":{"ha":1111,"x_min":76,"x_max":1049,"o":"m 1032 526 q 1049 500 1049 517 q 1032 474 1049 483 l 750 283 q 726 272 732 272 q 710 288 710 272 q 718 317 710 292 l 731 354 l 76 354 l 76 410 l 750 410 l 772 472 l 76 472 l 76 528 l 772 528 l 751 590 l 76 590 l 76 646 l 732 646 l 718 685 q 710 714 710 707 q 726 729 710 729 q 750 718 732 729 l 1032 526 z "},"⇜":{"ha":1111,"x_min":63,"x_max":1035,"o":"m 908 543 l 1035 543 l 1035 457 l 864 457 l 836 543 l 774 349 l 701 349 l 639 542 l 576 349 l 504 349 l 469 457 l 344 457 l 393 317 q 401 288 401 292 q 385 272 401 272 q 361 283 379 272 l 79 474 q 63 500 63 483 q 79 526 63 515 l 361 718 q 385 729 379 729 q 401 714 401 729 q 393 685 401 707 l 344 543 l 514 543 l 540 458 l 603 654 l 675 654 l 738 458 l 800 654 l 872 654 l 908 543 z "},"⇝":{"ha":1111,"x_min":76,"x_max":1049,"o":"m 1032 526 q 1049 500 1049 517 q 1032 474 1049 483 l 750 283 q 726 272 732 272 q 710 288 710 272 q 718 317 710 292 l 767 457 l 642 457 l 607 349 l 535 349 l 472 542 l 410 349 l 338 349 l 275 543 l 247 457 l 76 457 l 76 543 l 203 543 l 239 654 l 311 654 l 374 458 l 436 654 l 508 654 l 571 458 l 597 543 l 767 543 l 718 685 q 710 714 710 707 q 726 729 710 729 q 750 718 732 729 l 1032 526 z "},"⇞":{"ha":588,"x_min":67,"x_max":521,"o":"m 490 632 l 340 685 l 340 483 l 508 483 l 508 397 l 340 397 l 340 264 l 508 264 l 508 178 l 340 178 l 340 0 l 249 0 l 249 178 l 81 178 l 81 264 l 249 264 l 249 397 l 81 397 l 81 483 l 249 483 l 249 685 l 97 632 q 89 631 94 631 q 73 638 79 631 q 67 653 67 644 q 71 665 67 658 l 271 960 q 294 972 279 972 q 318 960 310 972 l 517 665 q 521 653 521 658 q 515 638 521 644 q 499 631 508 631 q 490 632 493 631 z "},"⇟":{"ha":588,"x_min":67,"x_max":521,"o":"m 499 342 q 515 335 508 342 q 521 319 521 328 q 517 307 521 314 l 318 13 q 294 0 310 0 q 271 13 279 0 l 71 307 q 67 319 67 314 q 73 335 67 328 q 89 342 79 342 q 97 340 94 342 l 249 288 l 249 489 l 81 489 l 81 575 l 249 575 l 249 708 l 81 708 l 81 794 l 249 794 l 249 972 l 340 972 l 340 794 l 508 794 l 508 708 l 340 708 l 340 575 l 508 575 l 508 489 l 340 489 l 340 288 l 490 340 q 499 342 493 342 z "},"⇠":{"ha":1111,"x_min":63,"x_max":1035,"o":"m 393 685 l 344 543 l 485 543 l 485 457 l 344 457 l 393 317 q 401 288 401 292 q 385 272 401 272 q 361 283 379 272 l 79 474 q 63 500 63 483 q 79 526 63 515 l 361 718 q 385 729 379 729 q 401 714 401 729 q 393 685 401 707 m 603 457 l 603 543 l 760 543 l 760 457 l 603 457 m 878 543 l 1035 543 l 1035 457 l 878 457 l 878 543 z "},"⇡":{"ha":582,"x_min":67,"x_max":521,"o":"m 517 665 q 521 653 521 658 q 515 638 521 644 q 499 631 508 631 q 490 632 493 631 l 339 685 l 339 533 l 247 533 l 247 683 l 97 632 q 89 631 94 631 q 73 638 79 631 q 67 653 67 644 q 71 665 67 658 l 271 960 q 294 972 279 972 q 318 960 310 972 l 517 665 m 247 267 l 247 431 l 339 431 l 339 267 l 247 267 m 247 0 l 247 164 l 339 164 l 339 0 l 247 0 z "},"⇢":{"ha":1111,"x_min":63,"x_max":1035,"o":"m 1018 526 q 1035 500 1035 517 q 1018 474 1035 483 l 736 283 q 713 272 718 272 q 696 288 696 272 q 704 317 696 292 l 753 457 l 613 457 l 613 543 l 753 543 l 704 685 q 696 714 696 707 q 713 729 696 729 q 736 718 718 729 l 1018 526 m 63 457 l 63 543 l 219 543 l 219 457 l 63 457 m 338 457 l 338 543 l 494 543 l 494 457 l 338 457 z "},"⇣":{"ha":588,"x_min":67,"x_max":521,"o":"m 339 972 l 339 808 l 247 808 l 247 972 l 339 972 m 339 706 l 339 542 l 247 542 l 247 706 l 339 706 m 499 342 q 515 335 508 342 q 521 319 521 328 q 517 307 521 314 l 318 13 q 294 0 310 0 q 271 13 279 0 l 71 307 q 67 319 67 314 q 73 335 67 328 q 89 342 79 342 q 97 340 94 342 l 247 289 l 247 439 l 339 439 l 339 288 l 490 340 q 499 342 493 342 z "},"⇤":{"ha":1083,"x_min":126,"x_max":1007,"o":"m 126 144 l 126 854 l 224 854 l 224 144 l 126 144 m 638 272 q 614 283 632 272 l 332 474 q 315 500 315 483 q 332 526 315 515 l 614 718 q 638 729 632 729 q 654 714 654 729 q 646 685 654 707 l 596 539 l 1007 554 l 1007 446 l 596 461 l 646 317 q 654 288 654 292 q 638 272 654 272 z "},"⇥":{"ha":1083,"x_min":76,"x_max":957,"o":"m 860 144 l 860 854 l 957 854 l 957 144 l 860 144 m 446 272 q 429 288 429 272 q 438 317 429 292 l 488 461 l 76 446 l 76 554 l 488 539 l 438 685 q 429 714 429 707 q 446 729 429 729 q 469 718 451 729 l 751 526 q 768 500 768 517 q 751 474 768 483 l 469 283 q 446 272 451 272 z "},"∂":{"ha":828,"x_min":63,"x_max":731,"o":"m 353 -17 q 142 60 222 -17 q 63 254 63 138 q 160 508 63 411 q 390 604 258 604 q 638 458 556 604 q 642 529 642 496 q 615 695 642 624 q 542 809 589 767 q 438 874 494 851 q 315 899 382 896 l 338 989 q 638 835 544 965 q 731 463 731 704 q 718 316 731 385 q 676 185 706 247 q 605 79 647 124 q 498 9 563 35 q 353 -17 433 -17 m 347 78 q 533 142 465 78 q 601 314 601 206 q 394 507 601 507 q 224 449 286 507 q 161 286 161 390 q 213 134 161 190 q 347 78 265 78 z "},"∆":{"ha":919,"x_min":83,"x_max":836,"o":"m 83 0 l 421 972 l 496 972 l 836 0 l 83 0 m 215 90 l 706 90 l 490 711 q 472 765 483 729 q 458 808 461 800 q 444 765 456 800 q 426 711 433 729 l 215 90 z "},"∏":{"ha":1003,"x_min":146,"x_max":857,"o":"m 757 -194 l 757 875 l 244 875 l 244 -194 l 146 -194 l 146 972 l 857 972 l 857 -194 l 757 -194 z "},"∑":{"ha":875,"x_min":83,"x_max":806,"o":"m 83 -197 l 83 -115 l 460 400 l 103 888 l 103 969 l 778 969 l 778 875 l 232 875 l 581 403 l 211 -101 l 806 -101 l 806 -197 l 83 -197 z "},"−":{"ha":917,"x_min":132,"x_max":785,"o":"m 132 428 l 132 522 l 785 522 l 785 428 l 132 428 z "},"∕":{"ha":451,"x_min":-154,"x_max":606,"o":"m -154 -17 l 510 989 l 606 989 l -58 -17 l -154 -17 z "},"∙":{"ha":314,"x_min":69,"x_max":244,"o":"m 219 424 q 206 410 219 424 q 157 397 193 397 q 95 424 121 397 q 69 485 69 450 q 95 546 69 519 q 157 572 121 572 q 219 546 193 572 q 244 485 244 519 q 219 424 244 450 z "},"√":{"ha":775,"x_min":83,"x_max":713,"o":"m 713 972 l 418 0 l 319 0 l 83 454 l 181 454 l 361 107 l 610 972 l 713 972 z "},"∞":{"ha":1410,"x_min":69,"x_max":1340,"o":"m 1028 178 q 704 418 810 178 q 382 178 588 178 q 158 263 247 178 q 69 496 69 347 q 158 731 69 646 q 382 817 247 817 q 704 572 586 817 q 831 753 757 690 q 1025 817 906 817 q 1251 731 1163 817 q 1340 496 1340 646 q 1251 263 1340 347 q 1028 178 1163 178 m 393 265 q 667 496 550 265 q 393 729 547 729 q 231 666 294 729 q 168 496 168 603 q 231 327 168 389 q 393 265 294 265 m 1017 265 q 1178 327 1115 265 q 1240 496 1240 389 q 1178 666 1240 603 q 1017 729 1115 729 q 740 496 857 729 q 1017 265 854 265 z "},"∫":{"ha":607,"x_min":76,"x_max":531,"o":"m 206 -194 q 76 -164 132 -194 l 76 -92 q 178 -111 135 -111 q 239 -89 224 -111 q 254 -29 254 -67 l 254 831 q 400 989 254 989 q 531 956 469 989 l 531 883 q 429 906 457 906 q 353 821 353 906 l 353 -36 q 206 -194 353 -194 z "},"≈":{"ha":917,"x_min":135,"x_max":782,"o":"m 610 510 q 447 553 550 510 q 299 597 343 597 q 223 573 253 597 q 190 510 193 549 l 135 510 q 176 638 135 588 q 307 688 218 688 q 474 644 369 688 q 618 600 578 600 q 694 625 664 600 q 726 688 724 650 l 782 688 q 740 560 782 610 q 610 510 697 510 m 610 264 q 447 308 550 264 q 299 351 343 351 q 223 327 253 351 q 190 264 193 303 l 135 264 q 176 393 135 342 q 307 444 218 444 q 474 401 369 444 q 618 357 578 357 q 694 381 664 357 q 726 444 724 406 l 782 444 q 740 315 782 367 q 610 264 697 264 z "},"≠":{"ha":917,"x_min":153,"x_max":799,"o":"m 438 315 l 368 171 l 268 171 l 338 315 l 153 315 l 153 415 l 393 415 l 456 536 l 153 536 l 153 636 l 507 636 l 571 758 l 669 758 l 606 636 l 799 636 l 799 536 l 554 536 l 490 415 l 799 415 l 799 315 l 438 315 z "},"≤":{"ha":917,"x_min":132,"x_max":785,"o":"m 782 267 l 132 501 l 132 599 l 782 836 l 782 725 l 257 551 l 782 375 l 782 267 m 132 0 l 132 93 l 785 93 l 785 0 l 132 0 z "},"≥":{"ha":917,"x_min":132,"x_max":785,"o":"m 132 267 l 132 375 l 657 551 l 132 725 l 132 836 l 782 599 l 782 501 l 132 267 m 132 0 l 132 93 l 785 93 l 785 0 l 132 0 z "},"◊":{"ha":861,"x_min":99,"x_max":765,"o":"m 379 -17 l 99 486 l 379 989 l 485 989 l 765 486 l 485 -17 l 379 -17 m 432 924 l 190 486 l 432 49 l 674 486 l 432 924 z "},"◌":{"ha":936,"x_min":97,"x_max":839,"o":"m 438 794 q 432 800 438 794 q 426 825 426 806 q 438 857 426 844 q 468 869 450 869 q 498 857 486 869 q 510 825 510 844 q 498 794 510 806 q 468 783 486 783 q 438 794 450 783 m 300 800 q 312 832 300 819 q 343 844 324 844 q 373 832 361 844 q 385 800 385 819 q 373 770 385 782 q 343 758 361 758 q 313 770 325 758 q 300 800 300 782 m 562 770 q 556 776 562 770 q 550 800 550 782 q 563 831 550 818 q 592 843 575 843 q 624 831 611 843 q 636 800 636 819 q 624 770 636 782 q 592 758 611 758 q 562 770 574 758 m 194 731 q 206 760 194 749 q 238 772 218 772 q 267 761 256 772 q 279 731 279 750 q 268 699 279 711 q 238 688 257 688 q 206 699 218 688 q 194 731 194 711 m 668 699 q 663 705 668 699 q 657 731 657 711 q 669 761 657 750 q 699 772 681 772 q 730 760 718 772 q 742 731 742 749 q 730 699 742 711 q 699 688 718 688 q 668 699 679 688 m 740 594 q 734 600 740 594 q 728 624 728 606 q 740 655 728 642 q 769 668 751 668 q 800 655 788 668 q 813 624 813 642 q 800 594 813 606 q 769 582 788 582 q 740 594 751 582 m 136 593 q 130 599 136 593 q 124 624 124 606 q 135 654 124 642 q 167 667 147 667 q 198 654 186 667 q 210 624 210 642 q 197 593 210 606 q 167 581 183 581 q 136 593 149 581 m 97 499 q 110 530 97 518 q 142 542 122 542 q 172 530 161 542 q 183 499 183 518 q 172 469 183 481 q 142 457 161 457 q 110 469 122 457 q 97 499 97 481 m 753 499 q 764 530 753 518 q 794 542 775 542 q 826 530 813 542 q 839 499 839 518 q 826 469 839 481 q 794 457 813 457 q 764 469 775 457 q 753 499 753 481 m 136 343 q 130 349 136 343 q 124 374 124 356 q 135 404 124 392 q 167 417 147 417 q 197 404 185 417 q 208 374 208 392 q 197 343 208 356 q 167 331 185 331 q 136 343 149 331 m 726 375 q 739 405 726 393 q 769 417 751 417 q 800 405 788 417 q 813 375 813 393 q 801 344 813 356 q 769 332 789 332 q 738 344 750 332 q 726 375 726 356 m 206 238 q 200 244 206 238 q 194 268 194 250 q 207 299 194 286 q 238 311 219 311 q 267 299 256 311 q 279 268 279 288 q 267 238 279 250 q 238 226 256 226 q 206 238 218 226 m 657 268 q 669 299 657 288 q 699 311 681 311 q 729 299 717 311 q 742 268 742 286 q 730 238 742 250 q 699 226 718 226 q 669 238 681 226 q 657 268 657 250 m 300 199 q 313 228 300 217 q 344 240 325 240 q 374 228 363 240 q 386 199 386 217 q 374 167 386 181 q 344 154 361 154 q 313 167 325 154 q 300 199 300 179 m 563 167 q 557 173 563 167 q 551 197 551 179 q 563 228 551 215 q 593 240 575 240 q 624 228 611 240 q 636 197 636 217 q 624 166 636 178 q 593 154 611 154 q 563 167 575 154 m 438 141 q 432 147 438 141 q 426 172 426 153 q 438 203 426 192 q 468 215 450 215 q 498 203 486 215 q 510 172 510 192 q 498 141 510 153 q 468 129 486 129 q 438 141 450 129 z "},"":{"ha":0,"x_min":-303,"x_max":-164,"o":"m -164 1014 l -164 1003 q -275 697 -164 807 l -303 717 q -273 844 -285 756 q -261 1014 -261 933 l -164 1014 z "},"ﬁ":{"ha":808,"x_min":42,"x_max":697,"o":"m 253 622 l 253 0 l 156 0 l 156 622 l 42 622 l 42 710 l 156 710 l 156 831 q 198 950 156 911 q 303 989 240 989 q 424 956 363 989 l 424 871 q 322 899 371 899 q 283 892 299 899 q 262 871 268 885 q 254 846 256 857 q 253 815 253 835 l 253 710 l 424 710 l 424 622 l 253 622 m 679 874 q 670 865 679 874 q 633 856 661 856 q 588 874 606 856 q 569 919 569 892 q 588 967 569 947 q 633 986 607 986 q 679 967 661 986 q 697 919 697 947 q 679 874 697 892 m 585 0 l 585 710 l 682 710 l 682 0 l 585 0 z "},"ﬂ":{"ha":819,"x_min":42,"x_max":688,"o":"m 590 0 l 590 956 l 688 1003 l 688 0 l 590 0 m 253 622 l 253 0 l 156 0 l 156 622 l 42 622 l 42 710 l 156 710 l 156 831 q 198 950 156 911 q 303 989 240 989 q 424 956 363 989 l 424 871 q 322 899 371 899 q 283 892 299 899 q 262 871 268 885 q 254 846 256 857 q 253 815 253 835 l 253 710 l 424 710 l 424 622 l 253 622 z "}}}
